<svg xmlns="http://www.w3.org/2000/svg" xmlns:xlink="http://www.w3.org/1999/xlink" viewBox="0 0 510.84 368.28"><defs><clipPath id="a"><path fill="none" d="M-10.8-10.08h534.24v388.8H-10.8z"/></clipPath><clipPath id="b"><path fill="none" d="M0 0h510.84v368.28H0z"/></clipPath><clipPath id="e"><path fill="none" d="M8.06 8.78h496.11v350.79H8.06z"/></clipPath><mask id="c" width="534.24" height="388.8" x="-10.8" y="-10.08" maskUnits="userSpaceOnUse"><g clip-path="url(#a)"><image xlink:href="Zaso%CC%81b%2011.png" width="1484" height="1080" transform="matrix(.36 0 0 .36 -10.8 -10.08)"/></g></mask></defs><g data-name="Warstwa 2" style="isolation:isolate"><g data-name="Warstwa 1"><g clip-path="url(#b)" mask="url(#c)"><path fill="#1d1d1b" d="M0 0h510.84v368.28H0z" opacity=".16" style="mix-blend-mode:multiply"/></g><path fill="none" stroke="#e30613" stroke-miterlimit="10" stroke-width=".59" d="M15.91 15.87h478.78v336.31H15.91z"/><path fill="#e30613" d="m92.55 64.42 48.55-23.9v4.36L94 65.91z"/><g clip-path="url(#e)"><path fill="#e30613" d="M112 163.92v-93h-1.58c-8-.28-14.51-4.1-17.88-6.51v94.79c2.29 2.44 8.39 7.22 19.46 4.72m-7.69-98.51 39.81-14.98v-4.1zm5.03 1.99 42.5-14.03v-4.1zm6.56.91 45.16-11.83v-4.09zM162.08 59 114.9 71.41l-2.9 92.51 49.9-13.21 14.5-16.48V112.3l-16.11 4.22a7.91 7.91 0 0 0-5.9 7.63v11.1l-17.66 4.63.11-56.81 17.66-4.64v11.11a4.67 4.67 0 0 0 5.86 4.53l16.12-4.22V67.92ZM200 114.8c3.76 0 5.45 1.67 6 2.24l-2.73 3a4.11 4.11 0 0 0-3.54-1.75c-2.57 0-3.88 1.94-3.88 6.22 0 4 1.37 6.33 4.23 6.33a4.32 4.32 0 0 0 3.41-1.61l2.29 2.94c-.82 1-2.75 2.24-6 2.24-5.87 0-8.16-3.93-8.16-9.63 0-6 2.87-10 8.46-10m20.3 17.97c-1.2 1-2.7 1.72-5.65 1.72-4.85 0-7.33-2.73-7.33-8 0-5 2.78-8 7.22-8 3.93 0 6.19 2.48 6.19 6.24a18 18 0 0 1-.19 2.76h-9.19c.06 2.43 1.15 3.76 3.77 3.76a4.67 4.67 0 0 0 3.38-1.39Zm-8.87-8h5.43v-.41c0-1.8-.76-2.75-2.43-2.75a3 3 0 0 0-3 3.16m21.75-2.12a9.7 9.7 0 0 0-1.78-.13 6.07 6.07 0 0 0-3.6 1.22v10.45h-4.09v-15.41H227l.85 2.26h.1a4.11 4.11 0 0 1 4-2.59 6.7 6.7 0 0 1 1.31.14Zm2.74 6.6v-7.33h-2v-2.57l2-.82 1.42-3.62h2.62v3.87h3.84v3.14h-3.84v7.44a1.45 1.45 0 0 0 1.61 1.61 3.67 3.67 0 0 0 2.1-.68l1.06 3.08c-.52.38-1.72 1-4.28 1S236 133 236 129.23m10.57 6.9a3.54 3.54 0 0 0 1.66.38 2.33 2.33 0 0 0 2.49-2.4l-5.79-15.35h4.61l1.72 5.24a40.5 40.5 0 0 1 1.37 5.37h.1a50 50 0 0 1 1.15-5.37l1.44-5.24h4.26l-5.18 16.17c-.87 2.7-2.4 5-6 5a6.5 6.5 0 0 1-2.51-.47ZM270 116.44a7.6 7.6 0 0 0-1.78-.27c-1.14 0-1.55.54-1.55 1.61v1h9.79v2.83h-9.87v12.58h-4.12v-12.6h-2.26v-2.83h2.34v-1.09c0-2.57 1.69-4.83 5.51-4.83a10 10 0 0 1 2.51.27Z"/><path fill="#e30613" d="M274.29 112.3a2.39 2.39 0 1 1 0 4.77 2.33 2.33 0 0 1-2.35-2.32 2.35 2.35 0 0 1 2.35-2.45m-2 6.46h4.12v15.41h-4.12Zm12.06 15.41h-4.12V113.5h4.12Zm.11-8.27 4.2-7.14h4.72l-4.53 7.09v.15l4.64 8.21h-4.88l-4.15-8.21Zm22.45-2.31v6.16c0 .87.33 1.26 1.06 1.26h.44v2.83a3.7 3.7 0 0 1-2 .52 2.87 2.87 0 0 1-2.79-1.66h-.11a4.58 4.58 0 0 1-3.92 1.71 4.21 4.21 0 0 1-4.56-4.25c0-3.55 3.19-5.18 8.05-4.94V124a2 2 0 0 0-2.21-2.23 2.72 2.72 0 0 0-2.65 1.74l-2.92-2.15a6.37 6.37 0 0 1 5.54-2.89c3.93 0 6.11 1.36 6.11 5.1M303 128c-2.7-.2-4 .43-4 1.77a1.48 1.48 0 0 0 1.66 1.5 3 3 0 0 0 2.38-1.09Zm8.09 1.23v-7.33h-2v-2.57l2-.82 1.42-3.62h2.62v3.87H319v3.14h-3.85v7.44a1.45 1.45 0 0 0 1.61 1.61 3.67 3.67 0 0 0 2.1-.68l1.06 3.08c-.51.38-1.72 1-4.28 1s-4.55-1.33-4.55-5.07m-110.54 14.95h4.09v20.67h-3.22l-.66-1.25h-.1a5.32 5.32 0 0 1-3.77 1.5c-3.24 0-5.62-2.13-5.62-7.15 0-6.49 3.5-8.59 6.74-8.59a7.8 7.8 0 0 1 2.54.33Zm.11 16.36v-7.31a4 4 0 0 0-2-.54c-1.69 0-3.16.74-3.16 4.91 0 3 1.09 4.25 2.67 4.25a3 3 0 0 0 2.54-1.31m11.76-16.36v15.82c0 1.14.52 1.53 1.28 1.53a2.2 2.2 0 0 0 .57-.06v3.25a5 5 0 0 1-2 .38 3.68 3.68 0 0 1-4-4v-16.92ZM228 154.32v6.16c0 .88.33 1.26 1.06 1.26h.44v2.84a3.7 3.7 0 0 1-2.05.51 2.85 2.85 0 0 1-2.78-1.66h-.11a4.59 4.59 0 0 1-3.92 1.72 4.21 4.21 0 0 1-4.56-4.26c0-3.54 3.19-5.18 8.05-4.93v-1.2a2 2 0 0 0-2.21-2.24 2.72 2.72 0 0 0-2.65 1.75l-2.92-2.16a6.39 6.39 0 0 1 5.54-2.89c3.93 0 6.11 1.36 6.11 5.1m-3.87 4.42c-2.7-.19-4 .43-4 1.77a1.48 1.48 0 0 0 1.67 1.5 3 3 0 0 0 2.37-1.09Zm32.61-9.6c3 0 4.75 1.61 4.75 5.13v10.63h-4.12V155c0-1.8-.93-2.4-2-2.4a2.88 2.88 0 0 0-2.57 1.78v10.52h-4.1v-9.6c0-1.8-.77-2.7-2.19-2.7a2.74 2.74 0 0 0-2.37 1.83v10.47H240v-15.41h3.38l.69 1.45h.11a5.09 5.09 0 0 1 4.06-1.8c2.35 0 3.3 1 3.85 2.07h.1a5.58 5.58 0 0 1 4.53-2.07m19.5 5.18v6.16c0 .88.33 1.26 1.06 1.26h.44v2.84a3.7 3.7 0 0 1-2 .51 2.85 2.85 0 0 1-2.79-1.66h-.11a4.59 4.59 0 0 1-3.92 1.72 4.21 4.21 0 0 1-4.56-4.26c0-3.54 3.19-5.18 8.05-4.93v-1.2a2 2 0 0 0-2.21-2.24 2.73 2.73 0 0 0-2.65 1.75l-2.92-2.16a6.39 6.39 0 0 1 5.54-2.89c3.93 0 6.11 1.36 6.11 5.1m-3.87 4.42c-2.7-.19-4 .43-4 1.77A1.48 1.48 0 0 0 270 162a3 3 0 0 0 2.38-1.09Zm11.8-4.42v5.73c0 1.14.52 1.53 1.28 1.53a2.2 2.2 0 0 0 .57-.06v3.25a5 5 0 0 1-2 .38 3.68 3.68 0 0 1-4-4v-4l-1.77 1.2v-3l1.77-1.2v-9.9h4.12v7.06l2.45-1.66v3Zm16.94 9.16c-1.2 1-2.7 1.72-5.65 1.72-4.85 0-7.33-2.72-7.33-8 0-5 2.78-8 7.22-8 3.93 0 6.19 2.49 6.19 6.25a18 18 0 0 1-.19 2.75h-9.19c.06 2.43 1.15 3.77 3.76 3.77a4.7 4.7 0 0 0 3.39-1.39Zm-8.87-8h5.43v-.41c0-1.8-.76-2.76-2.43-2.76a3 3 0 0 0-3 3.17m9.61 12.15c2-.87 2.73-1.85 2.73-5v-13.14h4.11v13.29c0 3.05-.76 6.68-5.53 8.1Zm4.74-24.6a2.38 2.38 0 0 1 2.43 2.45 2.34 2.34 0 0 1-2.43 2.32 2.31 2.31 0 0 1-2.34-2.32 2.35 2.35 0 0 1 2.34-2.45m18.12 21.87h-4.12v-20.67h4.12Zm.1-8.26 4.17-7.14h4.71l-4.52 7.09v.1l4.63 8.21H329l-4.15-8.15Zm10.78-2.64c0-2.51 2.15-4.77 5.73-4.77a7 7 0 0 1 5.56 2.15l-2.64 2.6a4.1 4.1 0 0 0-3-1.45c-.93 0-1.53.49-1.53 1.2 0 2.32 7.26 1.5 7.26 6.65 0 2-1.61 4.81-6.09 4.81a8.55 8.55 0 0 1-6.27-2.32l2.46-2.84a5.6 5.6 0 0 0 4 1.91c1.29 0 1.78-.6 1.78-1.31 0-2.24-7.26-1.5-7.26-6.63m16.23-11a2.38 2.38 0 0 1 2.43 2.46 2.34 2.34 0 0 1-2.43 2.31 2.31 2.31 0 0 1-2.34-2.31 2.35 2.35 0 0 1 2.34-2.46m-2 6.46H354v15.44h-4.12ZM370 163.48a6.8 6.8 0 0 1-1.82 1.12c-1.18.63-3.25 1.94-3.25 3.36 0 .71.41 1.14 1.23 1.14a3.6 3.6 0 0 0 1.69-.49l.76 2.32a6.5 6.5 0 0 1-3 .68c-2.7 0-3.74-1.47-3.74-3.19a4.9 4.9 0 0 1 1.45-3.27c-4.17-.36-6.33-3.06-6.33-8s2.78-8 7.23-8c3.93 0 6.19 2.49 6.19 6.25a19 19 0 0 1-.19 2.75H361c.05 2.43 1.14 3.77 3.76 3.77a4.65 4.65 0 0 0 3.38-1.39Zm-8.86-8h5.43v-.41c0-1.8-.77-2.76-2.43-2.76a3 3 0 0 0-3 3.17m24.64 8.74c0 4.2-2.95 6.27-7.07 6.27-3.79 0-5.32-1.06-6.19-2.1l2.32-3a4.84 4.84 0 0 0 3.87 1.8c2.13 0 3-.79 3-3v-.79h-.11a4.57 4.57 0 0 1-3 .88c-3.19 0-6.05-1.59-6.05-7.12 0-4.34 2.45-7.86 7.5-7.86a13.8 13.8 0 0 1 5.73.93ZM380 152.55c-2.15 0-3.38 1.5-3.38 4.44 0 3.17 1.09 4 2.92 4a2.93 2.93 0 0 0 2.15-.79v-7.34a4.9 4.9 0 0 0-1.69-.27m20.56 1.73v6.16c0 .88.33 1.26 1.07 1.26h.43v2.84a3.7 3.7 0 0 1-2 .51 2.84 2.84 0 0 1-2.78-1.66h-.11a4.62 4.62 0 0 1-3.93 1.72 4.21 4.21 0 0 1-4.56-4.26c0-3.54 3.19-5.18 8.05-4.93v-1.2a2 2 0 0 0-2.21-2.24 2.73 2.73 0 0 0-2.65 1.75l-2.91-2.16a6.37 6.37 0 0 1 5.53-2.89c3.93 0 6.11 1.36 6.11 5.1m-3.87 4.42c-2.7-.19-4 .43-4 1.77a1.48 1.48 0 0 0 1.67 1.5 3 3 0 0 0 2.37-1.09Zm17.14-5.37a9.5 9.5 0 0 0-1.77-.14 6 6 0 0 0-3.6 1.23v10.44h-4.09v-15.4h3.22l.85 2.26h.1a4.11 4.11 0 0 1 4-2.59 6.5 6.5 0 0 1 1.3.13Zm14.98 11.53h-4.12v-9.79c0-1.58-.73-2.51-2.12-2.51a2.83 2.83 0 0 0-2.65 1.83v10.47h-4.12v-15.41h3.22l.82 1.45h.12a5.5 5.5 0 0 1 4.14-1.83c3 0 4.72 1.67 4.72 5.13Zm5.76-21.9a2.38 2.38 0 0 1 2.43 2.46 2.39 2.39 0 1 1-2.43-2.46m-2 6.46h4.12v15.44h-4.12Z"/><path fill="#9fa4a7" d="M362.5 250.09v-6.17c-.16.78-.3 1.34-.38 1.65l-1.12 4.52h-2l-1.14-4.42c-.13-.5-.24-1.08-.37-1.75v6.17h-2.64v-9.24h3.55l1.26 4.61c0 .12.13.57.31 1.35a12 12 0 0 1 .29-1.33l1.29-4.63h3.55v9.24Zm4.61-6.82h2.69v6.83h-2.69zm9.11 6.82v-3.53c0-.94-.18-1.37-.91-1.37s-1 .45-1 1.38v3.52h-2.67v-6.83h2.43v1a2.82 2.82 0 0 1 2.35-1.19 2.37 2.37 0 0 1 1.91.83 4 4 0 0 1 .55 2.63v3.55Zm4.45-6.82h2.69v6.83h-2.69zm7.52 7.07c-2.18 0-3.31-.8-3.43-2.4h2.59a.77.77 0 0 0 .88.87c.56 0 .87-.21.87-.57s-.38-.54-1.13-.71c-2.07-.45-3-.82-3-2.26s1.12-2.25 3.3-2.25c2 0 3.11.73 3.27 2.15h-2.4a.77.77 0 0 0-.85-.67c-.48 0-.72.18-.72.47 0 .49.44.49 1.28.69 2 .46 2.92.83 2.92 2.31s-1.2 2.37-3.55 2.37m7.52-.13c-1.65 0-2.27-.48-2.27-2v-3.42h-1v-1.57h1v-2.1h2.65v2.1h1.25v1.57h-1.25v2.73c0 .49.25.63.9.63h.38v2c-.58 0-1.14.07-1.66.07m5.26-2.94c0 .87.46 1.36 1.23 1.36a1 1 0 0 0 1-.57h2.55c-.36 1.48-1.63 2.27-3.7 2.27a3.43 3.43 0 0 1-3.75-3.6 3.51 3.51 0 0 1 3.85-3.72c2.38 0 3.82 1.52 3.82 4.09v.17Zm1.16-2.64c-.7 0-1.13.46-1.16 1.27h2.37c-.05-.85-.45-1.27-1.21-1.27m9.2 1.12c-1.07 0-1.57.47-1.57 1.53v2.8h-2.68v-6.83h2.47v1.25a2 2 0 0 1 2.08-1.43h.24v2.72a4 4 0 0 0-.54 0m4.85 4.54q-3.25 0-3.42-2.4h2.59a.77.77 0 0 0 .87.87c.57 0 .87-.21.87-.57s-.38-.54-1.12-.71c-2.08-.45-3-.82-3-2.26s1.13-2.25 3.3-2.25c2 0 3.11.73 3.28 2.15h-2.41a.76.76 0 0 0-.84-.67c-.48 0-.72.18-.72.47 0 .49.44.49 1.27.69 2 .46 2.92.83 2.92 2.31s-1.2 2.37-3.55 2.37m7.56-.13c-1.66 0-2.28-.48-2.28-2v-3.42h-.95v-1.57h.95v-2.1h2.66v2.1h1.25v1.57h-1.25v2.73c0 .49.25.63.89.63h.38v2c-.58 0-1.13.07-1.65.07m11.94-.13h-2.62l-.97-3.94-.97 3.94h-2.62l-2.21-6.83H429l1 4.17 1.03-4.17h2.25l1.04 4.17 1-4.17h2.54zm6.15.25a3.66 3.66 0 1 1 3.79-3.67 3.45 3.45 0 0 1-3.79 3.67m0-5.43c-.81 0-1.1.55-1.1 1.76s.29 1.78 1.1 1.78 1.11-.57 1.11-1.78-.3-1.76-1.11-1.76"/><path fill="#b92517" d="m360.73 263-2.24-3.72-.72.76V263h-2.91v-9.3h2.91v3.08l2.63-3.08h3.41l-3.27 3.43 3.68 5.87zm8.68 0v-1a2.82 2.82 0 0 1-2.36 1.19 2.34 2.34 0 0 1-1.92-.83 4 4 0 0 1-.55-2.66v-3.55h2.69v3.54c0 .94.17 1.38.91 1.38s1-.46 1-1.4v-3.52h2.68V263Zm4.16-9.3h2.71v9.3h-2.71zm7.14 9.42c-1.67 0-2.29-.48-2.29-2v-3.44h-.95v-1.57h.95V254h2.67v2.13h1.26v1.57h-1.26v2.74c0 .49.25.64.9.64a3 3 0 0 0 .38 0v2c-.58 0-1.14.07-1.66.07m7.7-.15v-1a2.83 2.83 0 0 1-2.36 1.19 2.33 2.33 0 0 1-1.92-.83 4 4 0 0 1-.55-2.66v-3.55h2.68v3.54c0 .94.18 1.38.92 1.38s1-.46 1-1.4v-3.52h2.68V263Zm8.37-4.36c-1.08 0-1.57.48-1.57 1.54V263h-2.7v-6.86H395v1.25a2 2 0 0 1 2.1-1.44h.24v2.73h-.55m6.67 4.32a6 6 0 0 1-1 2.23 2.72 2.72 0 0 1-2.13.57c-.31 0-.77 0-1.36-.06v-2h.77c.49 0 .73-.15.73-.58a2.1 2.1 0 0 0-.14-.67l-2.26-6.28h2.72l1.21 4.09 1.15-4.16h2.52Z"/><path fill="#9fa4a7" d="M354.81 266.7h2.69v2h-2.69Zm0 2.65h2.69v6.83h-2.69Zm15 6.44a8.2 8.2 0 0 1-3.26.39h-3v-9.25h3.52a6.1 6.1 0 0 1 3.15.53c1.26.75 1.9 2.11 1.9 4.1s-.8 3.54-2.33 4.23m-2.5-6.52h-.82v4.57h.78c1.44 0 1.93-.55 1.93-2.28s-.51-2.29-1.89-2.29m5.65 6.91v-1.84l3.06-2.99h-2.8v-2h5.94v1.83l-2.98 3.01h3.14v1.99zm7.54-9.48h2.69v2h-2.69Zm0 2.65h2.69v6.83h-2.69Zm6.69 4.01c0 .88.46 1.37 1.23 1.37a1 1 0 0 0 1-.57h2.6c-.36 1.48-1.63 2.26-3.7 2.26a3.43 3.43 0 0 1-3.75-3.6 3.51 3.51 0 0 1 3.85-3.71c2.38 0 3.82 1.52 3.82 4.09v.16Zm1.16-2.63c-.7 0-1.13.46-1.16 1.27h2.37c-.05-.85-.45-1.27-1.21-1.27m9.85 5.45v-.84a2.63 2.63 0 0 1-2.19 1.08c-1.7 0-2.89-1.4-2.89-3.62s1.22-3.65 2.86-3.65a2.45 2.45 0 0 1 2 .94v-3.16h2.61v9.25Zm-1.31-4.92c-.75 0-1.09.51-1.09 1.58s.42 1.58 1.09 1.58 1.1-.57 1.1-1.58-.35-1.58-1.1-1.58m4.73 4.92v-1.84l3.05-2.99h-2.79v-2h5.94v1.83l-2.98 3.01h3.13v1.99zm7.54-9.48h2.69v2h-2.69Zm0 2.65h2.69v6.83h-2.69Zm7.54 7.07c-2.4 0-3.86-1.42-3.86-3.66s1.46-3.65 3.83-3.65c2.19 0 3.58 1.13 3.64 2.84h-2.66a.89.89 0 0 0-1-.95c-.78 0-1.12.56-1.12 1.76s.32 1.77 1.1 1.77a1 1 0 0 0 1-1h2.67c-.12 1.79-1.48 2.9-3.64 2.9m7.56-.13c-1.66 0-2.28-.48-2.28-2v-3.42H421v-1.57h.95v-2.11h2.66v2.11h1.25v1.57h-1.25v2.73c0 .49.25.63.89.63a3 3 0 0 0 .38 0v2c-.58 0-1.14.07-1.65.07m11.74-.13h-2.61l-.98-3.95-.97 3.95h-2.61l-2.21-6.83h2.64l.99 4.17 1.04-4.17h2.25l1.04 4.17.99-4.17h2.54zm7.24 0-.16-.66a3.4 3.4 0 0 1-2.44.9c-1.53 0-2.37-.79-2.37-2.17s.93-1.94 2.91-2.2c1.29-.17 1.85-.1 1.85-.73 0-.4-.32-.57-1-.57s-.85.22-.9.68h-2.6c0-1.53 1.24-2.32 3.59-2.32a5 5 0 0 1 2.61.58 1.93 1.93 0 0 1 .86 1.91v3.81a.68.68 0 0 0 .29.58v.19Zm-.24-3.05c-1.23.48-2 .39-2 1 0 .39.27.62.76.62.9 0 1.28-.41 1.28-1.31a2 2 0 0 0 0-.35M360.66 289l-2.55-4.27a6.6 6.6 0 0 1-.53-1.33 7 7 0 0 1 .08 1.26V289h-2.77v-9.25h2.77l2.55 4.3a6.3 6.3 0 0 1 .53 1.32 8.5 8.5 0 0 1-.08-1.26v-4.36h2.78V289Zm8.99 0-.17-.66a3.4 3.4 0 0 1-2.44.9c-1.53 0-2.37-.8-2.37-2.17 0-1.52.93-1.94 2.92-2.2 1.29-.17 1.84-.1 1.84-.73 0-.4-.31-.57-1-.57s-.85.22-.9.68H365c0-1.53 1.24-2.32 3.59-2.32a5.07 5.07 0 0 1 2.61.57 2 2 0 0 1 .86 1.92v3.8a.68.68 0 0 0 .3.58v.2Zm-.24-3.05c-1.24.48-2 .38-2 1 0 .39.27.62.76.62.9 0 1.28-.41 1.28-1.31v-.35m8.3-1.21c-1.08 0-1.57.48-1.57 1.53V289h-2.68v-6.83h2.5v1.25a1.94 1.94 0 0 1 2.08-1.43h.24v2.71h-.54m4.87 4.58a3.66 3.66 0 1 1 3.79-3.66 3.45 3.45 0 0 1-3.79 3.66m0-5.42c-.81 0-1.1.55-1.1 1.76s.29 1.77 1.1 1.77 1.11-.56 1.11-1.77-.3-1.76-1.11-1.76m9.58 5.14v-.84a2.66 2.66 0 0 1-2.2 1.08c-1.69 0-2.88-1.4-2.88-3.62S388.36 282 390 282a2.47 2.47 0 0 1 2 .94v-3.15h2.6V289Zm-1.32-4.93c-.74 0-1.08.52-1.08 1.58s.41 1.58 1.08 1.58 1.1-.56 1.1-1.58-.35-1.58-1.1-1.58m8.51 5.21a3.66 3.66 0 1 1 3.79-3.66 3.45 3.45 0 0 1-3.79 3.66m0-5.42c-.81 0-1.1.55-1.1 1.76s.29 1.77 1.1 1.77 1.11-.56 1.11-1.77-.3-1.76-1.11-1.76m13.33 5.18h-2.62l-.97-3.95-.97 3.95h-2.62l-2.21-6.83H406l1 4.17 1.04-4.17h2.25l1.03 4.17 1-4.17h2.54zm5.03-2.82c0 .88.47 1.36 1.24 1.36a.94.94 0 0 0 1-.56h2.56c-.37 1.48-1.63 2.26-3.71 2.26a3.43 3.43 0 0 1-3.75-3.6A3.51 3.51 0 0 1 419 282c2.37 0 3.81 1.51 3.81 4.08v.17Zm1.16-2.63c-.69 0-1.12.46-1.16 1.27h2.37c0-.85-.45-1.27-1.21-1.27m8.3 8.2c-1.92 0-3.06-.76-3.23-2h2.64c.06.33.3.46.78.46.89 0 1-.38 1-1.42v-.38a2.54 2.54 0 0 1-1.87.67c-1.81 0-3-1.36-3-3.46s1.17-3.61 2.87-3.61a2.5 2.5 0 0 1 2.2 1.07v-.89H431v6.3c0 2.38-1 3.28-3.75 3.28m.05-7.75c-.72 0-1.07.51-1.07 1.54s.34 1.62 1.07 1.62 1.13-.53 1.13-1.61-.43-1.61-1.14-1.61m8.42 5.28a3.66 3.66 0 1 1 3.79-3.66 3.44 3.44 0 0 1-3.79 3.66m0-5.42c-.81 0-1.1.55-1.1 1.76s.29 1.77 1.1 1.77 1.11-.56 1.11-1.77-.3-1.76-1.11-1.76"/><path d="M328.16 263.56a.15.15 0 0 0 0 .21l4.86 7.36a.17.17 0 0 0 .13.07h.09a.15.15 0 0 0 0-.21l-4.86-7.36a.16.16 0 0 0-.22 0m-29.05 2.83a.17.17 0 0 0-.19.12l-1.92 9.57a.15.15 0 0 0 .11.18.16.16 0 0 0 .15-.12l2-9.56a.17.17 0 0 0-.12-.19m-6.94-10.87a.16.16 0 0 0 .15-.14.16.16 0 0 0-.13-.17 21 21 0 0 0-5.95-.06.16.16 0 0 0 0 .31 20.3 20.3 0 0 1 5.88.06m32.54 10.99a.16.16 0 0 0-.18-.12.16.16 0 0 0-.12.19l1.95 9.56a.15.15 0 0 0 .15.12.16.16 0 0 0 .12-.18Z"/><path d="M339.05 263.07a.14.14 0 0 0 0-.06 8.07 8.07 0 0 0-3.91-3.57c3.36-.4 3.92-.8 3.86-2.5a.15.15 0 0 0-.15-.15.16.16 0 0 0-.15.11c-.4.49-2.05.41-3.41.31 1.44-.27 3-.76 3.66-1.77a.16.16 0 0 0 0-.21 7.6 7.6 0 0 0-3.28-1.33c2-1.42 1.87-2.49 1.78-3.14v-.22a.15.15 0 0 0-.14-.14.15.15 0 0 0-.16.12c-.08.41-1.39 1.08-2.68 1.42 1.08-.83 2.28-2 2.39-2.95a.17.17 0 0 0-.12-.17 7 7 0 0 0-3.18.15c1.14-1.38 1.29-3 .84-3.63a.15.15 0 0 0-.13-.07.13.13 0 0 0-.12.08 6.3 6.3 0 0 1-1.76 1.83 8.1 8.1 0 0 0 1.44-3.54.15.15 0 0 0-.14-.16c-1.22-.08-2.29.42-3.86 1.34a11 11 0 0 0 1.18-2c.13-.29.55-1.24.38-1.42a.2.2 0 0 0-.11 0h-.11a13.3 13.3 0 0 0-6.46 2.17 18.1 18.1 0 0 0-4.73 4c-3.25 4.25-2.35 6.47-1.82 7.22a2.37 2.37 0 0 0 2.4 1 1.53 1.53 0 0 1-.15 1.27c-.63 1-2.34 1.3-3.34 1.41a5.7 5.7 0 0 0-.42-2.36 1 1 0 0 0 .78-.89.2.2 0 0 0 0-.11 3.45 3.45 0 0 1-1.05-2.14v-.18a1 1 0 0 0 .61-.37.16.16 0 0 0 0-.21c-.63-.48-.41-1.95-.2-3.37.09-.6.18-1.23.21-1.8a3.26 3.26 0 0 0-.64-2.24 1.3 1.3 0 0 0 .76-1.29.12.12 0 0 0 0-.11.15.15 0 0 0-.11 0 10 10 0 0 1-1.23 0 1 1 0 0 0 .24-1.09.14.14 0 0 0-.18-.1 3 3 0 0 1-.58 0h-.39a28 28 0 0 1 2.19-4.75.16.16 0 0 0 0-.2.16.16 0 0 0-.2 0 2 2 0 0 1-1 .43 1.57 1.57 0 0 0-1 .52.6.6 0 0 0-.9 0 1 1 0 0 0-.12-.19.73.73 0 0 0-.61-.26c.06-.37-.24-.63-.49-.84a1.8 1.8 0 0 1-.53-.6.15.15 0 0 0-.28 0 1.13 1.13 0 0 1-.52.54c-.33.22-.69.47-.54 1.09h-.19a.6.6 0 0 0-.47.18l-.06.08a.6.6 0 0 0-.45-.23.65.65 0 0 0-.45.2 1.18 1.18 0 0 0-1.05-.56 1.4 1.4 0 0 1-.81-.28.16.16 0 0 0-.2 0 .17.17 0 0 0 0 .2 24.7 24.7 0 0 1 1.61 4.46 1.74 1.74 0 0 0-.95 1.42 2.06 2.06 0 0 0-1.55.71 2.29 2.29 0 0 0-.19 2 .16.16 0 0 0 .27.06 2 2 0 0 1 1.37-.53 1.32 1.32 0 0 1 .84.26l-.24.11c-1 .46-2 .93-2.72.16a.16.16 0 0 0-.16 0 .14.14 0 0 0-.1.12 1.39 1.39 0 0 0 1.12 1.53 3 3 0 0 0 .48.05 5.5 5.5 0 0 0 2.28-.71 1.5 1.5 0 0 0 .13.72.15.15 0 0 0 .13.07h.06a6 6 0 0 1 .78-.28 1.49 1.49 0 0 1 .95 1.71 2.88 2.88 0 0 1-2.33 2.4.12.12 0 0 0-.11.08.12.12 0 0 0 0 .14 2.07 2.07 0 0 0 .78.72 4.05 4.05 0 0 1-2.37 2 .12.12 0 0 0-.08.09c-.09.24.1.53.37.75a4.2 4.2 0 0 0-.93 2.9c-1-.11-2.74-.43-3.36-1.41a1.5 1.5 0 0 1-.16-1.27 2.37 2.37 0 0 0 2.4-1c.53-.75 1.43-3-1.81-7.22-2-2.57-7.13-6.24-11.31-6.18a.2.2 0 0 0-.11 0c-.17.18.25 1.13.38 1.42a10.5 10.5 0 0 0 1.19 2c-1.58-.92-2.65-1.42-3.87-1.34a.15.15 0 0 0-.14.16 8.1 8.1 0 0 0 1.44 3.54 6.3 6.3 0 0 1-1.75-1.83.16.16 0 0 0-.13-.08.15.15 0 0 0-.13.07c-.45.63-.3 2.24.84 3.63a7 7 0 0 0-3.18-.15.16.16 0 0 0-.11.17c.1 1 1.3 2.12 2.38 2.95-1.28-.34-2.6-1-2.68-1.42a.15.15 0 0 0-.16-.12.16.16 0 0 0-.14.14v.21c-.09.66-.25 1.73 1.78 3.15a7.7 7.7 0 0 0-3.27 1.33.15.15 0 0 0 0 .21c.7 1 2.21 1.5 3.65 1.77-1.35.1-3 .18-3.4-.3a.16.16 0 0 0-.15-.12.15.15 0 0 0-.16.13v.08c0 1.65.54 2.06 3.87 2.45a8 8 0 0 0-4 3.65.15.15 0 0 0 .07.21h.08a4.25 4.25 0 0 0 2.21.52 13 13 0 0 0 3.39-.55l-.81.44c-1.79 1-3.48 1.91-4.59 1.6a.15.15 0 0 0-.19.1.14.14 0 0 0 0 .11 2.63 2.63 0 0 0 1.51 1.59 2.7 2.7 0 0 0 .78.11 8.36 8.36 0 0 0 3.71-1.23 13.85 13.85 0 0 0-2.43 7.92.1.1 0 0 0 0 .05.16.16 0 0 0 .15.14c1.68-.15 3.77-2 5.6-4.23-.09.15-.18.3-.26.46-1.21 2.12-2.7 4.75-3.45 4.85a.16.16 0 0 0-.13.11.18.18 0 0 0 .05.17c1.26 1 3-.13 3.65-.81a20.4 20.4 0 0 0 1.86-2.4c-.09 1.57-.05 5.23.7 6.39a.15.15 0 0 0 .13.07.13.13 0 0 0 .08 0c1.19-.74 2.67-2.91 3.68-6.21a7.8 7.8 0 0 1-.6 2.68.15.15 0 0 0 0 .18.17.17 0 0 0 .13.07c1.7-.46 2.2-2.4 2.6-3.95.07-.24.12-.47.18-.68a2 2 0 0 0 .28.29.16.16 0 0 0 .13 0c.82-.19 2.51-2.37 2.81-5.25a4.2 4.2 0 0 0 1.58.32 4.1 4.1 0 0 0 1.45-.27h.13a10 10 0 0 0 .22 1.09c-2.18-.32-2.59.13-3.61 2.4-.74 1.67-1.62 2.75-2.46 3.05a.13.13 0 0 0-.1.1.17.17 0 0 0 0 .14.82.82 0 0 0 .44.24 3.15 3.15 0 0 1-1 1.18.16.16 0 0 0-.08.14.18.18 0 0 0 .08.13 1.3 1.3 0 0 0 .49.13 3.6 3.6 0 0 1-1.27.84.14.14 0 0 0-.11.09.14.14 0 0 0 0 .14 1 1 0 0 0 .39.3 4.7 4.7 0 0 1-1.32.9.16.16 0 0 0-.09.12.14.14 0 0 0 .06.14 3.36 3.36 0 0 0 1.69.41l-1.32 1.72a.13.13 0 0 0 0 .12.18.18 0 0 0 .07.1h.05l-1.3 1.24a.16.16 0 0 0 0 .16.17.17 0 0 0 .13.1l-1.19 1a.12.12 0 0 0-.05.07v.06a.16.16 0 0 0 .11.17l-.92.75a.93.93 0 0 1-.76.3l-2.29-.5a1.27 1.27 0 0 0-1.26-.81 1.58 1.58 0 0 0-1.61 1.07 1.63 1.63 0 0 0-.59 1.21 2 2 0 0 0 .64 1.64.16.16 0 0 0 .15 0 .13.13 0 0 0 .1-.1 1.82 1.82 0 0 1 .52-1 1.69 1.69 0 0 0 1.67-.3 3.1 3.1 0 0 0 1.2.4 8 8 0 0 1-1.27.71 1.39 1.39 0 0 0-1.58.46 1.7 1.7 0 0 0 .07 1.87 1.4 1.4 0 0 0 .39 1 1.8 1.8 0 0 0 1.36.54.13.13 0 0 0 .12-.08.16.16 0 0 0 0-.15 1 1 0 0 1 0-1.1 1.17 1.17 0 0 0 .64-1.13h.07a4.7 4.7 0 0 0 1.59-.65 4.4 4.4 0 0 0-.15.8 1.33 1.33 0 0 0-1.09.88 1.88 1.88 0 0 0 .12 1.42.83.83 0 0 0 .34.33 1.18 1.18 0 0 0 .69.89 1.79 1.79 0 0 0 1.62-.1.17.17 0 0 0 .07-.13.16.16 0 0 0-.06-.13c-.26-.19-.37-.36-.47-.92a1.38 1.38 0 0 0 .33-1.55 3.3 3.3 0 0 0 .72-1.39c.05-.16.1-.32.16-.48a1.54 1.54 0 0 0 .82.15 1.34 1.34 0 0 0 .73.89v.03a1.24 1.24 0 0 1-.37 1 .17.17 0 0 0-.05.15.18.18 0 0 0 .12.12 1.88 1.88 0 0 0 1.44-.41 1.43 1.43 0 0 0 .52-1.18 1.26 1.26 0 0 0 .4-1.37 1.2 1.2 0 0 0-1.38-.67c-.46 0-.69-.11-.77-.24a.28.28 0 0 1 0-.29c.09-.13.25-.32.55-.68l.13-.16a56 56 0 0 1 4.23-4.65 3.3 3.3 0 0 0 2 1.34.16.16 0 0 0 .18-.13.35.35 0 0 0-.08-.23 2.5 2.5 0 0 1-.36-1.09 1 1 0 0 0 .35.07.2.2 0 0 0 .13-.05.14.14 0 0 0 0-.12.6.6 0 0 0 0-.13c-.09-.75-.3-2.46 1.73-5a13.5 13.5 0 0 1-1.38 5.71.16.16 0 0 0 0 .16.14.14 0 0 0 .15.06 2.36 2.36 0 0 0 1.1-.42 3 3 0 0 1-1.35 2.11 1.1 1.1 0 0 1-1.09-.15.13.13 0 0 0-.13 0 .15.15 0 0 0-.1.09 1.77 1.77 0 0 0 .46 2 2 2 0 0 0 2 .29 2.79 2.79 0 0 1-3 1.65 1 1 0 0 1-.7-1.33.15.15 0 0 0 0-.13.2.2 0 0 0-.14-.05 1.91 1.91 0 0 0-1.8 1.67 2.31 2.31 0 0 0 1 2.14 2.59 2.59 0 0 0-1.66 2.75 2.81 2.81 0 0 0 2.59 2.53 5.44 5.44 0 0 0 4.32-2.35c0 3.37.82 4.34 1.53 5.2l.06.07a.17.17 0 0 0 .24 0l.09-.12c.73-.86 1.54-1.83 1.56-5.15a5.66 5.66 0 0 0 3.93 2.35 2.85 2.85 0 0 0 3-2.4 2.56 2.56 0 0 0-1.64-2.88 2.34 2.34 0 0 0 1-2.14 1.91 1.91 0 0 0-1.81-1.67.15.15 0 0 0-.13.05.12.12 0 0 0 0 .13 1 1 0 0 1-.71 1.33 2.8 2.8 0 0 1-3-1.65 2 2 0 0 0 2-.29 1.78 1.78 0 0 0 .46-2 .18.18 0 0 0-.1-.09.12.12 0 0 0-.13 0 1.13 1.13 0 0 1-1.11.15 3 3 0 0 1-1.38-2.11 2.4 2.4 0 0 0 1.1.42.17.17 0 0 0 .16-.06.15.15 0 0 0 0-.16 13.2 13.2 0 0 1-1.33-5.68c2 2.46 1.81 4.1 1.72 4.9v.17a.14.14 0 0 0 0 .12.15.15 0 0 0 .13 0 1.2 1.2 0 0 0 .35-.08 2.5 2.5 0 0 1-.36 1.09c-.06.1-.1.16-.09.23a.24.24 0 0 0 .06.11.2.2 0 0 0 .13 0 3.37 3.37 0 0 0 1.95-1.31 27.3 27.3 0 0 1 3.42 3.73l1.13 1.37c.11.15.15.26.12.35s-.32.27-.79.38a1.21 1.21 0 0 0-1.45.83 6 6 0 0 0 1.29 2.68 1.85 1.85 0 0 0 1.28.28.18.18 0 0 0 .12-.12.17.17 0 0 0-.05-.15 1.24 1.24 0 0 1-.37-1v.11a1.32 1.32 0 0 0 .72-.89 1.54 1.54 0 0 0 .82-.15c.06.16.11.32.16.48a3.3 3.3 0 0 0 .72 1.39 1.38 1.38 0 0 0 .33 1.55c-.1.55-.21.73-.47.92a.18.18 0 0 0-.06.13.18.18 0 0 0 .08.13 1.76 1.76 0 0 0 1.61.1 1.2 1.2 0 0 0 .7-.89.87.87 0 0 0 .33-.33 1.83 1.83 0 0 0 .12-1.42 1.33 1.33 0 0 0-1.09-.88 5 5 0 0 0-.17-.8 5.3 5.3 0 0 0 1.6.65h.08c.06.57.18.9.64 1.13a1 1 0 0 1 0 1.1.14.14 0 0 0 0 .15.14.14 0 0 0 .13.08 1.76 1.76 0 0 0 1.35-.54 1.4 1.4 0 0 0 .39-1 1.7 1.7 0 0 0 .08-1.87 1.4 1.4 0 0 0-1.59-.46 7 7 0 0 1-1.19-.71 2.8 2.8 0 0 0 1.12-.4 1.7 1.7 0 0 0 1.68.3 1.85 1.85 0 0 1 .51 1 .16.16 0 0 0 .11.1.14.14 0 0 0 .14 0 2 2 0 0 0 .64-1.64 1.63 1.63 0 0 0-.59-1.21 1.56 1.56 0 0 0-1.6-1.07 1.28 1.28 0 0 0-1.27.81l-2.28.5a.94.94 0 0 1-.77-.3l-.93-.76a.14.14 0 0 0 .08-.1.14.14 0 0 0-.06-.15l-1.19-1a.17.17 0 0 0 .13-.1.16.16 0 0 0 0-.16l-1.3-1.24h.05a.14.14 0 0 0 .07-.1.13.13 0 0 0 0-.12l-1.17-1.8a3.66 3.66 0 0 0 1.86-.4.18.18 0 0 0 .07-.15.16.16 0 0 0-.09-.12 4.6 4.6 0 0 1-1.32-.9 1 1 0 0 0 .39-.3.14.14 0 0 0 0-.14.13.13 0 0 0-.11-.09 3.8 3.8 0 0 1-1.27-.84 1.2 1.2 0 0 0 .49-.13.16.16 0 0 0 .08-.13.17.17 0 0 0-.07-.14 3.06 3.06 0 0 1-1-1.18.86.86 0 0 0 .44-.24.17.17 0 0 0 0-.14.14.14 0 0 0-.1-.1c-1.14-.41-2-2.09-2.47-3.05-1-2.27-1.42-2.73-3.61-2.4.1-.32.2-.67.29-1.07a4.1 4.1 0 0 0 1.45.27 4.3 4.3 0 0 0 1.59-.32c.29 2.88 2 5.06 2.8 5.25a.14.14 0 0 0 .13 0 1.2 1.2 0 0 0 .28-.29c.06.21.12.44.18.68.41 1.55.91 3.49 2.61 3.95a.17.17 0 0 0 .13-.07.17.17 0 0 0 0-.18 8 8 0 0 1-.6-2.68c1 3.3 2.5 5.47 3.69 6.21a.1.1 0 0 0 .08 0 .15.15 0 0 0 .13-.07c.74-1.15.78-4.82.69-6.39a20 20 0 0 0 1.87 2.4c.64.68 2.38 1.77 3.64.81a.18.18 0 0 0 .06-.17.16.16 0 0 0-.13-.11c-.75-.1-2.25-2.73-3.45-4.85l-.25-.44c1.83 2.2 3.91 4.06 5.59 4.21a.15.15 0 0 0 .15-.14 13.8 13.8 0 0 0-2.43-8 8.4 8.4 0 0 0 3.66 1.22 2.31 2.31 0 0 0 2.3-1.7.2.2 0 0 0 0-.13.16.16 0 0 0-.19-.11c-1.11.32-2.8-.61-4.59-1.59l-.92-.5a13.3 13.3 0 0 0 3.51.58 4.33 4.33 0 0 0 2.17-.49h.1a.15.15 0 0 0 .07-.21m-4.2-5.6c.67 0 1.38.1 2 .1a3.8 3.8 0 0 0 1.79-.3c0 1.2-.59 1.52-4.08 1.9L334 259a13 13 0 0 0-1.79-.59 2.6 2.6 0 0 0 .85-.86h.16l.64-.08 1 .06m-1-.37h-.06l-.61.07h-.15a7.1 7.1 0 0 0-3.51-2.07 5.4 5.4 0 0 0 1.79-1.09c1.46-.14 5-.27 7.23 1.32-.91 1.14-3.08 1.53-4.7 1.74m2.56-8c-.25 1.11-2.13 2.63-3.71 3.62a.14.14 0 0 0-.05.21.16.16 0 0 0 .21 0l.89-.59a7.4 7.4 0 0 0 3.35-1.37c.08.65 0 1.57-1.94 2.85a16 16 0 0 0-3.53-.1 3.75 3.75 0 0 0 .73-1.73.14.14 0 0 0-.09-.16 4.85 4.85 0 0 0-3.31-.24 15 15 0 0 1 4-2.21h.04l.23-.05a7 7 0 0 1 3.16-.25m-3-5.31a8.65 8.65 0 0 1-1.89 3.92h-.06c-.29.26-.43.41-.56.54a4.8 4.8 0 0 1-.75.67.16.16 0 0 0 0 .22.18.18 0 0 0 .13.06.12.12 0 0 0 .09 0 5.2 5.2 0 0 0 .78-.7c.11-.11.23-.24.45-.44a.1.1 0 0 0 .07 0l.24-.16a8.4 8.4 0 0 0 2.28-2.12 3.79 3.79 0 0 1-1.21 3.34 14.5 14.5 0 0 0-3.86 2.05 4.33 4.33 0 0 0 .79-2.93.17.17 0 0 0-.14-.13 4.37 4.37 0 0 0-3.55.75 5 5 0 0 0 .13-.62 11.6 11.6 0 0 1 2.69-2.62.15.15 0 0 0 .09 0c1.87-1.12 3-1.77 4.27-1.74m-16.46 15c1.05-.11 2.91-.46 3.61-1.55a1.81 1.81 0 0 0 .2-1.52 1.14 1.14 0 0 0 .8-.88.16.16 0 0 0 0-.12.2.2 0 0 0-.11-.07 1.37 1.37 0 0 1-1.21-.83 1.72 1.72 0 0 1 .22-1.65 1.24 1.24 0 0 1 1.19-.49.13.13 0 0 0 .13-.05.14.14 0 0 0 0-.14c-.23-.92 0-1.65.61-1.94a1.86 1.86 0 0 1 2.21.75.14.14 0 0 0 .18 0 1.87 1.87 0 0 1 2 .34 1.8 1.8 0 0 1 .32 2.05.16.16 0 0 0 .08.19 1.84 1.84 0 0 1 1.12 1.51 2.12 2.12 0 0 1-1 1.82.16.16 0 0 0-.05.21 2.4 2.4 0 0 1 .34 1.95 2 2 0 0 1-1 1.22.15.15 0 0 0-.08.11c-.31 1.73-.59 2.35-2.52 2.49a.18.18 0 0 0-.13.1c-.48 1.22-1.43 1.37-2.72 1.23a.13.13 0 0 0-.13.05 1.86 1.86 0 0 1-2.53.52.15.15 0 0 0-.19 0 3.59 3.59 0 0 1-3.05.53 6 6 0 0 0 .14-1 1 1 0 0 0 .22-.07.2.2 0 0 0 .08-.08 5 5 0 0 0 .25-.78l1.7-.35c2.41-.49 5.14-1 6.93-2.29 1.35-1 1.89-3.67 1.38-5.22a1.9 1.9 0 0 0 1.35-.56.16.16 0 0 0 0-.15 2.22 2.22 0 0 0-1.06-1.28l-.13-.08a3 3 0 0 0-.05-1.58.15.15 0 0 0-.15-.11 2.4 2.4 0 0 0-1.3.37 2.74 2.74 0 0 0-1.68-1.36.14.14 0 0 0-.14 0 3.4 3.4 0 0 0-.37 2.1 2.5 2.5 0 0 0-1.36.58.15.15 0 0 0 0 .17 2.47 2.47 0 0 0 1.18 1.29 3.35 3.35 0 0 0 0 2 .16.16 0 0 0 .15.1h.05a.1.1 0 0 0 .05 0 3.4 3.4 0 0 0 1.05-.34c.36 2.6-2.51 3.25-6.83 4.18a8 8 0 0 0 .16-.76.15.15 0 0 0 .15-.12 2 2 0 0 1 0-.23v-.25m-8.63 4.52a5.7 5.7 0 0 1-.46-1.74 1.8 1.8 0 0 0 .91-.32 2 2 0 0 0 1.22.55 2.07 2.07 0 0 0 1.76-.52 2.56 2.56 0 0 0 1.58.57 2.6 2.6 0 0 0 1.55-.53 1.8 1.8 0 0 0 .87.25 5.8 5.8 0 0 1-.39 1.77 3.34 3.34 0 0 1-1.74-.24.14.14 0 0 0-.14 0 2.68 2.68 0 0 1-3.38 0 .13.13 0 0 0-.13 0c-1.09.29-1.5.28-1.65.21m-10.44-11.86a2.2 2.2 0 0 1 1 .34 5 5 0 0 0-.24.71 2.8 2.8 0 0 0-.85.18 2.6 2.6 0 0 1 .05-1.23m1.33 3.33.45-1.25h1.1a3.53 3.53 0 0 1 .47 2.58 3.13 3.13 0 0 1-2-1.29m17.32 5.74c4.45-1 7.67-1.65 7.16-4.66a2.8 2.8 0 0 0 .78-.66c.18.86.4 2.91-1.28 4.06-1.14.78-3.2 1.21-5.38 1.67l-1.59.34c.11-.29.2-.53.27-.74m5.85-4.48a3.57 3.57 0 0 1 .49-2.58h1.08l.46 1.28a3.15 3.15 0 0 1-2 1.26m-6.32 5.56h.07l1.77-.38c2.2-.47 4.29-.9 5.49-1.71 1.93-1.33 1.56-3.74 1.37-4.53a7 7 0 0 1 .82 0c.5 1.41 0 4-1.25 4.92-1.73 1.21-4.43 1.76-6.81 2.23l-1.57.33c.05-.25.08-.52.11-.81m9.67-7h-.07a9 9 0 0 0-1 0l-.47-1.3.6-.6a2.4 2.4 0 0 1 .89.21h.07l.21.15a1.92 1.92 0 0 1 .91 1 2.13 2.13 0 0 1-1.21.39m.07-1.93a3 3 0 0 0-.85-.19 4.5 4.5 0 0 0-.24-.7 2 2 0 0 1 1-.34 2.6 2.6 0 0 1 .05 1.23m-1.4-.84a4.5 4.5 0 0 1 .25.69l-.67.67h-1.06a1.4 1.4 0 0 1-.21-.66v-.1a3.8 3.8 0 0 1 .22-1.94 2.65 2.65 0 0 1 1.48 1.37m-2 .76a1.8 1.8 0 0 0 .22.69 3.4 3.4 0 0 0-.37.74 2.1 2.1 0 0 1-.95-1 2.16 2.16 0 0 1 1.1-.43m-6.49 8.68a1.62 1.62 0 0 1-1-.25.14.14 0 0 0-.16 0 2.19 2.19 0 0 1-2.93-.07.16.16 0 0 0-.22 0 1.77 1.77 0 0 1-1.59.53 1.58 1.58 0 0 1-1.09-.54.15.15 0 0 0-.11-.08.15.15 0 0 0-.13 0 1.55 1.55 0 0 1-1.19.35l-.05-.2c-.08-.28-.14-.49-.19-.68a.3.3 0 0 0 0-.09 6.6 6.6 0 0 1-.15-1 3.6 3.6 0 0 0 1.43-1.14 3.4 3.4 0 0 0 1.42 1.53.14.14 0 0 0 .14 0 3.73 3.73 0 0 0 1.82-1.49 3.56 3.56 0 0 0 1.66 1.53h.11a2.76 2.76 0 0 0 1.46-1.4 3.9 3.9 0 0 0 1.32 1 8 8 0 0 1-.54 1.91m-8.76-.12v.08l-1.42-.31c-2.17-.45-4.22-.88-5.36-1.66a3.84 3.84 0 0 1-1.28-4.05 3.2 3.2 0 0 0 .78.67c-.49 3 2.68 3.68 7.08 4.63 0 .19.11.39.18.64m-5.8-7.13a3.4 3.4 0 0 0-.36-.71 1.8 1.8 0 0 0 .23-.72 2.13 2.13 0 0 1 1.08.43 2.14 2.14 0 0 1-.95 1m-.45-1.62a.3.3 0 0 0 0 .09v.05a1.4 1.4 0 0 1-.21.65h-1.07l-.68-.54a4.4 4.4 0 0 1 .29-.84s0 0 0-.06a2.67 2.67 0 0 1 1.43-1.27 3.7 3.7 0 0 1 .22 1.94m-3.09.64h.07a1.6 1.6 0 0 1 .75-.2l.73.59-.45 1.26a7 7 0 0 0-1 0 2.13 2.13 0 0 1-1.21-.39 1.92 1.92 0 0 1 .92-1.06l.21-.14m.22 1.9a7 7 0 0 1 .82 0c-.19.79-.57 3.19 1.37 4.53 1.19.8 3.27 1.24 5.47 1.7l1.78.39h.08a8 8 0 0 0 .13.82c-.5-.12-1-.22-1.59-.34-2.39-.47-5.08-1-6.82-2.23-1.25-.88-1.75-3.52-1.24-4.92m15.74-14.74a.3.3 0 0 1-.23.15h-.23a.67.67 0 0 1-.35-.41c0-.21.15-.46.39-.78l.06-.08a1.5 1.5 0 0 0 .24.48.77.77 0 0 1 .12.64m-3.61-1.93c.1-.1.33-.11.62 0a.16.16 0 0 0 .16 0 .12.12 0 0 0 0-.16c-.24-.6 0-.76.34-1a2 2 0 0 0 .5-.43 2.4 2.4 0 0 0 .46.45c.37.31.51.45.29.78a.14.14 0 0 0 0 .19.17.17 0 0 0 .2 0 .41.41 0 0 1 .56.08.39.39 0 0 1 .11.33 5 5 0 0 1-.31.42c-.27.37-.5.68-.45 1a.84.84 0 0 0 .19.36h-.52c-.19 0-.28-.07-.34-.32a1.5 1.5 0 0 1 .08-.36 2.15 2.15 0 0 0-.07-1.8.15.15 0 0 0-.16-.06.16.16 0 0 0-.17.06 2.13 2.13 0 0 0-.06 1.81 2 2 0 0 1 .07.33c-.06.25-.15.3-.34.32h-.58a.7.7 0 0 0 .11-.26 1.3 1.3 0 0 0-.41-.92 1.7 1.7 0 0 1-.33-.54v-.06a.07.07 0 0 0 0-.05.34.34 0 0 1 .06-.25m1.67-.08a1.93 1.93 0 0 1 0 1.14 1.78 1.78 0 0 1 0-1.14m-1.68 2.16c-.5-.25-.39-.47-.2-.87l.13-.31.16.21c.18.24.37.48.34.68a.45.45 0 0 1-.24.31h-.16m-2.26-2.5c.49.07.77.13.89.6a.14.14 0 0 0 .12.11.14.14 0 0 0 .15-.06c.13-.18.26-.28.38-.28s.27.14.37.37v.06a1.35 1.35 0 0 1-.18.64c-.15.31-.32.69 0 1a.73.73 0 0 1-.54-.29.15.15 0 0 0-.22 0 .15.15 0 0 0 0 .21 1.06 1.06 0 0 0 .92.41h1.6a.64.64 0 0 0 .46-.23.6.6 0 0 0 .45.23H314a.77.77 0 0 0 .74-.31l.08-.1a.15.15 0 0 0 0-.21.15.15 0 0 0-.22 0l-.09.1c-.1.13-.16.19-.45.2a1 1 0 0 0-.14-1c-.21-.32-.27-.56-.2-.74.09-.15.24-.33.39-.33s.32.19.39.3a.17.17 0 0 0 .16.06.15.15 0 0 0 .12-.11c.09-.34.4-.43.89-.55a5 5 0 0 0 .59-.18 25 25 0 0 0-2 4.4h-.21c-.43 0-1-.05-1.57-.11a28 28 0 0 0-2.79-.17h-.62a28 28 0 0 0-1.7-4.16 3 3 0 0 0 .49.09m-1.33 9.67a1.2 1.2 0 0 1-.91-.88c.85.61 1.89.12 2.82-.31l.44-.2a3 3 0 0 1 2.11-.06.42.42 0 0 1 .25.49s0 .08-.14.05c-.63-.3-1.28-.47-1.78.17h-.06l-.15.08a4.34 4.34 0 0 1-2.61.66m3-.5c.32-.46.7-.49 1.46-.14a.39.39 0 0 0 .54-.23.74.74 0 0 0-.44-.88 3.32 3.32 0 0 0-2.26 0 1.52 1.52 0 0 0-1.15-.44 2.56 2.56 0 0 0-1.4.45 1.84 1.84 0 0 1 .19-1.53 1.87 1.87 0 0 1 1.42-.6 2.1 2.1 0 0 1 1.89 1.55.15.15 0 0 0 .16.1 2.81 2.81 0 0 1 2.6 1.12 1.09 1.09 0 0 1 0 1c-.05.07-.15.16-.4.07a.13.13 0 0 0-.15 0 2.77 2.77 0 0 0-2.48.07 1.3 1.3 0 0 1 0-.58m-2.07 8a4.3 4.3 0 0 0 2.44-2.14h.18c1.16 0 2-.92 2.33-2.52a.16.16 0 0 0-.12-.18.15.15 0 0 0-.18.12c-.11.57-.59 2.41-2.2 2.27a3 3 0 0 1-.67-.49 3.26 3.26 0 0 0 2.34-2.62 1.79 1.79 0 0 0-.78-1.85 3.4 3.4 0 0 1 1.22.27 1.34 1.34 0 0 1 .24 1.06v.24a.16.16 0 0 0 .15.16.15.15 0 0 0 .15-.15 2 2 0 0 1 0-.23 1.84 1.84 0 0 0-.14-1 .55.55 0 0 0 .42-.22 1.39 1.39 0 0 0 0-1.41 3 3 0 0 0-2.76-1.26 2.38 2.38 0 0 0-2-1.64 1.36 1.36 0 0 1 .8-1.16h.77a27 27 0 0 1 2.76.17c.62.06 1.15.11 1.6.11h1.55a.71.71 0 0 1-.5.82 2.8 2.8 0 0 1-.77-.13.15.15 0 0 0-.18.11.16.16 0 0 0 .11.19 3.8 3.8 0 0 0 .83.14h.09a14 14 0 0 0 1.5.08 1 1 0 0 1-.63.88c-.16.07-.39 0-.84-.07a.17.17 0 0 0-.19.12.15.15 0 0 0 .12.18 3.3 3.3 0 0 0 .71.11h.1a2.93 2.93 0 0 1 .64 2.13c0 .56-.12 1.18-.21 1.78-.22 1.48-.43 2.89.2 3.54a.65.65 0 0 1-.43.16c-1.09-.34-1-1.22-.78-2.72a6.24 6.24 0 0 0-.3-4 .16.16 0 0 0-.28.14 5.93 5.93 0 0 1 .27 3.79c-.21 1.4-.39 2.61 1 3.05v.23a3.7 3.7 0 0 0 1.08 2.25c0 .31-.36.48-.64.58a.94.94 0 0 1-.74-.2 1.85 1.85 0 0 1-.52-1 6 6 0 0 1-.11-1.1.15.15 0 0 0-.16-.15.15.15 0 0 0-.15.15 6.6 6.6 0 0 0 .12 1.18 2.87 2.87 0 0 1-.67 2.29 1.74 1.74 0 0 1-1.28-1.18 8 8 0 0 0 .57-1.81 7 7 0 0 1 .23-.9.16.16 0 0 0-.09-.2.17.17 0 0 0-.2.1c-.09.26-.16.59-.24.94a7.7 7.7 0 0 1-.55 1.74c0 .05-.05.09-.07.13a2.21 2.21 0 0 1-2.35 1c0-1.21.44-2 1.76-3.29 1.59-1.86 3.06-4.19 2-7.46a.16.16 0 0 0-.2-.09.15.15 0 0 0-.1.19c1 3.11-.4 5.36-1.93 7.15a9 9 0 0 0-1.29 1.54 2.63 2.63 0 0 1-2.47.47.85.85 0 0 1-.34-.42m.36.75a2.5 2.5 0 0 0 .77.11 3.2 3.2 0 0 0 1.42-.34 4 4 0 0 0-.25 1.51.15.15 0 0 0 .12.15 2.55 2.55 0 0 0 2.74-1 2.07 2.07 0 0 0 1.48 1.15.17.17 0 0 0 .12-.06 3.17 3.17 0 0 0 .8-1.73 1.5 1.5 0 0 0 .32.38 1.14 1.14 0 0 0 .79.28 5.6 5.6 0 0 1 .4 2.84.2.2 0 0 0 0 .08 3.5 3.5 0 0 1-1.35-1.11.17.17 0 0 0-.13-.09.16.16 0 0 0-.14.08c-.44.72-.73 1.2-1.37 1.44a3.48 3.48 0 0 1-1.58-1.61.14.14 0 0 0-.13-.09.15.15 0 0 0-.14.08 3.3 3.3 0 0 1-1.73 1.56 3 3 0 0 1-1.34-1.6.16.16 0 0 0-.13-.09.15.15 0 0 0-.14.06A3.47 3.47 0 0 1 307 259h-.05c0-1.7.27-2.58.92-3.23m-1.22 3.06v.42a.17.17 0 0 0 .06.12.16.16 0 0 0 .09 0 7 7 0 0 0 .11.81c-4.25-.92-7.07-1.58-6.72-4.14a3.5 3.5 0 0 0 1.1.36h.07a.15.15 0 0 0 .15-.14 3.34 3.34 0 0 0-.06-1.9 2.45 2.45 0 0 0 1.19-1.29.17.17 0 0 0 0-.17 2.47 2.47 0 0 0-1.36-.58 3.47 3.47 0 0 0-.37-2.1.15.15 0 0 0-.14 0 2.8 2.8 0 0 0-1.7 1.37 2.36 2.36 0 0 0-1.27-.36.17.17 0 0 0-.14.12 3 3 0 0 0-.06 1.57l-.12.09a2.2 2.2 0 0 0-1.07 1.28.16.16 0 0 0 0 .15 1.94 1.94 0 0 0 1.33.56c-.5 1.55 0 4.24 1.39 5.19 1.78 1.25 4.51 1.8 6.92 2.28l1.7.36a7 7 0 0 0 .29.77.14.14 0 0 0 .14.09h.21a9 9 0 0 0 .16 1 3.62 3.62 0 0 1-3.19-.48.15.15 0 0 0-.19 0 1.85 1.85 0 0 1-2.52-.52.13.13 0 0 0-.13-.05c-1.29.14-2.24 0-2.73-1.23a.15.15 0 0 0-.13-.1c-1.92-.14-2.2-.76-2.51-2.49a.14.14 0 0 0-.09-.11 2 2 0 0 1-1-1.22 2.47 2.47 0 0 1 .34-1.95.15.15 0 0 0 0-.21 2.08 2.08 0 0 1-1-1.83 1.84 1.84 0 0 1 1.12-1.5.17.17 0 0 0 .08-.19 1.8 1.8 0 0 1 .32-2.05 1.86 1.86 0 0 1 2-.34.15.15 0 0 0 .19 0 1.84 1.84 0 0 1 2.2-.75c.62.29.85 1 .61 1.94a.15.15 0 0 0 0 .14.13.13 0 0 0 .13.05 1.23 1.23 0 0 1 1.18.49 1.72 1.72 0 0 1 .23 1.65 1.38 1.38 0 0 1-1.21.83.14.14 0 0 0-.11.07.13.13 0 0 0 0 .12 1.14 1.14 0 0 0 .8.88 1.81 1.81 0 0 0 .19 1.52c.7 1.09 2.56 1.44 3.61 1.55m-17.21-13.07a8.3 8.3 0 0 0 2.3 2.13l.22.15h.06c.24.22.36.35.48.47a5.2 5.2 0 0 0 .78.7.2.2 0 0 0 .1 0 .2.2 0 0 0 .12-.06.16.16 0 0 0 0-.22 5.3 5.3 0 0 1-.75-.67c-.13-.13-.27-.28-.56-.55h-.05a8.6 8.6 0 0 1-1.92-4c1.25 0 2.4.62 4.28 1.74a.08.08 0 0 0 .06 0 11.7 11.7 0 0 1 2.73 2.65q0 .3.12.6a4.36 4.36 0 0 0-3.55-.75.16.16 0 0 0-.13.13 4.26 4.26 0 0 0 .81 3 14.5 14.5 0 0 0-3.86-2 3.86 3.86 0 0 1-1.24-3.37m-3.02 5.21a7.45 7.45 0 0 0 3.31 1.39l.89.59a.17.17 0 0 0 .22 0 .16.16 0 0 0-.05-.21c-1.59-1-3.46-2.51-3.72-3.62a7 7 0 0 1 3.16.25l.23.05a14.5 14.5 0 0 1 4.05 2.2 5 5 0 0 0-3.28.25.16.16 0 0 0-.09.16 3.66 3.66 0 0 0 .74 1.73 16.2 16.2 0 0 0-3.54.1c-1.95-1.28-2-2.2-1.94-2.85m-1.46 4.4c2.19-1.59 5.77-1.46 7.22-1.32a5.4 5.4 0 0 0 1.8 1.09 7 7 0 0 0-3.51 2.07h-.16l-.62-.08h-.05c-1.62-.21-3.78-.6-4.69-1.74m-.09 1.92a4 4 0 0 0 1.78.29c.64 0 1.34-.05 2-.1l1-.06.65.08h.15a2.7 2.7 0 0 0 .85.86 14 14 0 0 0-1.8.59l-.55.21c-3.48-.38-4-.7-4.07-1.89m0 5.77a8.16 8.16 0 0 1 4.21-3.58l.55-.2a11 11 0 0 1 2.11-.65 4.83 4.83 0 0 0 2.65.41 6.13 6.13 0 0 0-2.13 3.28l-.24.1c-3.52 1.21-5.86 1.42-7.17.66m3.66 10.75c-.06-3.45 1.46-6.92 4.63-10.61a.15.15 0 1 0-.23-.2 29 29 0 0 0-1.92 2.49c-2.15 1.21-3.68 1.65-4.66 1.33a2.15 2.15 0 0 1-1.22-1.18h.26c1.17 0 2.68-.82 4.26-1.69.84-.46 1.71-.93 2.53-1.29l.21-.07h.13a5.85 5.85 0 0 0 3.85-.15 8 8 0 0 0-.74 4.15.16.16 0 0 0 .13.14h.14c-1.67 2.54-4.94 6.61-7.36 7m5.09.67c-.54.57-1.91 1.46-3 .93.81-.48 1.88-2.3 3.35-4.89.63-1.1 1.22-2.15 1.72-2.89.18-.26.36-.52.52-.78a3 3 0 0 0 .39-.05c-.4 1.6-.65 3.4-.86 4.87a20.5 20.5 0 0 1-2.16 2.84m3 3.9c-.7-1.38-.68-5.63-.53-6.6.22-1.53.49-3.42.9-5.06a5.76 5.76 0 0 0 2.62-1.69 5.25 5.25 0 0 0 1 3.74c.08.14.16.26.22.38-.81 4.95-2.71 8.22-4.19 9.26m3.55-3.36a14.6 14.6 0 0 0 .5-2.68c.12-.87.27-1.94.48-3.15a3.7 3.7 0 0 0 .84-.45 13 13 0 0 0 .48 1.71c-.09.29-.17.62-.26 1-.36 1.36-.79 3-2 3.61m2.93-4.21a1.6 1.6 0 0 1-.31-.41 12 12 0 0 1-.5-1.8 5.66 5.66 0 0 0 1.84-3.29.15.15 0 1 0-.3-.06 5.44 5.44 0 0 1-1.76 3.14.11.11 0 0 0-.07.06 4.2 4.2 0 0 1-.93.52l-.19-.33a4.43 4.43 0 0 1-.62-4.44.16.16 0 0 0-.07-.2.16.16 0 0 0-.21.06 4.85 4.85 0 0 1-4 2.51c-.11-1.59.3-3.63 1.19-4.49l.1-.1a.15.15 0 0 0 0-.21.15.15 0 0 0-.21 0l-.11.09c-1.35 1.17-3.21.81-4.26.58a.1.1 0 0 0-.05-.06 5.7 5.7 0 0 1 2.84-3.54.16.16 0 0 0 .08-.2.16.16 0 0 0-.2-.09 4.37 4.37 0 0 1-3.44-.14h-.06a2.43 2.43 0 0 1-1-.91 6.05 6.05 0 0 1 4-2 .14.14 0 0 0 .16-.12.15.15 0 0 0-.1-.17c-1.5-.49-2.93-1.2-3.29-3a4.58 4.58 0 0 1 4.05.27.16.16 0 0 0 .2 0 .17.17 0 0 0 0-.21 4.62 4.62 0 0 1-1.77-3.73 3.78 3.78 0 0 1 3.65 1.14.16.16 0 0 0 .2 0 .15.15 0 0 0 .05-.19 4.8 4.8 0 0 1-.2-3.16c2.75.19 4.25 3 4.44 3.76a.15.15 0 0 0 .18.11.15.15 0 0 0 .12-.18c-.2-.85-1.85-3.88-4.85-4a.16.16 0 0 0-.16.12 7.6 7.6 0 0 0-.2 1.72 11.2 11.2 0 0 0-2.61-2.44 9.3 9.3 0 0 1-2-3.53c4.19 0 9.22 3.89 10.89 6.07 3.12 4.09 2.31 6.16 1.81 6.86a2.07 2.07 0 0 1-2.21.86c-.36-.14-.54-.24-.65-.53a1.66 1.66 0 0 0 1.28-1 2 2 0 0 0-.26-2 1.51 1.51 0 0 0-1.25-.62 1.77 1.77 0 0 0-.82-2.09 2.13 2.13 0 0 0-2.51.76 2.16 2.16 0 0 0-2.19.44 2.08 2.08 0 0 0-.45 2.25 2.11 2.11 0 0 0-1.17 1.69 2.37 2.37 0 0 0 1.06 2 2.68 2.68 0 0 0-.3 2.08 2.28 2.28 0 0 0 1.09 1.37c.31 1.7.69 2.49 2.68 2.66.59 1.37 1.75 1.46 2.93 1.34a2.31 2.31 0 0 0 1.82.87 4.05 4.05 0 0 0 1.3 1c-.26 2.89-1.88 4.8-2.5 5.06m1.56-6.11a2 2 0 0 0 .59-.23 3.87 3.87 0 0 0 2.24.66 3.5 3.5 0 0 0 1.16-.18c0 .24.11.48.17.69a3.93 3.93 0 0 1-4.16-.94m4.07-1a7 7 0 0 0 1.24-.24 3.17 3.17 0 0 0 1.83.62 3 3 0 0 0 1.8-.62 5.6 5.6 0 0 0 1.4.28 7 7 0 0 1-.41 1.9h-.17l-.26-.07a.24.24 0 0 0-.12 0 2.09 2.09 0 0 1-2.13-.18.15.15 0 0 0-.2 0 2 2 0 0 1-2.06.17.3.3 0 0 0-.13 0l-.22.06h-.17a13 13 0 0 1-.4-1.92m.65 2.17h.14a5.37 5.37 0 0 1 3.66.23 2 2 0 0 0 1-.23h.16a14 14 0 0 1-.52 1.75l-.48-.23a.16.16 0 0 0-.15 0 2.63 2.63 0 0 1-2.78 0 .14.14 0 0 0-.14 0l-.5.23a13 13 0 0 1-.41-1.76m3.71 5.36a10.1 10.1 0 0 1-1.3 4.84 12 12 0 0 1-1.37-4.83 11.2 11.2 0 0 0-.53-3.3l.48-.22a2.92 2.92 0 0 0 3 0l.43.22a8.2 8.2 0 0 0-.62 3.29m-11.74 11.9-.14.16a8 8 0 0 0-.56.72.55.55 0 0 0 0 .61 1.09 1.09 0 0 0 1.05.39c.54-.07.93.1 1.06.47a.94.94 0 0 1-.29 1 .15.15 0 0 0-.12.1.17.17 0 0 0 0 .14 1.18 1.18 0 0 1-.42.95 1.67 1.67 0 0 1-.88.35 1.8 1.8 0 0 0 .25-.9h.15a1.2 1.2 0 0 0 .6-.15.15.15 0 0 0-.15-.27.87.87 0 0 1-.69.07h-.05a1.11 1.11 0 0 1-.63-.84.15.15 0 0 0-.18-.11 1 1 0 0 1-.84-.17.13.13 0 0 0-.14-.06.14.14 0 0 0-.12.09 5 5 0 0 0-.25.7 2.9 2.9 0 0 1-.71 1.33.15.15 0 0 0 0 .15c.2.66.11 1.09-.26 1.36a.15.15 0 0 0-.06.15 1.7 1.7 0 0 0 .41 1.05 1.43 1.43 0 0 1-1.13 0 .9.9 0 0 1-.48-.5 1.7 1.7 0 0 0 .53-.05.15.15 0 0 0 .11-.18.16.16 0 0 0-.18-.12c-.57.14-.77-.08-.88-.25a1.6 1.6 0 0 1-.08-1.18 1 1 0 0 1 .94-.67.16.16 0 0 0 .15-.15 5.7 5.7 0 0 1 .26-1.3 6.7 6.7 0 0 1 .5-1.26.16.16 0 0 0-.06-.21.16.16 0 0 0-.21.06 7 7 0 0 0-.51 1.3 4 4 0 0 1-1.81.86h-.17a.15.15 0 0 0-.11.14c-.05.57-.14.81-.51 1a1.22 1.22 0 0 0-.17 1.24 1.45 1.45 0 0 1-.89-.43 1.1 1.1 0 0 1-.29-.6 1.3 1.3 0 0 0 .42 0 .16.16 0 1 0 0-.31.6.6 0 0 1-.46-.1c-.32-.27-.25-1.12 0-1.47a1.07 1.07 0 0 1 1.26-.32.15.15 0 0 0 .13 0 8.5 8.5 0 0 0 1.76-1.05 4 4 0 0 0 1-.85l-.11-.11-.12-.1a4 4 0 0 1-.9.79 2.5 2.5 0 0 1-1.54-.41.15.15 0 0 0-.19 0 1.42 1.42 0 0 1-1.52.27.16.16 0 0 0-.15 0 1.83 1.83 0 0 0-.58.9 1.77 1.77 0 0 1-.37-1.21 1.5 1.5 0 0 1 .28-.8 1.3 1.3 0 0 0 .29.62.17.17 0 0 0 .22 0 .16.16 0 0 0 0-.22.87.87 0 0 1-.21-.65.17.17 0 0 0 0-.1 1.28 1.28 0 0 1 1.3-.85 1 1 0 0 1 1 .67.16.16 0 0 0 .12.12l2.38.52a1.24 1.24 0 0 0 1-.36l1.12-.92a3.5 3.5 0 0 0 .61.07H300a.14.14 0 0 0 .15-.15.15.15 0 0 0-.15-.35 3.6 3.6 0 0 1-.63-.06l1.19-1h.77a.16.16 0 0 0 0-.31 5 5 0 0 1-.68 0h-.15l1.13-1.07h.33a3.4 3.4 0 0 0 .55 0 .15.15 0 0 0 .13-.17.16.16 0 0 0-.17-.13 5 5 0 0 1-.78 0h-.07l1.36-1.77a7 7 0 0 0 .75-.08 3.1 3.1 0 0 0 .19 1.36.15.15 0 0 1 .21 0 .15.15 0 0 1 0 .21l-.13.02a2.76 2.76 0 0 0 1.51-.73l.08.17a57 57 0 0 0-4.27 4.69m4.05-5.16a2.4 2.4 0 0 1-1.31.71 2.63 2.63 0 0 1-.17-1.35 4.2 4.2 0 0 0 1.24-.52 2.9 2.9 0 0 0 .24 1.16m11.79 7.22a1.27 1.27 0 0 0 .95-1.46 1.52 1.52 0 0 1 1.34 1.36 2 2 0 0 1-1.11 2 .15.15 0 0 0-.09.15.14.14 0 0 0 .1.14 2.31 2.31 0 0 1 1.77 2.66 2.56 2.56 0 0 1-2.65 2.15 5.52 5.52 0 0 1-4-2.62.14.14 0 0 0-.17-.07.15.15 0 0 0-.11.15c.06 3.57-.74 4.56-1.46 5.42-.7-.84-1.46-1.85-1.4-5.42a.16.16 0 0 0-.29-.08 5.21 5.21 0 0 1-4.32 2.61 2.5 2.5 0 0 1-2.31-2.25 2.33 2.33 0 0 1 1.78-2.55.15.15 0 0 0 .11-.14.18.18 0 0 0-.1-.15 2 2 0 0 1-1.11-2 1.55 1.55 0 0 1 1.34-1.36 1.28 1.28 0 0 0 1 1.46 3.16 3.16 0 0 0 3.45-2.11 2 2 0 0 0 .22-.18 4.7 4.7 0 0 0 .76-.9 6.6 6.6 0 0 0 .73 1.69l.06 3.7a.16.16 0 0 0 .16.15.15.15 0 0 0 .15-.15l-.07-3.76a7 7 0 0 0 .68-1.65 3.85 3.85 0 0 0 1.13 1.07 3.17 3.17 0 0 0 3.47 2.14m1.29-8.38a4.2 4.2 0 0 0 1.5.58 2.7 2.7 0 0 1 0 1.41 3.8 3.8 0 0 1-1.74-.74 3.2 3.2 0 0 0 .28-1.24m3.45 2.47h-.1a5 5 0 0 1-.65 0 .16.16 0 0 0 0 .31h.79l1.14 1.09h-.87a.15.15 0 0 0-.17.13.16.16 0 0 0 .14.17h.77l1.18 1c-.19 0-.37.06-.54.07a.14.14 0 0 0-.14.15.15.15 0 0 0 .15.15 3.4 3.4 0 0 0 .53-.06l1.12.92a1.25 1.25 0 0 0 1 .36l2.38-.52a.15.15 0 0 0 .12-.12 1 1 0 0 1 1-.67 1.28 1.28 0 0 1 1.25.81.22.22 0 0 0 0 .14.84.84 0 0 1-.22.65.16.16 0 0 0 0 .22.14.14 0 0 0 .1 0 .15.15 0 0 0 .11 0 1.2 1.2 0 0 0 .3-.65 1.4 1.4 0 0 1 .31.83 1.72 1.72 0 0 1-.37 1.21 1.73 1.73 0 0 0-.58-.9.12.12 0 0 0-.14 0 1.43 1.43 0 0 1-1.53-.27h-.05a.15.15 0 0 0-.19 0 2.26 2.26 0 0 1-1.44.41 4.3 4.3 0 0 1-.92-.78.14.14 0 0 0-.21 0 .15.15 0 0 0 0 .22 4.3 4.3 0 0 0 1 .84 7.8 7.8 0 0 0 1.68 1.05.13.13 0 0 0 .12 0 1.09 1.09 0 0 1 1.27.32c.23.35.29 1.2 0 1.47a.6.6 0 0 1-.46.1.16.16 0 0 0-.17.14.16.16 0 0 0 .14.17 1.1 1.1 0 0 0 .42 0 1.1 1.1 0 0 1-.29.61 1.42 1.42 0 0 1-.88.43 1.24 1.24 0 0 0-.18-1.24c-.37-.19-.46-.43-.51-1a.15.15 0 0 0-.11-.14l-.18-.05a4.06 4.06 0 0 1-1.84-.86 8 8 0 0 0-.57-1.37.15.15 0 1 0-.26.15 9 9 0 0 1 .54 1.31.1.1 0 0 0 0 .07 6 6 0 0 1 .3 1.3.15.15 0 0 0 .15.14 1 1 0 0 1 .93.67 1.55 1.55 0 0 1-.08 1.18c-.1.17-.31.39-.88.25a.16.16 0 0 0-.18.12.15.15 0 0 0 .11.18 1.7 1.7 0 0 0 .53.05.9.9 0 0 1-.48.5 1.43 1.43 0 0 1-1.13 0 1.74 1.74 0 0 0 .42-1.05.17.17 0 0 0-.06-.15c-.38-.27-.46-.7-.27-1.36a.13.13 0 0 0 0-.15 2.9 2.9 0 0 1-.71-1.33 5 5 0 0 0-.25-.7.13.13 0 0 0-.12-.09.13.13 0 0 0-.14.06 1 1 0 0 1-.84.17.15.15 0 0 0-.18.11 1.1 1.1 0 0 1-.56.8.2.2 0 0 0-.1 0 .86.86 0 0 1-.69-.06.15.15 0 1 0-.16.26 1.2 1.2 0 0 0 .6.15h.15a1.7 1.7 0 0 0 .24.93 1.54 1.54 0 0 1-.75-.25 1.26 1.26 0 0 1-.57-.87.15.15 0 0 0-.08-.11 1.23 1.23 0 0 1-.52-1.35c.13-.46.54-.68 1.15-.62h.05c.64-.14.95-.32 1-.58a.67.67 0 0 0-.17-.64c-.38-.44-.76-.92-1.14-1.38a26.7 26.7 0 0 0-3.47-3.78.5.5 0 0 0 .07-.13 4.2 4.2 0 0 0 1.46.7c.71.75 1.57 1.79 2.4 2.81l1.23 1.48a2.3 2.3 0 0 1 .45 1 .14.14 0 0 0 .14.11.15.15 0 0 0 .11-.19 2.4 2.4 0 0 0-.51-1.08c-.4-.47-.82-1-1.22-1.48-.73-.89-1.49-1.8-2.14-2.52h.05a.15.15 0 0 0 .15-.12 3.4 3.4 0 0 0 .09-1.56h.29l1.39 1.62Zm-4.25-9.72a6.6 6.6 0 0 0 2.37 3.09.7.7 0 0 1-.21 0 2.3 2.3 0 0 1-2.15-1.52.15.15 0 0 0-.09-.1l-.37-.14c-1.25-.46-1.63-.6-2.17-1.48a.16.16 0 0 0-.21-.05.14.14 0 0 0-.05.21c.6 1 1.07 1.14 2.33 1.61l.29.11a2.59 2.59 0 0 0 2.34 1.66 3.8 3.8 0 0 0 .9 1.24h-.19a4 4 0 0 1-2.83-1.54.14.14 0 0 0-.08-.05 4.6 4.6 0 0 1-2.51-1.2.16.16 0 1 0-.21.23 4.86 4.86 0 0 0 2.61 1.26 4.4 4.4 0 0 0 2.75 1.6 3.5 3.5 0 0 0 1.32 1l-.19.09a3.76 3.76 0 0 1-3.73-1.58.17.17 0 0 0-.13-.07 4.2 4.2 0 0 1-2.26-1 .15.15 0 1 0-.18.24 4.45 4.45 0 0 0 2.34 1 4 4 0 0 0 3.39 1.7 3 3 0 0 0 .44 0 5.3 5.3 0 0 0 1.26.95 4.64 4.64 0 0 1-4-.56.16.16 0 0 0-.22 0 .3.3 0 0 0 0 .12 3 3 0 0 1-.44 1.77v.05a3.3 3.3 0 0 1-1.51 1.21 2.85 2.85 0 0 0 .3-1.31 3.3 3.3 0 0 0 .95-2.92.15.15 0 0 0-.3 0 3.06 3.06 0 0 1-.88 2.69.6.6 0 0 1-.3.19c.1-.9.27-2.72-2.06-5.42a.16.16 0 0 0-.09-.07.16.16 0 0 0-.17.06.18.18 0 0 0 0 .12 13.8 13.8 0 0 0 1.24 5.93 2.07 2.07 0 0 1-1-.54.15.15 0 0 0-.17 0 .15.15 0 0 0-.07.16 3.54 3.54 0 0 0 1.64 2.73 1.38 1.38 0 0 0 1.22-.07 1.41 1.41 0 0 1-.42 1.5 1.76 1.76 0 0 1-2 .15 3.2 3.2 0 0 1-1.2-1.17.2.2 0 0 0-.08-.07c.07-.33.14-.69.2-1.06a2.41 2.41 0 0 0 2.32 1.57.16.16 0 0 0 0-.31 2.24 2.24 0 0 1-2.24-1.81.05.05 0 0 0 0-.05 22 22 0 0 0 .12-2.66.15.15 0 1 0-.3 0 12.9 12.9 0 0 1-1 6c-1.05-1.89-1.08-4.8-1.05-6a.14.14 0 0 0-.14-.16.16.16 0 0 0-.16.15 20 20 0 0 0 .09 2.61c-.5 1.32-1.1 1.82-2.29 1.89a.15.15 0 0 0-.14.16.15.15 0 0 0 .15.15 2.52 2.52 0 0 0 2.35-1.6c.06.39.14.8.24 1.19a.16.16 0 0 0-.14.08 4.4 4.4 0 0 1-.74.89l-.15.13a1.79 1.79 0 0 1-2.05-.1 1.43 1.43 0 0 1-.43-1.5 1.4 1.4 0 0 0 1.21.08 3.5 3.5 0 0 0 1.61-2.74.14.14 0 0 0-.07-.16.15.15 0 0 0-.17 0 2.07 2.07 0 0 1-1 .54 14 14 0 0 0 1.28-6 .15.15 0 0 0-.27-.1c-2.35 2.7-2.18 4.6-2.08 5.45a.55.55 0 0 1-.3-.18 3 3 0 0 1-.89-2.69.15.15 0 0 0-.13-.17.16.16 0 0 0-.17.13 3.3 3.3 0 0 0 .95 2.92 3 3 0 0 0 .31 1.31 3.3 3.3 0 0 1-1.52-1.21v-.05a3.05 3.05 0 0 1-.44-1.78.14.14 0 0 0 0-.12.16.16 0 0 0-.22 0 4.18 4.18 0 0 1-2.44.78 4.4 4.4 0 0 1-1.54-.22 5.1 5.1 0 0 0 1.29-1 3 3 0 0 0 .4 0 3.91 3.91 0 0 0 3.34-1.68 4.57 4.57 0 0 0 2.35-1 .16.16 0 0 0 0-.22.15.15 0 0 0-.22 0 4.26 4.26 0 0 1-2.26 1 .15.15 0 0 0-.12.07 3.7 3.7 0 0 1-3.79 1.55 3.5 3.5 0 0 0 1.34-1.08 4.52 4.52 0 0 0 2.59-1.57 4.9 4.9 0 0 0 2.61-1.26.16.16 0 0 0-.21-.23 4.6 4.6 0 0 1-2.51 1.2.13.13 0 0 0-.09.05 3.82 3.82 0 0 1-2.8 1.52h-.6a3.9 3.9 0 0 0 .9-1.25 2.47 2.47 0 0 0 2.2-1.65l.29-.11c1.26-.47 1.73-.64 2.33-1.61a.16.16 0 0 0-.05-.21.16.16 0 0 0-.21.05c-.55.88-.92 1-2.17 1.48l-.37.14a.13.13 0 0 0-.09.1 2.23 2.23 0 0 1-2.06 1.52 1 1 0 0 1-.2 0 6.6 6.6 0 0 0 2.37-3.09c1-2.29 1.38-2.53 3.42-2.21l.12.41a11.8 11.8 0 0 1 .58 3.48 11.9 11.9 0 0 0 1.54 5.18l.06 4.93a.15.15 0 0 0 .15.15.14.14 0 0 0 .15-.16l-.05-4.9a10.3 10.3 0 0 0 1.48-5.22 7.9 7.9 0 0 1 .63-3.25l.21-.61c2.06-.33 2.42-.1 3.44 2.2m-2.79-3.83a6 6 0 0 0 .21-.7 3.5 3.5 0 0 0 1 .14 3.9 3.9 0 0 0 2.24-.66 1.9 1.9 0 0 0 .58.23 3.93 3.93 0 0 1-4 1m5.61 5.12c-.63-.26-2.25-2.17-2.51-5.06a3.9 3.9 0 0 0 1.3-1 2.35 2.35 0 0 0 1.83-.87c1.18.12 2.33 0 2.92-1.34 2-.17 2.37-1 2.69-2.66a2.28 2.28 0 0 0 1.09-1.37 2.72 2.72 0 0 0-.3-2.08 2.35 2.35 0 0 0 1.05-2 2.09 2.09 0 0 0-1.17-1.7 2.06 2.06 0 0 0-.44-2.25 2.17 2.17 0 0 0-2.19-.44 2.13 2.13 0 0 0-2.51-.76 1.76 1.76 0 0 0-.82 2.09 1.53 1.53 0 0 0-1.23.62 2 2 0 0 0-.26 2 1.66 1.66 0 0 0 1.27 1c-.11.29-.28.39-.65.54a2.08 2.08 0 0 1-2.21-.86c-.49-.7-1.31-2.77 1.81-6.86 1.67-2.18 6.7-6 10.9-6.07a9.4 9.4 0 0 1-2 3.5 11.3 11.3 0 0 0-2.62 2.46 7.6 7.6 0 0 0-.2-1.71.17.17 0 0 0-.16-.12c-3 .13-4.65 3.16-4.85 4a.14.14 0 0 0 .12.18.15.15 0 0 0 .18-.11c.18-.79 1.69-3.57 4.43-3.76a4.75 4.75 0 0 1-.2 3.16.16.16 0 0 0 .06.19.17.17 0 0 0 .2 0 3.78 3.78 0 0 1 3.65-1.14 4.62 4.62 0 0 1-1.77 3.73.15.15 0 0 0 0 .21.15.15 0 0 0 .2 0 4.58 4.58 0 0 1 4.05-.27c-.36 1.84-1.79 2.55-3.29 3a.15.15 0 0 0 .06.29 6.08 6.08 0 0 1 4 2 2.56 2.56 0 0 1-1 .91h-.06a4.37 4.37 0 0 1-3.44.14.16.16 0 0 0-.2.09.15.15 0 0 0 .08.2 5.63 5.63 0 0 1 2.83 3.53c-1.05.22-2.92.6-4.27-.58l-.11-.09a.15.15 0 0 0-.2.22l.1.1c.89.86 1.3 2.9 1.19 4.49a2.4 2.4 0 0 1-.86-.08h-.05a5.3 5.3 0 0 1-3.1-2.42.15.15 0 0 0-.2-.06.14.14 0 0 0-.07.2 4.42 4.42 0 0 1-.63 4.44l-.18.33a4.2 4.2 0 0 1-.93-.52.13.13 0 0 0-.07-.06 5.47 5.47 0 0 1-1.77-3.14.15.15 0 0 0-.18-.12.16.16 0 0 0-.12.18 5.8 5.8 0 0 0 1.84 3.29 14 14 0 0 1-.49 1.8 1.2 1.2 0 0 1-.3.41m.89.6c-.09-.34-.17-.67-.27-1a11 11 0 0 0 .48-1.71 3.6 3.6 0 0 0 .85.45c.21 1.21.36 2.29.48 3.16a14.7 14.7 0 0 0 .5 2.67c-1.25-.59-1.69-2.25-2-3.61m5.59 7c-1.48-1-3.38-4.31-4.19-9.26.06-.11.13-.24.22-.38a5.25 5.25 0 0 0 1-3.74 5.8 5.8 0 0 0 2.62 1.7 48 48 0 0 1 .89 5c.15.95.18 5.23-.52 6.61m2.59-7.86c1.48 2.6 2.55 4.41 3.36 4.89-1.07.53-2.45-.36-3-.93a22 22 0 0 1-2.15-2.83c-.21-1.49-.46-3.3-.85-4.88a2.4 2.4 0 0 0 .37.05q.27.42.57.84c.49.75 1.08 1.77 1.69 2.86m8.65-4.85h.25a2.15 2.15 0 0 1-1.21 1.19c-1 .31-2.52-.12-4.67-1.34a29 29 0 0 0-1.93-2.5.15.15 0 0 0-.23.2c3.18 3.7 4.7 7.17 4.64 10.62-2.42-.38-5.69-4.46-7.37-7h.15a.16.16 0 0 0 .13-.14 8 8 0 0 0-.75-4.15 5.86 5.86 0 0 0 3.85.15h.19A27 27 0 0 1 334 264c1.58.87 3.09 1.69 4.26 1.69m-6.94-3.38a6 6 0 0 0-2.12-3.27 4.86 4.86 0 0 0 2.65-.41 11 11 0 0 1 2.1.65l.55.2a8.1 8.1 0 0 1 4.19 3.57c-1.34.76-3.76.51-7.4-.76"/><path d="M336.71 262.19c-1-.45-1.68-.8-2.28-1.1a30 30 0 0 0-4-1.72.17.17 0 0 0-.2.1.14.14 0 0 0 .09.19 29 29 0 0 1 4 1.7c.61.31 1.29.65 2.29 1.11h.06a.14.14 0 0 0 .14-.09.14.14 0 0 0-.07-.2m-7.54-14.33h.09a.15.15 0 0 0 .13-.07 12.1 12.1 0 0 1 3.16-3.08.16.16 0 0 0-.17-.26 12.5 12.5 0 0 0-3.25 3.18.15.15 0 0 0 0 .21m-35.87 11.83a.15.15 0 0 0 .1-.19.17.17 0 0 0-.2-.1 29 29 0 0 0-4 1.72c-.6.3-1.29.64-2.28 1.1a.16.16 0 0 0-.08.2.15.15 0 0 0 .14.09h.03c1-.46 1.68-.8 2.29-1.11a29.4 29.4 0 0 1 4-1.7m39.08-8.11a.18.18 0 0 0 .12.05.2.2 0 0 0 .1 0 11.1 11.1 0 0 1 2.62-1.76.15.15 0 0 0-.15-.27 11.6 11.6 0 0 0-2.67 1.79.16.16 0 0 0 0 .22m-1.14 3.86a.15.15 0 0 0 .15.14 20.2 20.2 0 0 1 5.87-.06.16.16 0 0 0 0-.31 21 21 0 0 0-5.95.06.16.16 0 0 0-.13.17m-21.69-14.03h4.66a.15.15 0 0 0 .15-.15.15.15 0 0 0-.15-.15h-4.66a.15.15 0 0 0-.15.15.14.14 0 0 0 .15.15m-.69 2.67a1.6 1.6 0 0 0-1.18-.27.14.14 0 0 0-.12.17.15.15 0 0 0 .17.13 1.33 1.33 0 0 1 .95.22.13.13 0 0 0 .09 0 .15.15 0 0 0 .09-.27m4.26 39.74a.16.16 0 0 0-.21-.06.15.15 0 0 0-.06.2c0 1.76-.09 4-1 5.47-1.12-1.72-1.11-4.62-1.09-5.49a.21.21 0 0 0-.08-.16.15.15 0 0 0-.21.05 4.13 4.13 0 0 1-4 2.08 1.26 1.26 0 0 1-1.09-1.14.15.15 0 1 0-.3 0 1.55 1.55 0 0 0 1.33 1.41 3.3 3.3 0 0 0 .56.05 4.51 4.51 0 0 0 3.47-1.83 14.7 14.7 0 0 0 .27 2.83.14.14 0 0 0-.09.08c-1.26 2.6-3.14 3.42-4.46 3.07a1.56 1.56 0 0 1-1.24-1.65.16.16 0 0 0-.14-.17.15.15 0 0 0-.16.15 1.87 1.87 0 0 0 1.46 2 3 3 0 0 0 .68.08c1.31 0 2.91-.91 4-3.13a6.2 6.2 0 0 0 .89 2.09l.05 3.48a.16.16 0 0 0 .15.16.15.15 0 0 0 .15-.16v-3.47a6.3 6.3 0 0 0 .83-2c1.15 2.13 2.8 3 4.13 3a2.6 2.6 0 0 0 .7-.09 1.82 1.82 0 0 0 1.46-1.91.15.15 0 1 0-.3 0 1.52 1.52 0 0 1-1.24 1.6c-1.34.35-3.37-.47-4.65-3.1a16 16 0 0 0 .22-2.84 4.75 4.75 0 0 0 3.58 1.83 2.7 2.7 0 0 0 .58-.06 1.55 1.55 0 0 0 1.35-1.39.16.16 0 0 0-.31 0 1.26 1.26 0 0 1-1.1 1.12 4.21 4.21 0 0 1-4.13-2.08"/><path d="M318.06 287.26a.16.16 0 0 0-.12 0h-.07a3 3 0 0 1-.59.14h-.34a4.38 4.38 0 0 1-2.7-1 .16.16 0 0 0-.13 0 .16.16 0 0 0-.19.19 3.76 3.76 0 0 0 2.4 2.88 2 2 0 0 0 .47.06h.21a1.34 1.34 0 0 0 1-.53 1.78 1.78 0 0 0 .16-1.62.14.14 0 0 0-.08-.09m-1.21 1.93c-.82 0-1.84-.69-2.4-2.21a4.53 4.53 0 0 0 2.82.73 3 3 0 0 0 .55-.1 1.32 1.32 0 0 1-.23 1.27 1 1 0 0 1-.67.31zm-17.3-4.63a.15.15 0 0 0 .15.11.15.15 0 0 0 .1-.19c-.16-.49.44-1.16 1.44-2.27.74-.84 1.66-1.87 2.69-3.28a.17.17 0 0 1-.11-.06 2 2 0 0 1-.09-.18 40 40 0 0 1-2.72 3.31c-1.07 1.2-1.71 1.92-1.51 2.57m12.3-16.46a.15.15 0 0 0-.16.15v4.89a.15.15 0 0 0 .15.15.16.16 0 0 0 .16-.15v-4.89a.15.15 0 0 0-.15-.15m-16.37-4.58a.15.15 0 0 0-.21 0l-4.86 7.44a.15.15 0 0 0 0 .21.1.1 0 0 0 .08 0 .17.17 0 0 0 .13-.07l4.87-7.36a.16.16 0 0 0-.05-.21m-4.28-11.96a.13.13 0 0 0 .11-.05.16.16 0 0 0 0-.22 11.6 11.6 0 0 0-2.68-1.79.15.15 0 0 0-.14.27 11.3 11.3 0 0 1 2.62 1.76.17.17 0 0 0 .1 0m22.04-7.5a.15.15 0 0 0 .14-.1.16.16 0 0 0-.09-.2c-1-.35-2-.66-2.74-.87-.29-.07-.65-.16-.88.21a.16.16 0 0 0 .05.21.15.15 0 0 0 .21-.05c.09-.15.19-.16.54-.08h.07a1.15 1.15 0 0 0 .12 1.14 1 1 0 0 0 .81.41h.16a1.21 1.21 0 0 0 .93-.89l.62.21h.06m-1.66.37a.69.69 0 0 1-.67-.28.84.84 0 0 1-.08-.86h.16a.65.65 0 0 0 0 .71.16.16 0 0 0 .13.08h.08a.15.15 0 0 0 .05-.21.36.36 0 0 1 0-.4.2.2 0 0 0 0-.07c.31.1.65.2 1 .32a1 1 0 0 1-.69.69m-17.16 3.48h.09a.16.16 0 0 0 0-.22 12.6 12.6 0 0 0-3.25-3.17.15.15 0 0 0-.21 0 .15.15 0 0 0 0 .21 12.3 12.3 0 0 1 3.16 3.09.15.15 0 0 0 .13.07m32-2.28a.16.16 0 0 0 .09 0 .14.14 0 0 0 .12-.06 9.7 9.7 0 0 1 2.45-2.17l.73-.52a.15.15 0 0 0-.18-.25l-.72.52a9.7 9.7 0 0 0-2.52 2.24.15.15 0 0 0 0 .21m-18.97 43.87a3.76 3.76 0 0 0 2.4-2.88.16.16 0 0 0-.07-.17.15.15 0 0 0-.18 0 4 4 0 0 1-3.7.86.16.16 0 0 0-.19.06 1.75 1.75 0 0 0 .26 1.74 1.43 1.43 0 0 0 1 .41 2 2 0 0 0 .47-.07m-1.28-.56a1.36 1.36 0 0 1-.22-1.28 4.3 4.3 0 0 0 3.46-.68 3.25 3.25 0 0 1-2 2.23 1.23 1.23 0 0 1-1.21-.27m-11.13-45.69-.73-.51a.16.16 0 0 0-.21 0 .16.16 0 0 0 0 .22l.72.51a9.8 9.8 0 0 1 2.45 2.18.14.14 0 0 0 .12.06.16.16 0 0 0 .09 0 .15.15 0 0 0 0-.21 9.9 9.9 0 0 0-2.51-2.25"/><path fill="#9fa4a7" d="M367.11 240.64h2.68v1.95h-2.68zm13.57 0h2.68v1.95h-2.68z"/></g><path fill="#e30613" d="M111.42 230.3h65.41v71.22h-65.41z"/><path fill="#fff" d="M125.06 243.9h1.72v7.16h-1.72zm2.71 0h1.73l1.34 3.21h.03v-3.21h1.52v7.16h-1.53l-1.54-3.69h-.03v3.69h-1.52z"/><g fill="#fff" clip-path="url(#e)"><path d="m133.29 249 1.58-.05c0 .33.08.86.55.86.3 0 .39-.25.39-.5s-.27-.56-.7-.93l-.59-.53a2.69 2.69 0 0 1-1.13-2.08 1.9 1.9 0 0 1 2.07-2c.95 0 1.89.48 1.94 2.2l-1.49.05c0-.43-.11-.89-.53-.89a.43.43 0 0 0-.41.48c0 .34.44.67.76.95l.58.51a2.82 2.82 0 0 1 1.17 2.13 1.94 1.94 0 0 1-2.08 2 2 2 0 0 1-2.11-2.2m6.15-3.66h-1.35v-1.44h4.41v1.44h-1.34v5.72h-1.72zm5.12 3.02-1.57-4.46h1.83l.71 2.48.68-2.48h1.64l-1.57 4.46v2.7h-1.72zm5.31-3.02h-1.35v-1.44h4.41v1.44h-1.34v5.72h-1.72zm3.87 3.8v-5.24h1.72v5.21a.5.5 0 0 0 .52.57c.3 0 .49-.21.49-.57v-5.21h1.64v5.21a2 2 0 0 1-2.23 2.06c-1.35 0-2.14-.63-2.14-2m6.38-3.83h-1.34v-1.44h4.4v1.44h-1.33v5.72h-1.73zm-33.3 35.13h1.78v3.1l1.22-3.1h1.74l-1.27 2.95 1.29 4.49h-1.89l-.72-3.06-.37.73v2.33h-1.78zm5.9 5.27 1.65-.05c0 .34.07.89.56.89.31 0 .41-.26.41-.52s-.28-.58-.72-1l-.62-.54a2.81 2.81 0 0 1-1.18-2.16 2 2 0 0 1 2.15-2c1 0 2 .5 2 2.28l-1.55.05c0-.44-.11-.91-.55-.91a.44.44 0 0 0-.42.49c0 .35.45.7.79 1l.6.53a2.91 2.91 0 0 1 1.22 2.21 2 2 0 0 1-2.17 2 2.11 2.11 0 0 1-2.19-2.28m5.75-5.26h1.78v7.43h-1.78zM145 289a1.41 1.41 0 0 1 .54-1.08h-.47l-.24-1.39h-1.44l-.24 1.39h-1.64l1.5-7.45h2.44l1.42 7.45h-.1c-.55.16-.79.49-.79.8a.42.42 0 0 0 .47.44 1.23 1.23 0 0 0 .65-.24l.41.73a1.94 1.94 0 0 1-1.25.41c-.66 0-1.26-.3-1.26-1.06m-.46-3.9-.4-2.62-.44 2.62Zm3.61 1.68 2.13-4.8h-2.11v-1.5h4.08v1.32l-2.07 4.6h2.01v1.51h-4.04zm5.47-6.31h1.79v3.1l1.21-3.1h1.74l-1.27 2.95 1.3 4.49h-1.9l-.71-3.06-.37.73v2.33h-1.79zm6.04 0h1.78v7.43h-1.78zm-8.59-1.26a.77.77 0 1 1-1.54 0 .77.77 0 0 1 1.54 0m12.48-5.75c-.14-2.84-.26-5.66-.25-8.45 0-.07-.09-.21 0-.26v-2.47a50 50 0 0 1 .07-6.58c-.07-.45.15-.86-.2-1.23 0-.27-.26-.46-.46-.63a1 1 0 0 0-.78-.29c-.38-.12-.37.29-.61.41-.76-.08-1.2-.07-2-.12-.2-.18-.44 0-.66-.15-1.07 0-2.19-.29-3.3-.18l-.09-.07c-1.26-.08-2.24.09-3.47.12a9.7 9.7 0 0 0-1.68.15c-1.46.09-2.8.27-4.23.33-.23-.25-.57-.09-.88-.09-.33.41-.67-.1-1-.21a10.4 10.4 0 0 1-2.37 0c-.24-.08-.44 0-.65-.06-1.14.05-2.38-.22-3.54-.12a4.7 4.7 0 0 0-1.4.09c-.57.1-.94-.07-1.46 0-.28.08-.61-.08-.87.06h-1.65a13 13 0 0 1-1.62.21c-1.52-.05-3 .34-4.43.24-.14.12-.39.11-.44.33 0 .4-.4.48-.65.66s-.1.58 0 .87a10.3 10.3 0 0 0-.19 1.72c-.2 1.75 0 3.58-.09 5.38-.11.1.1.21-.06.29 0 .94-.17 1.89-.19 2.79a13 13 0 0 0 0 3.59c-.15 1.13 0 2.47-.09 3.59a19.5 19.5 0 0 0 .24 2.93.78.78 0 0 0 .84.27c.22.13.48.19.6.45.16-.06.26.21.4 0 0 0 0 .08.06.13.25.06.39-.15.59.06.13-.07.36.14.44 0s.18 0 .28 0h1a29 29 0 0 0 5.72-.12c3.09-.06 6.3-.38 9.22-.31.51-.23.75.43 1.25.25.15.2.33-.05.49.06 2.23 0 4.42-.31 6.69-.34a2.7 2.7 0 0 0 .89 0 38 38 0 0 1 7.21.4c.62 0 1.1.21 1.78.17.16-.16.51-.09.46-.41.24 0 .44-.21.68-.13s.23-.23.26-.38 0-.26.2-.34v-2.73m-20.23-16.28-.06.05c0 1.21-.19 2.29-.22 3.46v7.93c-.14 0-.19-.06-.25-.12.06-.43-.38-.57-.62-.81s-.58 0-.9-.06c-1.26 0-2.36-.11-3.54 0-1-.11-2.16.06-3.36 0-1.8.19-3.84.22-5.75.51-.13-.12-.32 0-.47 0a1.51 1.51 0 0 0-.42 1.52 1.21 1.21 0 0 0 1 .79 37.6 37.6 0 0 1 7.91-.79 29 29 0 0 1 3.37.09c.77-.13 1.47.26 2.33.13.13-.22.37-.3.49-.54-.07-.14.07-.28.07-.42s0-.2.09-.21a.5.5 0 0 1 .06.38c0 1.82-.13 3.92-.12 5.74l-.16.07a35 35 0 0 0-4.66.19c-1.18.12-2.35 0-3.66.13a47 47 0 0 1-5.63.21c-.29 0-.43.12-.71-.06a6.4 6.4 0 0 1-1.37-.09c-.27-.08 0-.32-.13-.48l-.06-.33v-7.54c.12-1.39.28-2.74.34-4.09v-.09A40 40 0 0 1 127 258a13 13 0 0 1 .16-1.53c.17 0 .29-.14.46-.13s.14.05.22.06a1.5 1.5 0 0 1 .81-.2.12.12 0 0 0 .15.09c.05-.27.37-.12.53-.24.4-.11 1 .08 1.27-.15 1.25-.07 2.16-.19 3.42-.18 1.45-.2 3.13 0 4.54-.22 0 .12.13 0 .18.09.31-.13.54 0 .87 0 1.18 0 2.59.19 3.82.27a13 13 0 0 0-.09 1.36m4.19-1.15c.42.05.76-.25 1.24-.19a24 24 0 0 1 4-.38 4 4 0 0 0 .74-.07 31.6 31.6 0 0 1 6.17.39 1.9 1.9 0 0 1-.56.6c-.73.86-1.41 1.63-2.2 2.48 0 .15-.11.2-.22.27a8 8 0 0 0-1.18 1.4c-.29.47-.86.85-1.17 1.29s-.6.49-.71.89c-.13.06-.12.25-.31.24-.26-.35-.49-.62-.71-1s-.57-.71-.87-1a8 8 0 0 1-.71-.71 2.6 2.6 0 0 1-.41-.51c-.22-.23-.54-.51-.74-.75s-.29-.3-.46-.48a1.7 1.7 0 0 0-.37-.45c-.55-.65-1-1.32-1.55-2ZM145.25 273v-11.31l.06-.11c0-1.27 0-2.49.06-3.74 0-.35-.17-.08 0-.39-.13-.11.14-.1 0-.21l.13-.18c.42.41.76 1 1.2 1.41v.08a12 12 0 0 0 1 1.17c.93 1.18 2.1 2.33 3 3.5.39.42.69.95 1.1 1.44-.07.09-.09.27-.21.3a20 20 0 0 0-1.51 1.7 12.3 12.3 0 0 0-1.65 2.1 6 6 0 0 0-.78.89 5.8 5.8 0 0 1-.92 1.22v.07a10.3 10.3 0 0 0-1.45 2.09m15.5 2.36a28.5 28.5 0 0 0-4.3-.3 3.8 3.8 0 0 0-1.21-.06 3.14 3.14 0 0 0-1.43 0c-.1-.15-.28-.08-.46-.06-.89.16-1.77-.14-2.69 0-1.35.11-2.84.09-4.11.18 0-.22.23-.26.31-.48a14 14 0 0 1 1.14-1.76c0-.08 0-.17.09-.18.39-.75 1.13-1.2 1.45-2a10 10 0 0 1 1.12-1.41c0-.2.2-.32.34-.38a21.5 21.5 0 0 1 1.97-2.24c.09-.12.16-.24.31-.27.32.15.31.47.62.66.65 1 1.57 1.82 2.22 2.86.39.38.61.68 1 1.07a11 11 0 0 1 .9 1.17c.47.42.64 1 1.17 1.43.26.43.63.62 1 1.05.25 0 .26.31.47.36a.6.6 0 0 0 .25.24Zm.54-2.62c-.47-.52-.9-1.24-1.42-1.71s-1-1.27-1.54-1.86c0-.22-.34-.33-.41-.53-.38-.48-.72-.87-1-1.32 0-.12-.23-.12-.2-.27-.7-.7-1.27-1.54-1.88-2.28.11-.3.43-.53.62-.77.24-.51.73-.84 1-1.32.68-.88 1.54-1.54 2.22-2.42s1.38-1.7 2.15-2.43a.88.88 0 0 1 .4-.39c.05.51-.06 1.06 0 1.56l-.07.09a8.2 8.2 0 0 1 0 1.91c.22.17-.14.34.06.51.16 1.39 0 2.83 0 4.1.14.3 0 .66 0 1a3.2 3.2 0 0 1-.06.71c.15.23 0 .51.09.76-.18.53.1 1 0 1.49 0 1 .09 2.11.13 3.11ZM129 261.41c.42 0 .91-.21 1.4-.27.14-.05.25.07.37-.06 2.6-.38 4.77-.68 7.39-1 .75-.36 1.85 0 2.55-.54v-.12s.09-.12.15-.12 0-.39.16-.49a2 2 0 0 1-.16-.56.48.48 0 0 0-.31-.12c0-.28-.22-.27-.43-.33-.57-.22-1.12.15-1.71.15-.77 0-1.52.23-2.3.3-.51.23-1 0-1.46.21-1.21.12-2.53.33-3.79.52-.18.1-.37-.11-.53.05a8.3 8.3 0 0 1-1.65 0c-.3 0-.41.29-.62.48 0 .23-.25.48 0 .69-.12.1 0 .16-.06.3a1.12 1.12 0 0 0 .71.84c.09.08.26 0 .32.06m11.8 1.6a1.2 1.2 0 0 0-.68.07c-1.14-.06-2.41-.15-3.41-.16a11 11 0 0 0-1.72.13 7 7 0 0 0-1.89.21 27 27 0 0 0-2.71.3c-.55.13-1.15 0-1.67.12 0 .12-.15.15-.16.27-.27.21-.24.59-.3.93.18.16 0 .5.27.6.47.83 1.45.21 2.18.18a5 5 0 0 1 1-.15 34 34 0 0 1 6.71-.52 11 11 0 0 1 1.8.19c.31-.08.76.19.94-.21.35-.14.17-.64.4-.88-.14-.21-.21-.51-.38-.75s-.33-.13-.37-.33m-11.44 10.82c1.35.29 2.84-.26 4.35-.34a27 27 0 0 1 3.92-.36 20 20 0 0 1 2.2-.07c.1-.08.3 0 .35-.13a.57.57 0 0 0 .28-.63c.4-.29-.11-.5-.09-.81s-.46-.42-.67-.57c-.14 0-.32-.05-.42.06-1 .12-1.93.06-3 .2-1.12-.09-2.09.3-3.11.24a7.7 7.7 0 0 1-1.55.21 10 10 0 0 1-2.55.1 1.39 1.39 0 0 0-.4 1.4c0 .43.45.43.65.7"/></g><text fill="#9ea3a6" font-family="KohinoorTelugu-Bold, Kohinoor Telugu" font-size="8.25" font-weight="700" transform="translate(115.19 332.63)">D<tspan x="5.58" y="0" letter-spacing="-.01em">o</tspan><tspan x="10.38" y="0" letter-spacing="0em">finans</tspan><tspan x="34.72" y="0" letter-spacing="-.02em">o</tspan><tspan x="39.44" y="0" letter-spacing="-.01em">w</tspan><tspan x="46.21" y="0">ano ze rodkw Minist</tspan><tspan x="135.47" y="0" letter-spacing="-.02em">r</tspan><tspan x="138.79" y="0">a Kultury i </tspan><tspan x="182.51" y="0" letter-spacing="-.01em">D</tspan><tspan x="187.98" y="0">ziedzict</tspan><tspan x="218.3" y="0" letter-spacing="-.01em">w</tspan><tspan x="225.06" y="0">a Narod</tspan><tspan x="255.85" y="0" letter-spacing="-.02em">o</tspan><tspan x="260.56" y="0">wego</tspan></text></g></g></svg>