<svg xmlns="http://www.w3.org/2000/svg" viewBox="0 0 1024 1024"><path fill="#936930" d="M517 164c3.229 3.128 3.37 5.887 3.656 10.246 1.054 10.368 4.986 19.852 8.619 29.545 1.66 4.433 3.282 8.88 4.906 13.325q1.802 4.924 3.611 9.846a1152 1152 0 0 1 8.333 23.476l1.232 3.467 1.088 3.216.923 2.67c1.76 8.936.33 18.049-.864 26.979q-.473 3.692-.943 7.384-.744 5.719-1.495 11.438c-1.65 12.633-3.266 25.26-4.039 37.982l-.205 2.738c-.32 4.943-.32 4.943 2.114 9.09L546 357c1.28 3.843 1.112 7.442 1.078 11.444l-.01 2.66a2967 2967 0 0 1-.025 5.807 4392 4392 0 0 0-.043 16.344l-.006 3.57c-.01 13.7.113 27.4.24 41.1l.096 10.57.096 10.809c.455 50.863.777 101.698-.264 152.557-.255 12.457-.438 24.914-.626 37.371q-.109 7.16-.23 14.32c-.172 10.46-.325 20.916-.298 31.376l.005 2.247q.014 5.408.053 10.814l.016 3.881.025 3.446C546 718 546 718 545 720a82 82 0 0 0-.268 4.586l-.105 2.88-.104 3.132q-.123 3.3-.25 6.602l-.133 3.427c-3.152 75.93-3.152 75.93-15.14 107.373h-2l-.5 2.125c-2.493 4.778-6.547 7.69-11.523 9.688-3.106.687-5.137.569-8.047-.754-7.641-5.1-11.834-13.631-14.93-22.059v-3l-2-1a113 113 0 0 1-1.934-8.414l-.524-2.69c-2.179-11.674-3.379-23.466-4.604-35.271l-.388-3.67A4075 4075 0 0 1 480 758l-.277-2.763c-3.056-30.574-3.774-61.258-4.63-91.96q-.16-5.61-.331-11.221c-.292-9.685-.54-19.37-.762-29.056l-.066-2.865q-.224-9.715-.428-19.431-.066-3.158-.136-6.315c-.29-13.17-.388-26.333-.362-39.506.025-12.84-.065-25.674-.262-38.512l-.037-2.48q-.168-11.255-.357-22.506c-.31-18.357-.466-36.623.414-54.97.226-4.75.276-9.472.234-14.228-.076-9.41.284-18.802.645-28.206 1.223-14.637 1.223-14.637-.645-28.981h1l.55-2.082.762-2.73.739-2.708c.978-2.555 1.8-3.817 3.949-5.48h2c-.48-14.582-2.186-28.968-4.011-43.436a4572 4572 0 0 1-1.462-11.742l-.933-7.498-.44-3.529-.414-3.28-.36-2.87c-.37-2.574-.866-5.098-1.38-7.645-1.31-12.843 7.319-27.705 11.938-39.437l3.18-8.109 2.056-5.239c2.292-5.837 4.55-11.686 6.791-17.543.907-2.34 1.843-4.665 2.8-6.984 3.008-7.47 4.903-13.74 4.934-21.918.357-3.287 1.364-5.117 3.301-7.77 3.083-1.542 5.609-1.297 9-1m-11 47 1 2Zm13-1 .013 2.8q.06 13.088.09 26.174.015 6.728.048 13.454.032 6.498.039 12.994.005 2.475.021 4.948c.015 2.317.017 4.634.016 6.95l.014 3.99c-.252 3.858-.915 7.062-2.241 10.69-2.437 1.5-2.437 1.5-5 2-3-1-3-1-4.175-2.618-1.124-3.244-1.048-6.057-1.02-9.49l.009-2.144q.011-2.3.036-4.599c.025-2.424.038-4.85.048-7.274.023-5.146.061-10.292.102-15.437a4644 4644 0 0 0 .112-17.9c.013-2.39.038-4.78.063-7.17q.012-2.196.02-4.39l.032-3.873c.017-3.273.017-3.273-2.227-6.105l-1.006 2.608a25717 25717 0 0 1-5.414 14.016l-2.37 6.13-.794 2.056a827 827 0 0 1-4.118 10.424l-.831 2.06q-1.138 2.807-2.281 5.612c-5.709 14.892-1.551 33.237.689 48.531q.816 5.716 1.617 11.434l.4 2.8c1.023 7.319 1.791 14.648 2.38 22.014.454 5.419.454 5.419 2.728 10.315 11.056.1 21.99.125 33-1 2.167-14.906 3.923-29.845 5.554-44.817l.242-2.219.475-4.391c.404-3.719.83-7.433 1.295-11.145l.281-2.272q.263-2.112.54-4.22c1.028-8.285 1.026-15.119-1.801-22.987l-.76-2.222c-.804-2.35-1.628-4.695-2.451-7.04-1.107-3.218-2.205-6.439-3.305-9.66l-.815-2.376c-3.015-8.806-5.692-17.704-8.255-26.651zm-21 154 2 1h-13c-1.177 11.323-1.419 22.679-1.754 34.05l-.197 6.54q-.207 6.87-.406 13.74-.201 6.889-.416 13.777c-1.355 43.456-1.683 86.806-.3 130.264q.187 5.989.362 11.979.198 6.713.406 13.425l.121 3.907.108 3.42c.06 2.299.076 4.598.076 6.898 1.176 107.705 1.176 107.705 13.313 214.563l.534 3.26c1.704 9.179 4.805 18.959 12.153 25.177 2.569.237 2.569.237 5-1 20.726-22.024 16.075-78.946 16.133-107.016.001-3.038.001-3.038-1.133-5.984h2c.786-12.04 1.279-24.064 1.563-36.125l.065-2.628c.375-15.341.452-30.675.335-46.02l-.013-2.384q-.011-2.188-.038-4.377c-.018-3.64.344-6.915 1.088-10.466q-.49-3.001-1-6l.46-1.698c.783-3.34.679-6.658.67-10.068l.005-2.357q.004-3.849-.002-7.697 0-2.675.003-5.35.001-5.601-.006-11.202-.006-7.19.004-14.379.005-5.52 0-11.04l.002-5.304q.003-3.699-.007-7.398l.007-2.226c.043-3.766.043-3.766-1.136-7.281h2v-2.492c0-65.508 0-65.508.035-67.856l.028-2.714.035-2.723c.153-2.19.153-2.19-1.098-3.215-.026-3.342.029-6.67.127-10.01.06-3.84.05-6.739-2.127-9.99l2-1-1-2a96 96 0 0 1-.062-5.191l.023-3.112.039-3.26q.038-3.189.063-6.378l.035-2.866c.15-2.17.15-2.17-1.098-3.193a118 118 0 0 1-.062-5.844l.025-3.696.037-3.96c.059-10.883-.12-21.651-1-32.5-10.727-3.576-23.816-2.106-35-2"/><path fill="#a87e41" d="m485 240 5 2-1 2-3-1v2h2v4l3 2-3 8-2-3-6 9 3-1v-3h2l-2 8h-5l-1 5h2v-3l4-1v10l-4-3v6l2 1 1-3h2c1.153 4.943 1.54 9.957 2 15l-2-2-1 7 1-4 3 1c.25 5.625.25 5.625-2 9h2c.625 1.875.625 1.875 1 4l-2 2h3c-1 2-1 2-3 5l1.953.598C490 320 490 320 490.61 322.934l.141 3.503.172 3.497c.07 2.784.108 5.534-.047 8.316.158 3.485 1.06 6.434 2.125 9.75l.875 2.875c.928 2.317.928 2.317 3.25 2.938L499 354l.25 2.25c.89 3.262 2.235 4.56 4.75 6.75-2 .043-4 .04-6 0l-1-1h-2l-1-5 2 1 1-2h-3l-1-1v2h-2l1 1 .688 2.438c1.127 2.879 1.127 2.879 4.437 3.875L500 365l-1 2-2-1a121 121 0 0 0-5.125-.562l-2.758-.254L487 365l-.06 3.02q-.153 7.553-.315 15.105l-.062 2.934a4217 4217 0 0 1-1.075 40.863c-1.487 47.975-1.845 95.716-.19 143.693q.149 4.356.292 8.711.105 3.027.218 6.053l.122 3.67.114 3.205c-.04 2.455-.321 4.413-1.044 6.746l2 1-1 3a167 167 0 0 0 .121 7.512l.072 2.206q.116 3.486.245 6.97l.158 4.728q.195 5.793.404 11.584h-2l-1-2 .473 2.082c1.455 8.055 1.87 15.63-2.473 22.793a99 99 0 0 1-3 4.125c-.869-3.092-1.061-4.923 0-8l1-1c1.442-2.884 1.094-5.417 1.063-8.625l-.028-3.602L481 639h-2v5h-1q-.254-2.374-.5-4.75l-.281-2.672C477 634 477 634 477 630l3-1c1.275-4.334.543-6.824-1-11v-3l-1 3h-2v-5h3l-3-2 2-6-2-1 4 1-1-2-3-1-1 19h-1q-.222-9.479-.427-18.958-.07-3.195-.146-6.391a1600 1600 0 0 1-.423-40.85c.027-12.813-.061-25.619-.258-38.43l-.074-4.965q-.151-10.011-.32-20.021c-.31-18.357-.466-36.623.414-54.97.226-4.75.276-9.472.234-14.228-.076-9.41.284-18.802.645-28.206 1.223-14.637 1.223-14.637-.645-28.981h1l.55-2.082.762-2.73.739-2.708c.978-2.555 1.8-3.817 3.949-5.48h2c-.537-17.143-2.902-34.043-5.14-51.032q-.74-5.675-1.462-11.35l-.47-3.483c-1.81-14.31-1.81-14.31 2.072-20.135.167-2.625.167-2.625 0-5l3-1-3-1 1-2c2.563-.625 2.563-.625 5-1l2-6h-2l-1 4c-1.61-3.22-.068-5.682 1-9a152 152 0 0 1 2-5"/><path fill="#8e622b" d="M517 164c3.435 3.248 3.622 6.76 4.125 11.313l.445 3.863L522 183c.316 2.336.656 4.668 1 7l-5 1-1-3-2 5-2-4-1 3h-2l1 2.813c1 3.187 1 3.187 1 6.187h1v8l-2-1 1-2h-2c.523 2.763 1.109 5.326 2 8l-1 2h2l-1 2-2-1v4h-2v8h-1c-.593-4.376-1.138-8.575-1-13-2.795 3.303-4.116 6.603-5.559 10.664q-.709 1.95-1.42 3.899a1054 1054 0 0 0-2.184 6.116 620 620 0 0 1-2.146 5.923l-1.275 3.572C492 249 492 249 489.832 250.4L488 251v-2l-3-1 3-3h-2v2l-2-1 2-4 1 2 2-1-3-2c-2.757 3.955-3.532 7.224-4 12l1-3h2l-2 7-5 1 3 1c-1 3-1 3-3 4a69 69 0 0 0-1 4 206 206 0 0 1-2 5h-2c-1.185-13.034 7.259-27.553 11.938-39.437l3.18-8.109 2.056-5.239c2.292-5.837 4.55-11.686 6.791-17.543.907-2.34 1.843-4.665 2.8-6.984 3.008-7.47 4.903-13.74 4.934-21.918.357-3.287 1.364-5.117 3.301-7.77 3.083-1.542 5.609-1.297 9-1m-11 47 1 2Z"/><path fill="#8c632d" d="M515 218c1 2 1 2 1 5l2-1c1.874 3.747 1.407 8.245 1.563 12.375l.124 3.265c.315 9.357.449 18.713.49 28.075q.01 2.397.031 4.795c.018 2.27.022 4.54.022 6.81l.013 3.977c-.31 4.723-.802 9.113-4.056 12.703-2.187 1-2.187 1-4.75 1-3.45-1.416-3.944-2.547-5.437-6-.426-3.874-.372-7.724-.328-11.617l.006-3.426q.01-3.584.04-7.166c.032-3.646.042-7.29.048-10.936l.03-6.972.014-3.29c.05-5.298.267-10.372 1.19-15.593l7 2-1-2.812C512 226 512 226 512 223a93 93 0 0 0-1-4z"/><path fill="#aa7f43" d="m485 240 5 2-1 2-3-1v2h2v4l3 2-3 8-2-3-6 9 3-1v-3h2l-2 8h-5l-1 5h2v-3l4-1v10l-4-3v6l2 1 1-3h2c1.153 4.943 1.54 9.957 2 15l-2-2-1 7 1-4 3 1c.25 5.625.25 5.625-2 9h2c.625 1.875.625 1.875 1 4l-2 2h3c-1 2-1 2-3 5l1.953.598C490 320 490 320 490.61 322.934l.141 3.503.172 3.497c.07 2.784.108 5.534-.047 8.316.158 3.485 1.06 6.434 2.125 9.75l.875 2.875c.928 2.317.928 2.317 3.25 2.938L499 354l.25 2.25c.89 3.262 2.235 4.56 4.75 6.75-2 .043-4 .04-6 0l-1-1h-2l-1-5 2 1 1-2h-3l-1-1v2h-2l1 1 .688 2.438c1.127 2.879 1.127 2.879 4.437 3.875L500 365l-1 2-9-2v-2l-5 2v-3h3v-2l-3-1v-2l3-1h-3c1.875-3.875 1.875-3.875 3-5l3-1h-6l1-2-2-1v-4l-2 1-.214-1.828-3.072-26.175-.808-6.89q-.397-3.38-.79-6.76c-.56-4.77-1.129-9.535-1.793-14.292l-.3-2.196a758 758 0 0 0-.793-5.51c-.363-5.283-.243-9.83 2.77-14.349.167-2.625.167-2.625 0-5l3-1-3-1 1-2c2.563-.625 2.563-.625 5-1l2-6h-2l-1 4c-1.61-3.22-.068-5.682 1-9a152 152 0 0 1 2-5"/><path fill="#916930" d="M536 621h5l.375 1.938L542 625l2 1-.437 1.625c-.658 2.774-1.115 5.56-1.563 8.375l-4 1 1-8h-2l-1 13h2v-3h2l-.937 2.25c-.872 2.257-1.54 4.395-2.063 6.75 3.17-1.62 3.17-1.62 3.512-4.164l.176-2.461.199-2.477L541 637c3.213 3.441 3.33 5.877 3.188 10.5l-.083 3.406L544 654v4l-1 1 1 2a140 140 0 0 1-2 7h2c.25 7.52.25 7.52-1 9.914-1.29 2.692-1.197 4.742-1.125 7.711l.055 2.914L542 691v2q.476 2.505 1 5l-2 1 1.95.996c3.011 2.943 2.76 6.077 2.862 10.067l.116 2.22c.233 5.396.233 5.396-.928 7.717a83 83 0 0 0-.316 4.57l-.127 2.715-.12 2.84-.13 2.863q-.16 3.506-.307 7.012h-1l-1-7h-3c-2-4.75-2-4.75-2-7l-3-1-1 4c-.056-7.66.004-15.307.219-22.965l.067-2.402.141-4.988c.483-17.144.666-34.268.536-51.418l-.013-2.383q-.012-2.19-.038-4.378c-.018-3.641.352-6.912 1.088-10.466a117 117 0 0 0-1-7h2z"/><path fill="#9d7238" d="M475 600c3.161 1.37 3.993 1.99 6 5l-2 1-1-1-1 6h2v2h-3v5h2l1-4 2 4h-2l1.563 2.625c1.605 3.769 1.456 5.484.437 9.375l-3 1c0 2.84.403 5.237 1 8h2c1.29 2.581 1.133 4.494 1.125 7.375l.008 2.898c-.117 2.408-.446 4.427-1.133 6.727h-2v5c5.937-7.273 5.73-13.96 5-23-.457-2.317-.457-2.317-1-4l2-1c1.21 3.63 1.322 7.088 1.5 10.875l.12 2.438q.128 2.568.25 5.137c.12 2.37.264 4.74.415 7.109 1.072 17.794.807 35.623.715 53.441h-2v-15h-4l-1 2-1-2-2 1v-3h2l-1-2-3 1q-.436-11.961-.834-23.922-.185-5.56-.387-11.12c-.72-19.721-.772-39.238.221-58.958"/><path fill="#9a6f33" d="M543 580c2 1 2 1 3 2 .165 2.085.261 4.175.33 6.265l.066 1.983c.07 2.186.13 4.371.19 6.557l.065 2.29c.472 16.926.31 33.829.012 50.756a3261 3261 0 0 0-.138 9.216q-.065 4.543-.139 9.086l-.065 4.23c-.112 7.476-.327 14.944-.718 22.41l-.201 3.965C545 702 545 702 543 705v-5l-3-1 3-1-3-7h2c-.095-.831-.19-1.663-.29-2.52-.11-1.086-.22-2.173-.335-3.293l-.352-3.269C541 679 541 679 543 676c.451-2.05.451-2.05.625-4.187L544 668h-2l.879-6.055c.29-2.026.29-2.026-.879-3.945h2l-2-4h2l-.5-2c-.42-2.522-.537-4.652-.5-7.187.284-3.617.284-3.617-1-5.813l-.25 3.375C541 646 541 646 538.938 647.438c-.64.185-1.28.37-1.938.562l1 3-2 1c.44-5.196.883-8.663 4-13h-2v3h-2a701 701 0 0 1-.062-4.812l-.036-2.708C536 632 536 632 537 629h2v-5h1q.079 2.406.125 4.813l.07 2.707C540 634 540 634 538 637l4-1v-11a140 140 0 0 0-1-4c-2.33.959-2.33.959-4 4-3.96-11.386-1.426-23.312 0-35h2l.875-2.187z"/><path fill="#8b5f29" d="M517 164c3.435 3.248 3.622 6.76 4.125 11.313l.445 3.863L522 183c.316 2.336.656 4.668 1 7l-5 1-1-3-2 5-2-4-1 3h-2l1 2.813c1 3.187 1 3.187 1 6.187h1v8l-2-1 1-2h-2c.523 2.763 1.109 5.326 2 8l-1 2h2l-1 2-2-1v4h-2v8h-1c-1.314-9.196-1.077-16.95 1-26h-2v-3l-3 3 1-6-3-1c.549-4.388 1.392-8.472 2.535-12.754.548-2.648.725-5.236.902-7.934.323-4.155.813-7.012 3.563-10.312 3.083-1.542 5.609-1.297 9-1"/><path fill="#bb934f" d="m541 497 1 3h5c.87 25.787 1.058 51.518.563 77.313l-.04 2.02Q547.286 591.668 547 604h-1l-.06-1.88c-.095-2.811-.205-5.622-.315-8.433-.03-.976-.062-1.952-.094-2.958l-.117-2.842-.095-2.619c-.19-2.545-.19-2.545-2.319-5.268l-.312 2.188c-.756 3.09-1.843 5.23-3.688 7.812h-2v5h-1c-1.082-11.64-1.118-23.197-1.062-34.875q.008-2.795.013-5.59.017-6.767.049-13.535l2-1v8l1-4c4 0 4 0 6 1v1h2l-1-4-2 1 .992-1.547c1.364-3.32 1.2-6.127 1.133-9.703l-.055-3.828L545 525h-2v-6l2 2v-17h-6v-6z"/><path fill="#9b7037" d="M534 772c1.125 3.75 1.125 3.75 0 6 1.392 2.784 3.156 2.979 6 4l-3 7-1-2h-2l-1 2 3 1v4h-2l1 2 3-8h1c0 13.56 0 13.56-1.578 18.988-.614 2.297-.614 2.297.265 5.762.996 7.225-1.719 14.366-3.687 21.25l-3-3 1 3-5 4 3-1q-.716 2.188-1.437 4.375l-.81 2.46C527 846 527 846 526 848h-3l-1 5-3-1v-2l-3-1c1.313-2.5 1.313-2.5 3-5h3v-3l2 1-.562-2.812C523 836 523 836 524 833h-2l.805-3.777c2.306-11.044 4.09-21.996 5.195-33.223h1v8h2v2l2 1 1 3 .438-2.312C535 805 535 805 536 802l-6 1c.278-4.418.575-8.834.875-13.25l.238-3.8.254-3.653.222-3.364c.388-2.77.989-4.554 2.411-6.933"/><path fill="#a67a3b" d="m541 473 4 5-4 1v3l-1 3v3l-1 2 5-3v5l-2 1v-2l-3 3 5-1 1-5c2.6 3.9 2.15 7.474 2 12l-7 2v-2h2l-1-2h-2l1 5 5 1 1-3c.087 3.25.14 6.5.188 9.75l.076 2.79.029 2.694.048 2.476c-.417 2.802-1.503 4.178-3.341 6.29l3-1q.04 3.688.063 7.375l.025 2.117c.025 5.281.025 5.281-1.088 7.508h1v5h-2l-1 4v-2l-2-1h2l-1-2-2 1v-2h-2l1 4h-2l-.684-6.055c-.229-2.019-.229-2.019-1.316-3.945h2v-60h2v-4z"/><path fill="#a77b3d" d="M542 371h3l.184 3.078.254 4.172.119 2.008.127 2.07.138 2.269q.18 2.426.452 4.845c1.127 10.591.595 21.184.288 31.808l-.158 6.05q-.193 7.35-.404 14.7c-1.062-1.812-1.062-1.812-2-4l1-3-3-1 1-4h2v-8h-2v-4l-3 11-2-2-2 3c-1.533-3.065-1.103-6.268-1.062-9.625l.013-2.14q.02-2.618.049-5.235l-3-1h2v-24l2 4h3v2h2l1 3c1.837-3.782 2.158-5.946 1-10-3.278.752-3.278.752-5 4v-9h2v3l2-5h2l-1-3-3 3 1-5h2z"/><path fill="#845b26" d="M484 418h1c.213 20.676-.43 41.334-1 62h-1l-1-7-2 1 2 4-3-1-2 2-2-2v41l3 1v2h-2l-.437 3.563A558 558 0 0 1 474 536h-1q-.234-14.556-.443-29.11-.096-6.765-.205-13.528c-.337-20.827-.473-41.552.648-62.362h1l1 13 1-5 2 3c-1.875 3.875-1.875 3.875-3 5a168 168 0 0 0-.562 6.563l-.254 3.628L474 460l6 2v-2h-3v-2h-2v-7h2l.438-2.937C478 445 478 445 479 444c.04-1.666.043-3.334 0-5h2v-2h3z"/><path fill="#8f642d" d="M489 752h2c2.199 10.21 3.03 20.557 4 30.938 1.355 14.93 1.355 14.93 3.608 29.746.806 4.765 1.165 8.156-1.608 12.316-3.236-20.41-3.236-20.41-3.79-30.664-.069-2.358-.069-2.358-1.21-4.336-.053 1.369-.053 1.369 1 4 .128 2.674.044 5.321 0 8h-1l-1-5-2 5h2l-1 2-3-1 1 5h-2c-.69-4.33-1.353-8.663-2-13l-.355-2.305c-1.01-7.518-.729-15.126-.645-22.695l3 3 1.375-2 1.625-2h2l-1-7h-2z"/><path fill="#7e5421" d="M524 829c1.125 1.688 1.125 1.688 2 4a208 208 0 0 1-2 5c.295 2.734.295 2.734 1 5l-2 1-1-3v3l-4 2c.506 2.169 1 4 2 6h2l1-4h3q.502-1.969 1-3.937l.563-2.215c.475-1.694.475-1.694.437-2.848l-2-1 1-3h2l2-2-1-3 3 1c-.416 6.195-1.603 11.267-4 17h-2l-.5 2.125c-2.468 4.73-6.55 7.895-11.629 9.582-3.27.565-5.642.378-8.746-.77-2.664-2.429-3.243-4.483-4.125-7.937l-1-2c-.04-2-.043-4 0-6h2l-1-1-.937-2c-.9-2.16-.9-2.16-3.063-3l-1 2-3-5 3-2 2 4 2.688.688c4.427 1.754 6.498 4.58 9.312 8.312 2.888-.312 4.537-.537 6.625-2.625 1.758-3.036 3.061-6.121 4.375-9.375h2zm-42-429 3 1c.2 1.331.384 2.665.563 4l.316 2.25c.128 2.912-.205 5.635-.605 8.516-.498 4.063-.645 8.147-.837 12.234l-.13 2.637q-.157 3.18-.307 6.363h-3v2h-2l1 7h-1l-1 6h-2l-1 6h2v2h3v2l-6-2c-.081-2.104-.14-4.208-.187-6.312l-.106-3.551c.293-3.137.293-3.137 1.805-4.93L477 444v-2l-3 3v-30h2l-1-12 3 3 3 1 2 3-2-4h-2c.375-1.937.375-1.937 1-4l2-1z"/><path fill="#825623" d="M486 254h1l-.095 1.856c-.922 21.405 1.89 41.918 4.984 63.042 1.044 7.264 1.822 14.538 2.471 21.847.295 3.248.605 6.149 1.64 9.255l12 1-3 3h-4l2 1v2l-3 1h3l1 4c-2.437-1.187-2.437-1.187-5-3-.812-2.687-.812-2.687-1-5l-1.875-.187C494 353 494 353 492.875 350.938A185 185 0 0 1 490 340l-.687-2.625c-.392-2.976.166-5.421.687-8.375.087-2.674.046-5.324 0-8l-2-1c-1.125-2.062-1.125-2.062-2-4l3-3h-3l-1 2 1-4h2l-1-4h-2l1-9-1 1-3 3 1-9 2 1-.437-3.875-.247-2.18c-.229-2.019-.229-2.019-1.316-3.945l1-3h-2l-1 4c-1.562-1.187-1.562-1.187-3-3 .313-2.687.313-2.687 1-5l-2-1 1.938.5c1.87.54 1.87.54 3.062.5v-6h-3v3h-2v-6l6 1 .438-2.875C484 263 484 263 485 261h-2l-1 5-3-1q1.713-2.754 3.438-5.5l1.933-3.094z"/><path fill="#b28649" d="M510 232h1v6h2l1 2 2-6h1c.91 6.208 1.16 12.25 1.168 18.52l.01 2.97q.007 3.088.007 6.175c.003 3.155.02 6.31.04 9.466q.005 3.006.005 6.014l.022 2.86-.01 2.65.005 2.33C518 287 518 287 516 290h-3v-1l-5-1v-29l5 5c-.187 2.813-.187 2.813-1 5l2 1c1.148-2.296 1.308-4.077 1.563-6.625l.253-2.477L516 259l-2-1 2-5-4-1v2c-2 1.625-2 1.625-4 3l.254-2.887.308-3.8.317-3.762c.107-3.133-.247-5.52-.879-8.551.938-3.312.938-3.312 2-6"/><path fill="#966b33" d="m513 185 .438 1.938c.372 2.037.372 2.037 1.562 3.062l2-4 1 5 3-1v3h-1l-1 5h2c1.757 4.974 3.326 9.742 4 15l-3 1-1-6h-1l-1 16-2-1-2 2v-6l-3 1c0 3.878.532 5.545 2 9a91 91 0 0 1 1 4c-6.75-1.75-6.75-1.75-9-4h2v-8h2v-4l1-1a84 84 0 0 0-.437-5.062l-.31-2.786L510 206h2l-1-1c-1.196-3.348-.685-5.577 0-9-.369-2.232-.369-2.232-1-4h2z"/><path fill="#774d1b" d="M482 471h1c1.65 27.655.667 55.326 0 83l-2 1v-47l-2-1h2v-5l-2-1h3l-2-5-2 2v-6h-3l.563 2.375C476 497 476 497 475 499l2 1 1 3 1 2-2 1c-.652 2.025-.652 2.025-1 4l2 1c0 3 0 3-1.5 4.688L475 517h3v-2h2c.877 2.454 1.16 3.596.188 6.063A154 154 0 0 1 477 526h-2l-1 2v-7h4v-2l-4 1v-45l2-1 1 4 2-2 3 2-4-5h4z"/><path fill="#b28748" d="M536 621h5l.375 1.938L542 625l2 1-.437 1.625c-.658 2.774-1.115 5.56-1.563 8.375l-4 1 1-8h-2l-1 13h2v-3h2l-.937 2.25c-.872 2.257-1.54 4.395-2.063 6.75 3.17-1.62 3.17-1.62 3.512-4.164l.176-2.461.199-2.477L541 637c3.213 3.441 3.33 5.877 3.188 10.5l-.083 3.406L544 654v4l-1 1 1 2a140 140 0 0 1-2 7h2c.492 7.385.492 7.385-2 10.5l-2 1.5-1-3-2 3c-.75-3.663-1.238-6.424 0-10l2 3h2v-2l-3-1 1.063-2.812c1.26-3.168 1.26-3.168-.063-6.188.121-2.262.121-2.262.438-4.687l.308-2.45L540 652c-.897 2.69-1.279 4.889-1.562 7.688l-.254 2.449L538 664h-3q-.254-5.281-.5-10.562l-.145-3.002c-.655-14.101-.655-14.101.207-17.936.582-3.323.02-6.2-.562-9.5h2z"/><path fill="#a17a3c" d="M546 616c1.075 3.477 1.093 6.632 1.038 10.259l-.052 3.847-.072 4.16-.064 4.307q-.069 4.524-.147 9.048-.097 5.728-.178 11.456-.065 4.459-.139 8.917-.034 2.106-.065 4.214c-.112 7.537-.323 15.068-.718 22.596l-.201 3.96C545 702 545 702 543 705v-5l-3-1 3-1-3-7h2c-.095-.831-.19-1.663-.29-2.52-.11-1.086-.22-2.173-.335-3.293l-.352-3.269C541 679 541 679 543 676c.451-2.05.451-2.05.625-4.187L544 668h-2l.879-6.055c.29-2.026.29-2.026-.879-3.945h2l-2-4h2l-.5-2c-.42-2.522-.537-4.652-.5-7.187.284-3.617.284-3.617-1-5.813l-.25 3.375C541 646 541 646 538.938 647.438c-.64.185-1.28.37-1.938.562l1 3-2 1c.44-5.196.883-8.663 4-13h-2v3h-2a701 701 0 0 1-.062-4.812l-.036-2.708C536 632 536 632 537 629h2v-5h1q.079 2.406.125 4.813l.07 2.707C540 634 540 634 538 637l4-1v-6l3 1-.035-2.52-.028-3.293-.035-3.269C545 619 545 619 546 616"/><path fill="#a87d40" d="M490 733h1l1 24h-1v-5h-2l.625 2.75c.388 3.36.18 4.49-1.625 7.25l3-1c.494 7.41.494 7.41-1.937 10.313L487 773l-1 3-2-3-1 5h-1c-2.388-21.607-2.388-21.607-2-31l2 1 2-7 3 1 2-2 1 5z"/><path fill="#996c30" d="m536 431 3 2c.188 3.625.188 3.625 0 7l1-1 3-2c.196 1.603.381 3.208.563 4.813l.316 2.707C544 447 544 447 543 450h2v-6h1v10l-2-2-1 4h-2l-1-3-1 7 1.313-1.5C542 457 542 457 545 457l1 15c-3.623 1.208-4.641.543-8-1l-.148-2.371-.227-3.067c-.07-1.009-.14-2.018-.21-3.058-.138-.826-.274-1.653-.415-2.504l-2-1 1-16-2-1v-3h2z"/><path fill="#b38848" d="M534 772c1.125 3.75 1.125 3.75 0 6 1.392 2.784 3.156 2.979 6 4l-3 7-1-2h-2l-1 2 3 1v4h-2l1 2 3-8h1c0 13.559 0 13.559-1.566 18.95-.496 2.341-.298 4.066.066 6.425.491 3.761.36 6.896-.5 10.625l-5 1c-1.392-4.176.177-6.135 2-10l-5-1 .625-2.25c.635-2.688.635-2.688-.594-4.625-1.206-2.485-1.237-4.133-1.156-6.875l.055-2.422L528 796h1v8h2v2l2 1 1 3 .438-2.312C535 805 535 805 536 802l-6 1c.278-4.418.575-8.834.875-13.25l.238-3.8.254-3.653.222-3.364c.388-2.77.989-4.554 2.411-6.933"/><path fill="#b38948" d="M485 603h1l1 33h-2l-1-2 .473 2.082c1.455 8.055 1.87 15.63-2.473 22.793a99 99 0 0 1-3 4.125c-.869-3.092-1.061-4.923 0-8l1-1c1.442-2.884 1.094-5.417 1.063-8.625l-.028-3.602L481 639h-2v5h-1q-.254-2.374-.5-4.75l-.281-2.672C477 634 477 634 477 630l3-1c1.275-4.334.543-6.824-1-11v-3l-1 3h-2v-5h3l.875-2.437C481 608 481 608 483 607q.257 2.03.5 4.063l.281 2.285c.265 3.207.219 6.434.219 9.652z"/><path fill="#8f632e" d="M483 337h1l.184 2.152.253 2.786.247 2.777c.076 2.247.076 2.247 1.316 3.285v-6h1v7l4-1v2l-2 1v3h-3l-1 2h3l-1 2-2-1 1.5 1.375C488 360 488 360 488 362h-3l1 2 4-1v2l-3 1-1 7-2-4-2 1c-.652 2.025-.652 2.025-1 4h-3c.586-6.152.586-6.152 1-8l2-1v2l2-1v-3l-5-1 .063 3.875c.008 5.087-.473 10.077-1.063 15.125h-1l-.402-2.484-.536-3.266-.527-3.234c-.422-2.38-.907-4.685-1.535-7.016h1l.55-2.082.762-2.73.739-2.708c.978-2.555 1.8-3.817 3.949-5.48h2z"/><path fill="#b08647" d="M475 492h3l1 4 2-1q.57 2.988 1 6l-1 1c.091 1.7.248 3.397.43 5.09.69 7.498.717 14.948.695 22.473l.012 4.095-.004 3.908-.004 3.53C482 544 482 544 481 547h-3l-1 3 1-5h-2c0-3 0-3 1-4l-2-2 1-1c-.41-2.054-.41-2.054-1-4h2l1-2 1-1-3-1h2l-1-2h-2v-2h2c2.12-3.534 2.532-6.944 3-11h-2l1 3-4-1c.875-3.875.875-3.875 2-5a129 129 0 0 0-1-6l3-1-3-2c-.765-3.754-1-7.167-1-11"/><path fill="#7e5725" d="m507 230 3 2-.562 3.125c-.605 3.708-.605 3.708.062 6.688.704 4.488.076 8.704-.5 13.187l3-1v-2l4 1-.562 2.438L515 258l1 1c.723 6.354-.468 11.199-3 17-1.425-4.276-.956-7.698 0-12l-4-1v-2c.207 8.627.215 16.596-2 25h-1q-.037-10.275-.055-20.55-.008-3.494-.02-6.987-.017-5.03-.023-10.06l-.015-3.14c0-5.2.205-10.14 1.113-15.263"/><path fill="#ac8146" d="M487 333c2 1.188 2 1.188 4 3 .125 2.25.125 2.25 0 5 .589 2.354 1.257 4.69 2 7l.875 2.875c.928 2.317.928 2.317 3.25 2.938L499 354l.25 2.25c.89 3.262 2.235 4.56 4.75 6.75-2 .043-4 .04-6 0l-1-1h-2l-1-5 2 1 1-2h-3l-1-1v2h-2l1 1 .688 2.438c1.127 2.879 1.127 2.879 4.437 3.875L500 365l-1 2-9-2v-2l-5 2v-3h3v-2l-3-1v-2l3-1h-3c1.875-3.875 1.875-3.875 3-5l3-1h-6l1-2-2-1a286 286 0 0 1-.187-5.312l-.106-2.989C484 336 484 336 485.512 334.145z"/><path fill="#bf9855" d="M546 408h1v56h-1l-1-14-3 1 .254-1.828.308-2.422.317-2.39c.121-2.365-.183-4.111-.879-6.36l-2 3-2-1 .063-3.437c.353-3.379.353-3.379-1.063-4.563l-1 6-2-2c.09-5.692.09-5.692 1-8l2.477-1.367c2.8-1.433 2.8-1.433 3.449-4.551l.386-3.27.426-3.292L542 413h1c1.125 6.75 1.125 6.75 0 9h2c.286 8.571.286 8.571-2 12l2 1z"/><path fill="#b78e50" d="m485 240 5 2-1 2-3-1v2h2v4l3 2-3 8-2-3-6 9 3-1v-3h2l-2 8h-5l-1 5h2v-3l4-1v10l-4-3v5l-2 1-2-6h-1c.75-7.625.75-7.625 3-11 .167-2.625.167-2.625 0-5l3-1-3-1 1-2c2.563-.625 2.563-.625 5-1l2-6h-2l-1 4c-1.61-3.22-.068-5.682 1-9a152 152 0 0 1 2-5"/><path fill="#7d521f" d="M542 371h3l.184 3.078.254 4.172.119 2.008.127 2.07.138 2.269q.18 2.426.452 4.845c1.127 10.591.595 21.184.288 31.808l-.158 6.05q-.193 7.35-.404 14.7c-1.062-1.812-1.062-1.812-2-4l1-3-3-1 1-4h2v-8h-2v-7h1v-8h-1l-1-7-5 1 .563-2.812c.678-3.201.678-3.201-.563-6.188h2v2h2l1 3c1.837-3.782 2.158-5.946 1-10-3.278.752-3.278.752-5 4v-9h2v3l2-5h2l-1-3-3 3 1-5h2z"/><path fill="#a77b3f" d="M538 230c1 3 1 3 1 6l-1 2h-2v2l3-1v2h2l-.562 1.75c-.478 2.457-.195 3.894.562 6.25h2c-.665 4.389-2.188 7.981-4 12l-2-3-2 2a786 786 0 0 1-1.562-5.875l-.88-3.305C532 248 532 248 533 246l-.937-2.312c-1.105-2.794-1.233-4.72-1.063-7.688l1.938-.812c2.393-1.075 2.393-1.075 3.062-4.188l2 1z"/><path fill="#ab7e41" d="M500 194h3v2l2 1v3l2-2-1 5h2v8h-2l-.586 1.863-.789 2.45-.773 2.425C503 220 503 220 501 223l-3-3 2-5 1 3 3-7c-2.79-1.105-2.79-1.105-5-1h-2v10h-4l1-2.562c1.18-3.333 1.18-3.333.813-6.5.29-6.104 2.835-11.351 5.187-16.938"/><path fill="#996e34" d="M488 298h1q.944 6.906 1.875 13.813l.278 2.062c1.236 9.194 2.387 18.388 3.25 27.626.289 3.006.638 5.62 1.597 8.499l12 1-3 3h-4l2 1v2l-3 1h3l1 4c-2.437-1.187-2.437-1.187-5-3-.812-2.687-.812-2.687-1-5l-1.875-.187C494 353 494 353 492.875 350.938A185 185 0 0 1 490 340l-.687-2.625c-.392-2.976.166-5.421.687-8.375.087-2.674.046-5.324 0-8l-2-1c-1.125-2.062-1.125-2.062-2-4l3-3h-3l-1 2c.375-1.937.375-1.937 1-4l2-1z"/><path fill="#a17637" d="M534 725h4l1 3h-2l2 5h-2v8l4-4c-1.75 7.75-1.75 7.75-4 10l1.188 1.625C539 751 539 751 537.625 754.25L536 757l-1-2h-2v4l3-1 1 2-4 1v5h-1c-.95-11.354-1.11-22.61-1-34h2z"/><path fill="#714818" d="M483 566h1c.66 21.34 1.18 42.648 1 64l-2-1 .035-3.832.027-4.98.026-2.526.01-2.432.016-2.237c-.039-2.204-.039-2.204-1.114-4.993l-2 4-1-3 2-3c.167-3.125.167-3.125 0-6h-2l-1-9h3l2-4-2-1-1-1-2 1-1-4h5l-1-5h-2v-5l1 2h2l-.062-2.875C482 568 482 568 483 566"/><path fill="#7d5422" d="M538 233h2q2.169 6.096 4.272 12.213.719 2.073 1.456 4.14c5.79 16.264 5.79 16.264 4.272 24.647l-2 2 .105-1.863.082-2.45.106-2.425c-.36-2.78-1.28-3.416-3.293-5.262-.187-2.687-.187-2.687 0-5l-2-1-1 3h2c-1.75 3.875-1.75 3.875-4 5-2-1.625-2-1.625-4-4-.25-3.25-.25-3.25 0-6l3 4 4-11h-2l-2-5h2v-3l-5-1v-2l2-1-1-2z"/><path fill="#956930" d="M537 550h2l2 6v-3l4-1c.955 6.325 1.382 12.601 1 19l-1 1h1v7l-3-1v-2h-2l-.875 1.938C539 580 539 580 537 581v-8l1 4h2l.438-3.25c.856-5.71.856-5.71 1.562-7.75l2-1-1-1q-2.007.47-4 1h-3z"/><path fill="#ac8141" d="m535 561 2 3 2-1v2l3-1 1-2 2 1v3h-3l-.184 1.898-.254 2.477c-.08.812-.162 1.624-.246 2.46C541 575 541 575 540 577h-2v3l1.375-2 1.625-2h2v2l3 1-1 4-2-3-.312 2.188c-.756 3.09-1.843 5.23-3.688 7.812h-2v5h-1c-1.053-11.352-1.103-22.61-1-34"/><path fill="#b08546" d="M538 290c1.938.313 1.938.313 4 1 1 3 1 3 1 4l1.5 2.125c1.825 3.498 1.729 5.984 1.5 9.875h-1l-1-5v6l-2 1-2 2v4l-3-1v-5l-1 8h3v2h2l1-4c.25 3.313.25 3.313 0 7-1.875 1.938-1.875 1.938-4 3h-2l.063-2.937c.293-2.938.293-2.938-1.063-4.063-.346-2.428-.608-4.81-.812-7.25l-.233-2.027c-.302-3.705-.196-5.39 2.018-8.438L538 298c.476-2.202.476-2.202.25-4.312z"/><path fill="#94692f" d="M543 300c2 2 2 2 2.266 4.735-.04 8.867-.895 17.385-2.266 26.14l-.578 3.855A1600 1600 0 0 1 541 344c-3.969-3.594-3.969-3.594-4.25-7.25L537 334l2-1-1 6h2l1-7h-2c-1.312-3.937-.243-6.125 1-10h2l-1-3h-2v-2h-3c-.25-7.5-.25-7.5 2-12v9h1v-5h2l1-3v2h2v-4l-3-1h2z"/><path fill="#bb9252" d="m479 692 1 3-1 1c3.29 1.372 3.29 1.372 8 0l-1 16h2l-.527-2.137c-.506-3.064-.37-5.595-.036-8.676l.31-2.957L488 696h1v23l-1-4h-2v3h-2l-.375-3.437L483 711l-2-1 1-2-3-1-1 6h-1c-.058-3.125-.094-6.25-.125-9.375l-.05-2.695-.02-2.578-.032-2.38C477 694 477 694 479 692"/><path fill="#754a19" d="M540 651c1.165 3.495.747 5.516.156 9.063-.3 2.155-.3 2.155.844 4.937-.937 2.688-.937 2.688-2 5l2 1v2c-3 1-3 1-4 1v4l3-3c1.002 5.346.849 9.624 0 15l-2-1c-.625-2.062-.625-2.062-1-4-.349 3.717-.349 3.717 1.5 6.813L540 693l-2 6h-1l-1 5h-1q-.293-6.05-.537-12.103-.087-2.05-.187-4.099c-.437-9.004-.654-18.018 1.724-26.798l2-1-.125-2.812C538 654 538 654 540 651"/><path fill="#815a26" d="M496 832c2 2 2 2 3 4l2.75.75c4.315 1.66 5.63 3.475 8.25 7.25v3c-3.875-.875-3.875-.875-5-2l-1 5 5-2 2 5-3-1v2l3 1c1.34.651 2.676 1.315 4 2l1-4c.125 2.375.125 2.375 0 5l-2 2c-4.138-.301-6.518-.679-10-3-1.125-3-1.125-3-2-6l-1-2c-.04-2-.043-4 0-6h2l-1-1-.937-2c-.9-2.16-.9-2.16-3.063-3l-1 2-3-5z"/><path fill="#a77d3f" d="M538 706h1v5c2.158-.947 2.158-.947 4-3 .102 4.772-.194 9.345-.781 14.082-.257 1.927-.257 1.927-.219 3.918l3 1-1 13h-1l-1-7h-3c-2-4.75-2-4.75-2-7l-3-1-1 4v-14h1l2 7-.562-2.437L535 717l1-1c.207-1.495.367-2.997.5-4.5.389-4.389.389-4.389 1.5-5.5"/><path fill="#996f36" d="M478 362h5c1.125 3.75 1.125 3.75 0 6l-3-2 .125 2.313C480 371 480 371 478 374h4c.37 5.415.37 5.415-1.5 8.375L479 384h2l1-2v5l-2 1-1 2-1-1c-.25 2.416-.25 2.416 0 5l3 2c-1 2-1 2-3 4-2.555-1.896-2.985-2.913-3.547-6.11-.679-12.17-.679-12.17.547-17.89h1z"/><path fill="#825826" d="m507 191 1 2h-2l1 2 4-1c.687 2.49 1 4.379 1 7h1v8l-2-1 1-2h-2c.523 2.763 1.109 5.326 2 8l-1 2h2l-1 2-2-1v4h-2v8h-1c-1.314-9.196-1.077-16.95 1-26h-2v-3l-3 3 1-6-3-1v-3z"/><path fill="#ad8746" d="M484 418h1c.213 20.676-.43 41.334-1 62h-1v-38c-1.289 1.06-1.289 1.06-1.062 3.5L482 448v10l-4-2-1 2h-2v-7h2l.438-2.937C478 445 478 445 479 444c.04-1.666.043-3.334 0-5h2v-2h3z"/><path fill="#815722" d="M543 639h2q.255 9.6.482 19.202.08 3.255.166 6.51c.927 34.926.927 34.926-2.648 40.288v-5l-3-1 3-1-3-7h2c-.095-.831-.19-1.663-.29-2.52-.11-1.086-.22-2.173-.335-3.293l-.352-3.269C541 679 541 679 543 676c.451-2.05.451-2.05.625-4.187L544 668h-2l.879-6.055c.29-2.026.29-2.026-.879-3.945h2l-2-4h2l-.5-1.875c-.7-4.38-.577-8.7-.5-13.125"/><path fill="#a07438" d="M475 600c3.161 1.37 3.993 1.99 6 5l-2 1-1-1-1 6h2v2h-3v5h2l1-4 2 4h-2l1.563 2.625c1.605 3.769 1.456 5.484.437 9.375l-3 1v10h-2c-2.48-13.75-1.84-27.109-1-41"/><path fill="#6c4517" d="M482 471h1c1.65 27.655.667 55.326 0 83l-2 1v-47l-2-1h2v-5l-2-1h3l-.219-2.047-.281-2.703-.281-2.672C481 491 481 491 481 487l-3-1-1-3h2v2h2l-1-7h2l-4-5h4z"/><path fill="#956a30" d="M526 213h1l.813 3.313c1.28 3.996 1.28 3.996 4.187 6.687l2 1-1 2v4l2-6h2l1 8h-2c-2.332 1.497-2.332 1.497-4 4 .099 3.443.099 3.443 1 7l.563 3.438L534 249c-4.635-3.09-5.523-7.776-7-13-.25-3.687-.25-3.687 0-6h2l-.91-2.195c-3.777-9.603-3.777-9.603-2.09-14.805"/><path fill="#a7793a" d="m540 368 3 1v6h-2v4l2-3 1 4h-2l1 3h-2l-1 3-1-2 1-2h-2l1 5 5-1 1 7h-2l-1 5-1-4h-2v-2l-3-1c-1.369-4.517-.524-7.598 1-12l1-1h-3v-5l4-1z"/><path fill="#b6894a" d="M536 621h5l.375 1.938L542 625l2 1-.437 1.625c-.658 2.774-1.115 5.56-1.563 8.375l-4 1 1-8h-2l-1 13h2v-3h2l-.937 2.313c-1.684 4.257-2.31 7.811-2.625 12.375l-.254 3.574L536 660h2l-1 4h-2q-.254-5.281-.5-10.562l-.145-3.002c-.655-14.101-.655-14.101.207-17.936.582-3.323.02-6.2-.562-9.5h2z"/><path fill="#7f5420" d="m541 473 4 5-4 1v3l-1 3v3l-1 2 5-3v5l-2 1v-2l-3 3 5-1 1-5c2.6 3.9 2.15 7.474 2 12l-7 2v-2h2l-1-2h-2l1 10-2 1-1-31h2v-4z"/><path fill="#c69e58" d="M473 431h1l1 13 1-5 2 3c-1.875 3.875-1.875 3.875-3 5a168 168 0 0 0-.562 6.563l-.254 3.628L474 460l2 1h-2l1 57 3 1v2h-2l-.437 3.563A558 558 0 0 1 474 536h-1q-.234-14.556-.443-29.11-.096-6.765-.205-13.528c-.337-20.827-.473-41.552.648-62.362"/><path fill="#7b521f" d="m485 236 2 3h-2l-.375 2.563c-.653 3.59-1.577 6.945-2.625 10.437l1-2h2l-2 7-5 1 3 1c-1 3-1 3-3 4a69 69 0 0 0-1 4 206 206 0 0 1-2 5h-2c-.63-6.922 1.62-12.566 4-19l1.273-3.523c3.599-9.705 3.599-9.705 6.727-13.477"/><path fill="#a67b3b" d="M541 338h1l-.035 3.867-.028 5.008-.025 2.55-.01 2.442-.016 2.254c-.004 1.97-.004 1.97 1.114 3.879h-4l-1-3h2l-1-3-2 5c-3.716.2-4.772.152-8-2l-1 2h-2l-1-4c2.547-1.274 3.428-.802 6.125-.062 1.087.291 1.087.291 2.195.59L535 354l3-6h-2l-1 2 1 1-1 2-5-1 2-10h4v5h2l-1-7 3 1z"/><path fill="#ad8443" d="M475 633h1v8h2l1-2h2c1.29 2.581 1.133 4.494 1.125 7.375l.008 2.898c-.117 2.408-.446 4.427-1.133 6.727h-2l-.375 2.375C478 661 478 661 476 663c-1.728-5.185-1.428-10.694-1.625-16.125l-.156-3.691-.133-3.504-.124-3.227C474 634 474 634 475 633"/><path fill="#8c5f27" d="M477 527c1.063 1.875 1.063 1.875 2 4l-1 2v3l1 1-2 3 1 2h-2l1 2 3-1v2l-2 1c-.731 2.21-.731 2.21-1.187 4.813l-.543 2.644c-.271 2.554.05 4.105.73 6.543a90 90 0 0 1-1 6h2v3l-4-1c-.87-6.725-1.153-13.285-1.125-20.062l-.012-2.854c.008-5.439.081-10.738 1.137-16.084z"/><path fill="#a17438" d="M475 274c1.746 3.216 2.204 5.32 2 9l4 1 1-3h2c1.153 4.943 1.54 9.957 2 15l-5-3 1-5h-2c-.074 3.343-.065 5.804 1 9v3l-3 1c-3.519-3.519-2.959-13.842-3.129-18.598.003-2.803.037-5.6.129-8.402"/><path fill="#7a501f" d="m486 780 2 1-1 3h-2l1 2h2v4l1.938.313L492 791c1.283 3.85 1.066 6.947 1 11h-1l-1-5-2 5h2l-1 2-3-1 1 5h-2c-3.98-22.03-3.98-22.03 0-28"/><path fill="#b08341" d="m536 431 3 2c.188 3.625.188 3.625 0 7l1-1 3-2c.659 3.359 1.141 6.573 1 10-2.375 3.125-2.375 3.125-5 5h-1l-1 8-2-1 1-16-2-1v-3h2z"/><path fill="#79501f" d="m491 353 3 1v2h3l-1 3h-1v3l4-2v2h7l-2-5 5-1 2 5h-2v2l10-3c-1.684-3.895-1.684-3.895-4-6 2.962.613 4.38 1.254 7 3l2 1c-3.115 3.613-6.397 5.796-11 7-3.839.212-7.607-.03-11.437-.312l-3.084-.186q-3.742-.228-7.479-.502l3-1v-2l-2-1a113 113 0 0 1-3-5h2v2h2z"/><path fill="#885b23" d="M537 281c1.765 3.088 2 4.233 2 8l4 1-2-4 6 2q.079 2.438.125 4.875l.07 2.742C547 298 547 298 545 300l-3-4-2 1 2-4-2-2-1 1 .063 2.875C539 298 539 298 537 301c-.39 1.99-.732 3.99-1 6h-1c-.369-17.856-.369-17.856 2-26"/><path fill="#835823" d="M534 766h2c1.231 3.694.644 6.206 0 10h-2v-3c-1.04 3.118-1.296 5.708-1.535 8.98l-.264 3.526-.264 3.682-.275 3.716q-.336 4.548-.662 9.096l2-2v2h3l-1 10c-3-2-3-2-3.687-5.125L531 804h-2c-.092-7.903-.106-15.793.313-23.687l.175-3.325c.564-3.291 1.682-5.227 3.512-7.988z"/><path fill="#7f531f" d="M517 176h2c1.125 6.625 1.125 6.625 0 10l1 2h3l-1 3h-4l-1-3-2 5-2-4-1 3h-2l-1 2 1-9-1 4h-2l1-7 3-1-1-3h4l1 4h2z"/><path fill="#7f5422" d="M483 337h1l.184 2.152.253 2.786.247 2.777c.076 2.247.076 2.247 1.316 3.285v-6h1v7l4-1v2l-2 1v3h-3l-1 2h3l-1 2-2-1 1.5 1.375C488 360 488 360 488 362h-3c-2.108-2.888-3-4.385-3-8l-2 1v5l-3 1-1 7-3 1a289 289 0 0 1 2.375-9.062c.235-.858.47-1.715.71-2.598.966-2.47 1.837-3.715 3.915-5.34h2z"/><path fill="#ab8248" d="M529 357h2v2c2.621 0 4.51-.313 7-1v2l3-1v2l4 1-1 4-1-2-3 3-2-1-1 2h-2l-1 15h-1l-1-17-8-1 2-1 1-2v2l6-1-1-3h-2z"/><path fill="#ac8144" d="M492 788c1.698 2.997 2.322 5.393 2.598 8.816l.24 2.819.224 2.928.237 2.845q.236 2.842.463 5.686c.38 4.638.808 9.272 1.238 13.906l-2 1-2-7-3 1q.214-2.376.438-4.75c.08-.882.162-1.763.246-2.672.316-2.578.316-2.578.878-4.765.538-2.228.13-3.658-.562-5.813h-2c1.875-5.75 1.875-5.75 3-8-.833-2.167-.833-2.167-3-3l3-1z"/><path fill="#7e5521" d="M479 724h1l.684 6.055c.229 2.019.229 2.019 1.316 3.945q.53 1.993 1 4l4 1a75.6 75.6 0 0 0 1-14l2 1v19l-2-1v-2l-2 2v-3h-2l-2 9-1-3h-2z"/><path fill="#ae8247" d="M516 186c2 2 2 2 2 5l3-1v3h-1l-1 5h2c1.757 4.974 3.326 9.742 4 15l-3 1-1-6h-1l-1 5h-2l1 4-3-1v-12h3l1 2v-7h-2l-.437-2.812c-.484-3.195-.484-3.195-1.563-6.188.438-2.187.438-2.187 1-4"/><path fill="#a3783f" d="m508 259 5 5c-.187 2.813-.187 2.813-1 5l2 1v2l2 1-.219 1.863-.281 2.45-.281 2.425c-.267 2.381-.267 2.381-.219 5.262h-3v-6h-2v2h-2z"/><path fill="#885e29" d="M540 774h1c.87 4.977.987 9.37.512 14.395l-.192 2.04q-.203 2.115-.416 4.228c-.218 2.16-.416 4.321-.613 6.483q-.2 2.063-.404 4.124l-.369 3.768C539 812 539 812 537 814c-1.268-8.45-1.268-8.45 0-12 .691-2.535 1-4.33 1-7v-3l-3 5-2-1 1-2h2c-.348-1.975-.348-1.975-1-4l-2-1v-5l1 3 4-1 1-4-2-1c1.875-5.875 1.875-5.875 3-7"/><path fill="#8f622c" d="M513 185c.826 2.892 1 4.887 1 8l3-1v7h2l1 7-2 1-2-3-1 13c-2.147-4.294-2.125-5.648-1.625-10.25l.336-3.266L514 201h-2l-1 4c-1.126-3.377-.688-5.562 0-9-.369-2.232-.369-2.232-1-4h2z"/><path fill="#9e7337" d="M545 501h1c.058 3.292.094 6.583.125 9.875.017.937.034 1.874.05 2.84l.02 2.715.032 2.507C546 521 546 521 544 523l-2-5-2 1a109 109 0 0 0-1 7h-1v-16l2 1-1 2h2l1-9-2-1 5 1z"/><path fill="#ba9251" d="m480 556 2 1c1.262 4.475 1.262 4.475 0 7l3 1q.252 6.298.482 12.598.08 2.14.166 4.283.122 3.082.23 6.166l.144 3.745c-.018 2.667-.207 4.694-1.022 7.208l2 1-3 3-1-35-1 6h-2l-2-3-3-1-2 2v-5l6 1 2-8h-2l-1 2c.875-4.875.875-4.875 2-6"/><path fill="#714617" d="m477 676 3 6 3 1-1.937.75c-2.25 1.066-2.25 1.066-2.813 3.375L478 689l6 1-2 4 1-1 5-1v20h-2v-15h-4l-1 2-1-2-2 1v-3h2l-1-2-2 1z"/><path fill="#8f642a" d="m543 596 2 1v9l2 1-4-1-1 2h2v2h-2l1 5-4 1 1-3-3-1c-.582-9.888-.582-9.888 3-14h3z"/><path fill="#734918" d="M535 398h1v7l4 1 1-5c1.125 3.75 1.125 3.75 0 6h-2v2l2 1v2l-4 1c.485 4.646.485 4.646 2 9l-1 3h2l-1 4-1-2-2 3c-1.461-2.922-1.111-5.499-1.098-8.758l.005-2.01c.005-2.118.018-4.238.03-6.357q.009-2.154.014-4.309.017-5.283.049-10.566"/><path fill="#c29758" d="M516 259h1q.289 5.898.537 11.798c.087 1.995.185 3.99.283 5.985l.157 3.799.158 3.507C518 287 518 287 516 290h-3v-1l-5-1v-7h2v-2h2l2 5v-2q.207-2.157.438-4.312c.637-6.22 1.103-12.452 1.562-18.688"/><path fill="#885d2a" d="m512 252 4 1-.562 2.438L515 258l1 1c.723 6.354-.468 11.199-3 17-1.425-4.276-.956-7.698 0-12l-4-1v-2l-.625-1.937C508 257 508 257 510 254h2z"/><path fill="#845a26" d="M492 782c2.995 3.346 3.586 6.08 4.168 10.488l.518 3.83.25 1.99c.25 1.99.519 3.976.789 5.963 2.16 16.403 2.16 16.403-.725 20.729-3.236-20.41-3.236-20.41-3.79-30.664-.069-2.358-.069-2.358-1.21-4.336h-2z"/><path fill="#9e7236" d="M525 833h2v5l3-1q-.716 2.188-1.437 4.375l-.81 2.46C527 846 527 846 526 848h-3l-1 5-3-1v-2l-3-1c1.313-2.5 1.313-2.5 3-5h3v-3l2 1-.625-2.812C523 836 523 836 525 833"/><path fill="#9d743a" d="M528 796h1v8h2v2l2 1c.625 2.063.625 2.063 1 4l2-1c2.03 3.315 2.127 5.432 1.625 9.25l-.336 2.703L537 824l-5 1c-1.392-4.176.177-6.135 2-10l-5-1 .625-2.25c.635-2.688.635-2.688-.594-4.625-1.206-2.485-1.237-4.133-1.156-6.875l.055-2.422z"/><path fill="#b2884a" d="M485 719c2 1 2 1 3 2l2-2v7h-1l.07 2.082.055 2.73.07 2.708C489 736 489 736 487 739l-4-1-1 2-1-6 1 3c1.206-.983 1.206-.983 1.098-2.848l-.036-2.215L483 728l1 2h2l-2-3h-2l.938-2.312A111 111 0 0 0 485 719"/><path fill="#875b25" d="M486 254h1v26l-2 1c-2.542-3.813-3.12-5.475-3-10h-3v3h-2v-6l6 1 .438-2.875C484 263 484 263 485 261h-2l-1 5-3-1q1.713-2.754 3.438-5.5l1.933-3.094z"/><path fill="#b38a4e" d="m513.723 351.902 3.34.036 3.347.027L523 352l1 2-1 1 1 2-3 1-3-2 2 4c-6.5 3-6.5 3-11 3v-7l4-1-3-2c1-1 1-1 3.723-1.098"/><path fill="#b68b4e" d="m543 257 3 1v6h2c.904 3.837 1.106 7.375 1.063 11.313l-.028 3.238L549 281l-4 1v-2l-3-1 4-1-1-2-2 1-1-9 3-1v3l2-4c-3.61.656-3.61.656-7 2a56.5 56.5 0 0 1 4-7l-4 2c1.875-4.875 1.875-4.875 3-6"/><path fill="#b78c4f" d="m485 240 5 2-1 2-3-1v2h2v4l3 2-3 8-2-3-1.187 2c-1.813 2-1.813 2-4.5 2.25L478 260v-3l5-1 2-6h-2l-1 4c-1.61-3.22-.068-5.682 1-9a152 152 0 0 1 2-5"/><path fill="#c8a060" d="M478 408h2c.625 1.813.625 1.813 1 4l-2 3h3l1 5-3 1 2 1-1 2 2 3-2 4v-3h-2c1.074 2.915 1.778 4.778 4 7l-4 1-.875-2.437c-.858-2.696-.858-2.696-3.125-3.563l1-5h2l-.562-2.937L477 419l1-1c.072-1.686.084-3.375.063-5.062l-.028-2.786z"/><path fill="#633c11" d="M517 164c-.31.68-.619 1.361-.937 2.063-1.197 3.307-1.653 6.452-2.063 9.937l-1-2c-2.025-.652-2.025-.652-4-1v3h-3c-.618-8.185-.618-8.185 1.563-11.062 3.233-1.244 6.006-1.136 9.437-.938"/><path fill="#966c32" d="M495 235c1.294 3.59.715 5.63-.687 9.125l-1.012 2.633c-1.48 2.551-2.58 3.223-5.301 4.242v-2l-3-1 3-3h-2v2l-2-1 2-4 1 2 2-1-3-3h3l1-4 5 1z"/><path fill="#81541e" d="M534 725h4l1 3h-2l2 5h-2v8l4-4-2 8-4 1c-2.19-3.53-2.24-6.395-2.187-10.5l.019-3.406c.138-2.55.425-4.668 1.168-7.094"/><path fill="#90632b" d="m497 222 2 4h-2l1.125 2.188c.875 2.812.875 2.812.313 5.5-1.78 2.864-3.255 3.39-6.438 4.312v-2h-2l-2 4c.967-6.384 3.046-11.73 8-16l-2-1z"/><path fill="#ab7f41" d="M498 837c3 1 3 1 4 3l2 1-1 2h-2l.938 3.688c.774 3.09 1.475 6.18 2.062 9.312-4.427-3.921-7.9-8.412-10-14 .367-2.277.367-2.277 1-4l3 1z"/><path fill="#c79d5a" d="m478 633 1.313 2 1.687 2h3c2.358 4.716 1.596 10.903 1 16-1.574 3.7-3.543 6.827-6 10-.869-3.092-1.061-4.923 0-8l1-1c1.442-2.884 1.094-5.417 1.063-8.625l-.028-3.602L481 639h-2v5h-1q-.29-2.468-.562-4.937l-.317-2.778L477 634z"/><path fill="#be9454" d="M541 680h1v13q.476 2.505 1 5l-3 2c-1.205 2.552-1.205 2.552-2 5h-2c-.293-6.055-.293-6.055 0-8l3-2c-1.22-2.69-1.22-2.69-3-5-.141-2.67-.042-5.324 0-8l2-1-.125 2.813c-.146 3.345-.146 3.345 2.125 6.187l-.035-1.934-.028-2.504-.035-2.496C540 681 540 681 541 680"/><path fill="#734a1b" d="M484 633c6.239 9.358 2.763 27.203 2 38l-2-1v-10l-3 3-2 2c.408-3.368 1.05-5.071 3.063-7.875 3.39-5.54 2.37-12.892 1.937-19.125-.325-1.335-.654-2.67-1-4z"/><path fill="#b4894b" d="M475 572h4v5h2l1-2v7l-4 1 1 2 3-2c1.23 5.415 1.23 5.415.063 8.375L481 593v-2l-1.937-.312L477 590c-1.283-3.85-1.066-6.947-1-11h2v-2l-2-1 1-2h-2z"/><path fill="#b18746" d="M534 388c5 6.667 5 6.667 5 11h4v8l-2-2-1 1c-2.062-.437-2.062-.437-4-1l-1 8-3-1h2z"/><path fill="#956931" d="m501 207 1 3 2 1c-.312 2.875-.312 2.875-1 6l-3 2v-3l-1 6h2l-1 6h-3v-2h2l-2.062-2.125C495 221 495 221 495.188 218l.812-3 .563-2.875L497 210l4-1z"/><path fill="#9a6f35" d="M541 756h1v23l-2-3-1 2-2 3-3-1-1-3 1.938-1.687c2.328-2.611 2.566-3.923 3.062-7.313l1-2.375c1.212-3.181 1.603-6.254 2-9.625"/><path fill="#b48a4d" d="M480 288h2l-1 5h2v8l1-4 3 1c.25 5.625.25 5.625-2 9h-2l-1 2-2-5-1 5h-1c-.26-7.782-.26-7.782 2-12a93 93 0 0 0-1-4c.438-2.75.438-2.75 1-5"/><path fill="#b28848" d="m504 842 1.313 1.938c1.6 2.33 1.6 2.33 4.687 3.062l1-2 4 2h-4v3l7 2v6h-3v-1h-6l1-2-2-1v-2l2-1-1-2h-4l-1 2z"/><path fill="#774c1a" d="m474 433 1 4 3 1c.73 1.848.73 1.848 1.188 4.063l.48 2.222L480 446h-1l-1 6h-2l-1 6h2v2h3v2l-6-2c-.081-2.104-.14-4.208-.187-6.312l-.106-3.551c.293-3.137.293-3.137 1.805-4.93L477 444v-2l-3 3z"/><path fill="#ad8142" d="m486 758 3 1-1 3 3-1c.494 7.41.494 7.41-1.937 10.313L487 773l-1 3-2-3-1 5h-1v-9h2v-4h2v2h2l-1.5-1.375C485 764 485 764 485 762h2z"/><path fill="#a3783c" d="m479 692 1 3-1 1c3.29 1.097 4.713.8 8 0v5l-2.437.813L482 703l-1 3h-2l-1 7h-1c-.058-3.125-.094-6.25-.125-9.375l-.05-2.695-.02-2.578-.032-2.38C477 694 477 694 479 692"/><path fill="#8a632e" d="m530 830 3 1c-.416 6.195-1.603 11.267-4 17h-2l-.812 2.375C525 853 525 853 522 855l1-7h3q.502-1.969 1-3.937l.563-2.215c.475-1.694.475-1.694.437-2.848l-2-1 1-3h2l2-2z"/><path fill="#9a6f34" d="m476 666 3 1-2 1 3 7c.053-1.369.053-1.369-1-4h5v10h-2v-2h-4l-1 15h-1z"/><path fill="#be9353" d="M481 437c1.789 6.709 1 14.08 1 21l-4-2-1 2h-2v-7h2l.438-2.937C478 445 478 445 479 444c.04-1.666.043-3.334 0-5h2z"/><path fill="#865a24" d="M542 317h1c.25 9.23-.31 17.92-2 27-3.969-3.594-3.969-3.594-4.25-7.25L537 334l2-1-1 6h2l1-7h-2c-1.312-3.937-.243-6.125 1-10h2z"/><path fill="#ab7f42" d="m508 180 2 1-2 3a75 75 0 0 0-1 5h2v-5l2 1c.1 4.536-.57 7.71-2 12v-2h-2l-1 2v-4h-5l3-10h2z"/><path fill="#865922" d="M539 624h1q.079 2.406.125 4.813l.07 2.707C540 634 540 634 538 637l3-1v10l-4 2 1 3-2 1c.44-5.196.883-8.663 4-13h-2v3h-2a701 701 0 0 1-.062-4.812l-.036-2.708C536 632 536 632 537 629h2z"/><path fill="#b48848" d="M482 607c1.72 2.97 2.22 4.915 1.977 8.328l-.157 2.422-.195 2.5-.172 2.547A786 786 0 0 1 483 629h-2l.125-2.125c-.142-3.262-1.057-5.804-2.125-8.875v-3l-1 3h-2v-5h3l.938-2.437C481 608 481 608 482 607"/><path fill="#7a4f1d" d="M544 563h2c.098 6.152.098 6.152 0 8l-1 1h1v7l-3-1v-2h-2l-.875 1.938C539 580 539 580 537 581v-8l1 4h2l.438-3.25c.856-5.71.856-5.71 1.562-7.75l2-1z"/><path fill="#c59b58" d="m540 368 3 1v6h-2v4l2-3 1 4h-2l1 3h-2l-1 3-.812-3.437L538 379l-3-1v-5l4-1z"/><path fill="#c09657" d="m534 322 1.375 2 1.625 2h2v6h2l-1 7h-2v-5l-1 6h-3l.063-3.75c.008-2.305-.034-4.142-.625-6.375-.644-2.758.002-5.135.562-7.875"/><path fill="#835925" d="M540 651c1.165 3.495.747 5.516.156 9.063-.3 2.155-.3 2.155.844 4.937-.937 2.688-.937 2.688-2 5l2 1v2l-3 1-1-2-2 5c-1.213-3.638-.769-5.851-.187-9.625.17-1.168.342-2.336.519-3.54L536 661l2-1-.125-2.812C538 654 538 654 540 651"/><path fill="#c39b5d" d="M486 366h1v9l-3-1 .625 2.938c.687 4.59-.413 8.643-1.625 13.062l-4-2 1-2 2 1-1-3h-2l1-2.5c1.168-4.087 1.146-7.27 1-11.5l3-1 1 2z"/><path fill="#724919" d="M543 580c2 1 2 1 3 2a99 99 0 0 1 .098 5.348l-.01 3.271-.025 3.443-.014 3.456A2762 2762 0 0 1 546 606h-1l-1-9h-2l.563-2.812c.678-3.201.678-3.201-.563-6.188l-1 2h-2z"/><path fill="#ab7f43" d="M525 206c3.76 2.506 3.726 3.82 4.688 8.125.25 1.096.502 2.191.761 3.32L531 220l4-1c1.369 4.517.47 7.588-1 12l-3-2 2-5-3-1c-3.183-3.237-3.614-6.336-4.187-10.75-.16-1.17-.318-2.34-.481-3.547z"/><path fill="#c09755" d="M537 733h2l1 2 2-1c.136 8.166.136 8.166-1 12v3l-4 2v-3l-2-1 1.938-1.687c2.259-2.534 2.693-3.996 3.062-7.313l-3 7h-1q-.04-2.437-.062-4.875l-.036-2.742C536 735 536 735 537 733"/><path fill="#754816" d="m541 473 4 5-4 1v3l-1 3v3l-1 2 5-3v5l-2 1v-2l-3 3 2 1h-3l-1-17h2v-4z"/><path fill="#c19553" d="m538 298 1 4h-2l1 3a97 97 0 0 1-.937 6.188l-.59 3.292L536 317h3v2h2l1-4c.25 3.313.25 3.313 0 7-1.875 1.938-1.875 1.938-4 3h-2l.063-2.937c.293-2.938.293-2.938-1.063-4.063-.346-2.428-.608-4.81-.812-7.25l-.233-2.027c-.31-3.796-.105-5.499 2.033-8.707z"/><path fill="#9a6e34" d="M523 189c2.662 2.662 2.718 4.268 3 8-.937 3.875-.937 3.875-2 7l-3-1v-5h-2c-.25-2.25-.25-2.25 0-5 2-2.312 2-2.312 4-4"/><path fill="#744b19" d="M542 605c1.938.563 1.938.563 4 2 1.253 5.526.825 10.411.063 15.938l-.303 2.36A805 805 0 0 1 545 631h-2c-.553-2.076-1-3.844-1-6a140 140 0 0 0-1-4h3l-.437-3.812-.247-2.145c-.288-2.237-.288-2.237-1.316-5.043h2v-2h-2z"/><path fill="#ba9153" d="M475 591h3c.544 3.058 1 5.888 1 9h2l1-4c.476 6.693.4 10.775-4 16l-2-1 2-6-2-1 4 1-1-2-3-1c0-8 0-8 1-10z"/><path fill="#b58b4a" d="M546 480h1c.108 1.936.186 3.874.25 5.813l.14 3.269C547 492 547 492 545.126 493.906 543 495 543 495 540.75 494.687L539 494l1-3 3 1v-4l-4 2c0-3.104.017-5.148 1-8l2-1-1 4h2v-2h2z"/><path fill="#875922" d="m507 191 1 2h-2l1 2 4-1c.934 3.01 1.044 3.867 0 7-2.562 1.188-2.562 1.188-5 2v-3l-3 3 1-6-3-1v-3z"/><path fill="#8c5e25" d="m536 431 3 2c.188 3.625.188 3.625 0 7l1-1 3-2 1 10-3 1v-4h-2l-2 3z"/><path fill="#865a25" d="M527 805h2c2 3 2 3 1.688 5.063C530 812 530 812 529 814h2l1-2v3h2l-2 7-1-2-3 1v-2h3v-2l-4 1z"/><path fill="#7f5421" d="M482 312c1 3 1 3 1 7l2-1-1 5 1-1 3-1-1 5-3 1-1 7h-2l-1-20h2z"/><path fill="#aa8041" d="M526 813h1v5l4-1v2h-3l3 1v2h-2c-1.884 3.265-2.493 6.281-3 10l-4 1z"/><path fill="#bb944e" d="M535 631h1v11h2v-3h2l-.937 2.313c-1.684 4.257-2.31 7.811-2.625 12.375l-.254 3.574L536 660h2l-1 4h-2q-.254-5.281-.5-10.562l-.145-3.002c-.707-15.211-.707-15.211.645-19.436"/><path fill="#a57a3b" d="M530 337h1v14l2 1 1-5 4 1c-.812 2.938-.812 2.938-2 6-3 1-3 1-5.187.063L529 353v-2h-13v-1l12-1z"/><path fill="#8b5e28" d="M526 213h1l.813 3.313c1.28 3.996 1.28 3.996 4.187 6.687l2 1-1 2c-.976 2.928-1.082 4.956-1 8l-1-3h-2l-1 3-1-4h2l-.91-2.195c-3.777-9.603-3.777-9.603-2.09-14.805"/><path fill="#956b32" d="M478 714c1.563 1.188 1.563 1.188 3 3-.312 2.688-.312 2.688-1 5h2l-1 7h2l1 8h-2l-2-4-2 1a922 922 0 0 1-.562-6.625l-.317-3.727c-.113-3.404.189-6.324.879-9.648"/><path fill="#815520" d="M541 519h2v6l3-1c.08 2.459.14 4.915.188 7.375l.076 2.117c.029 2.031.029 2.031-.264 5.508l-3 2 1-3c.067-1.394.085-2.792.063-4.187L544 530l-1 1-2 2v-2l-2-1c.6-3.683 1.248-7.345 2-11"/><path fill="#794f1e" d="M508 351c-1.25 1.5-1.25 1.5-3 3h-4l2 1v2l-3 1h3l1 4c-2.437-1.187-2.437-1.187-5-3-.812-2.687-.812-2.687-1-5l-4-1v-2c4.793-1.392 9.151-.687 14 0"/><path fill="#bb9154" d="M485 307h2c.625 1.875.625 1.875 1 4l-2 2h3c-1 2-1 2-3 5l4 2-1.937.875c-2.215.953-2.215.953-3.063 3.125l-3-1h2v-4l-2 2c.412-4.97.796-9.445 3-14"/><path fill="#754a19" d="m539 705 2 2 3-1c.058 3.292.094 6.583.125 9.875.017.937.034 1.874.05 2.84l.02 2.715.032 2.507C544 726 544 726 542 728v-2l-2-1 .438-1.875c.783-4.35 1.16-8.725 1.562-13.125l-1 4v-3h-2z"/><path fill="#5f3a11" d="M543 639h2v36h-1v-7h-2l.879-6.055c.29-2.026.29-2.026-.879-3.945h2l-2-4h2l-.5-1.875c-.7-4.38-.577-8.7-.5-13.125"/><path fill="#734817" d="M475 600c4 2 4 2 6 5l-2 1-1-1-1 6h2v2h-3v5h2l1-4 2 4h-2l-1 2-2-1-1 3z"/><path fill="#9b6e32" d="M542 422h3c.286 8.571.286 8.571-2 12l2 1-2 4h-3c-.218-6.002.494-11.192 2-17"/><path fill="#c39657" d="M510 232h1v6h2l1 2 2-6h1l-1 9-3 1-2-1 1 3c-1.437 2.188-1.437 2.188-3 4l.063-3.187c.08-3.635.08-3.635-.688-6.375-.499-3.241.436-5.43 1.625-8.438"/><path fill="#c49853" d="M492 788c2.314 3.697 2.395 7.142 2.625 11.438l.227 3.933c.118 2.884.181 5.744.148 8.629l-2-1c-.633-2.066-.633-2.066-1.125-4.562l-.508-2.504L491 802h-2c1.875-5.75 1.875-5.75 3-8-.833-2.167-.833-2.167-3-3l3-1z"/><path fill="#825523" d="M515 218c1 2 1 2 1 5l2-1c1.507 3.013 1.178 5.683 1 9l-2 2v-6l-1 4-3-1c-.908-2.477-1-4.336-1-7a93 93 0 0 0-1-4z"/><path fill="#754b19" d="M484 374h2c1.04 3.122.992 4.67.66 7.887l-.283 2.842-.315 2.959-.302 2.994q-.372 3.66-.76 7.318h-2q-.04-3.375-.062-6.75l-.036-3.797c.079-2.767.372-4.831 1.098-7.453a140 140 0 0 0-1-4z"/><path fill="#af8445" d="M537 275h1v5l3 1v3c2.397.68 2.397.68 5 1l2-2v7l-2-2c-2.069-.643-2.069-.643-4-1l1 1 2 2c-.375 2.125-.375 2.125-1 4l-.812-1.937c-1.075-2.394-1.075-2.394-4.188-3.063-1.55-4.81-2.254-8.92-2-14"/><path fill="#936731" d="m515 226 3 1c1.567 5.784 1.567 5.784-.047 9.246A89 89 0 0 1 514 242l-1-4h-2l-1-7 1.875.563c2.167.674 2.167.674 4.125-.563z"/><path fill="#9e7339" d="M506 204c2 3 2 3 2 7h-2l-.586 1.863-.789 2.45-.773 2.425C503 220 503 220 501 223l-3-3 2-5 1 3c2.024-3.035 2.321-4.194 2.625-7.687l.227-2.45L504 206h2z"/><path fill="#ac8345" d="M544 451c4.118 6.177 3.116 14.785 3 22h-1l-1-16h-3l-1 3h-2c-.93-2.606-1.15-3.642-.062-6.25L540 452l1 4z"/><path fill="#bf9453" d="m537 340 3 1-1 9-1-2h-2l-1 2 1 1-1 2-5-1 2-10h4v5h2z"/><path fill="#875b26" d="M505 170h1v6h3l-1-4 4 2-1 7h-3c-1.705 1.94-1.705 1.94-3 4-.756-5.235-1.206-9.773 0-15"/><path fill="#b89050" d="M489 771h2c1.125 6.75 1.125 6.75 0 9h-2v4l2-2c.93 2.606 1.15 3.642.063 6.25L490 790h-2v-4l-3 1v-3h2l.438-2.25c.562-2.75.562-2.75 1.187-4.875.58-2.09.58-2.09-.625-4.875z"/><path fill="#b88f4f" d="M490 733h1c.082 2.062.14 4.125.188 6.188l.105 3.48c-.317 3.602-1.208 5.426-3.293 8.332l-1-2h-2l-1-8 3 1 2-2 1 5z"/><path fill="#835825" d="M479 639h2c1.322 2.645 1.097 4.678 1.063 7.625l-.028 3.04L482 652l-2 1v-4l-2-1v2h-2v-7l3 1z"/><path fill="#b58a4b" d="M478 480h3v5h-2v1l1.5 1.25c1.5 1.75 1.5 1.75 1.688 4.438L482 494c-2 0-2 0-4.062-1.75-1.954-2.27-2.663-3.316-2.938-6.25.438-2.25.438-2.25 1-4h2z"/><path fill="#ad8344" d="m540 723 2 1v2l3 1-1 13h-1l-1-7h-3c-1.187-2.187-1.187-2.187-2-5 1.375-2.812 1.375-2.812 3-5"/><path fill="#ad8546" d="M519 168h1l.402 3.105.535 4.083.264 2.04c.477 3.623 1.03 7.2 1.799 10.772h-4c-1.125-5.75-1.125-5.75 0-8v-4h-2v-5h2z"/><path fill="#b08243" d="m486 788 3 4 3-1c1.283 3.85 1.066 6.947 1 11h-1l-1-5-1 3h-3c-1.327-3.981-1.07-7.85-1-12"/><path fill="#7b4f1c" d="M486 715h2l1 9-1-3-2-1-1-1-.375 1.75c-.631 2.273-1.514 4.175-2.625 6.25h2l1-3 1 6-5-1a438 438 0 0 1 2-13l1 2h2z"/><path fill="#9c763a" d="M483 527h1v37h-2c-1.125-6.625-1.125-6.625 0-10 .15-2.064.248-4.131.316-6.2l.127-3.661.12-3.827.13-3.86q.16-4.726.307-9.452"/><path fill="#936931" d="M488 298h1q.507 3.312 1 6.625l.563 3.727c.391 3.265.518 6.365.437 9.648l-3 1-2-1c1.875-3.875 1.875-3.875 3-5h-3l-1 2c.375-1.937.375-1.937 1-4l2-1z"/><path fill="#966931" d="M508 222h3c2.681 3.506 3.495 6.658 4 11-6.75-1.75-6.75-1.75-9-4h2z"/><path fill="#724818" d="M542 729h1c.863 8.742 1.435 16.448-1 25-2-1-2-1-3-4l2-3-1-2 1-3c.04-2.333.044-4.667 0-7l-2 1v-3h3z"/><path fill="#b38744" d="m542 517 1 2h-2v14l-4 1c-.135-2.27-.232-4.54-.312-6.812l-.176-3.833C537 520 537 520 539.52 518.051z"/><path fill="#7f531f" d="m476 383 4 5-1 2-1-1c-.25 2.416-.25 2.416 0 5l3 2c-1 2-1 2-3 4-1.484-1.086-1.484-1.086-3-3-.328-3.102-.328-3.102-.25-6.625.015-1.168.03-2.336.047-3.54C475 384 475 384 476 383"/><path fill="#a77d3e" d="m526 362 1 2c5.17-.406 5.17-.406 10-2v6h-2l-1 15h-1l-1-17-8-1 2-1z"/><path fill="#bc9353" d="M538 706h1v5c2.158-.947 2.158-.947 4-3 .25 6.625.25 6.625-2 10h-2l-1 2c-.854-2.961-1.135-5.609-1.125-8.687l-.008-2.387C537 707 537 707 538 706"/><path fill="#c39954" d="M486 654h1v18h-2l.563 2.813C486 678 486 678 485 681c-2-2-2-2-2.125-5.625L483 672l-2-1 1-5 3 4z"/><path fill="#5f390f" d="m543 415 3 1v26l-2-4 1-3-3-1 1-4h2v-8h-2z"/><path fill="#c29958" d="m480 536 2 1c.125 6.625.125 6.625-1 10h-3l-1 3 1-5h-2c0-3 0-3 1-4l-2-2 5-1z"/><path fill="#825622" d="M541 401c1.125 3.75 1.125 3.75 0 6h-2v2l2 1v2l-4 1 1 7h-2v-13l4-1z"/><path fill="#c39755" d="M516 186c2 2 2 2 2 5l3-1v3h-1l-1 5h2v6l-2-2v-3h-2l-.437-2.812c-.484-3.195-.484-3.195-1.563-6.188.438-2.187.438-2.187 1-4"/><path fill="#b28647" d="M525 833h2v5l3-1q-.716 2.188-1.437 4.375l-.81 2.46C527 846 527 846 526 848l-3-1h2l-.508-1.793c-2.023-7.848-2.023-7.848.508-12.207"/><path fill="#865b26" d="M482 755h1v6h2v3l3 1v2h-2v-2h-2v4l-3-1q-.04-2.97-.062-5.937l-.036-3.34C481 756 481 756 482 755"/><path fill="#784c1b" d="M537 747c1.188 1.625 1.188 1.625 2 4-1.375 3.25-1.375 3.25-3 6l-1-2h-2v4l3-1 1 2-4 1v5h-1v-14l1 2h2v-5h2z"/><path fill="#7c501e" d="m531 336 4 1-1 3h3l1 7h-2v-5h-2l-.875 2.875C532 348 532 348 530 350z"/><path fill="#ab7f41" d="m541 276 1 2 2 1 1 3h2l1-4-1 8-7-1c-.625-2.812-.625-2.812-1-6z"/><path fill="#d0a96b" d="m543 257 3 1v6h2c1.158 4.054.837 6.218-1 10-1.125-1.75-1.125-1.75-2-4 .875-2.25.875-2.25 2-4-3.61.656-3.61.656-7 2a56.5 56.5 0 0 1 4-7l-4 2c1.875-4.875 1.875-4.875 3-6"/><path fill="#7d511e" d="M474 550h2l-.062 3.313c-.123 3.63-.123 3.63 1.062 6.687a100 100 0 0 1-1 6h2v3l-4-1c-.74-5.702-1.205-11.247-1-17z"/><path fill="#bd9454" d="m477 458 4 1c1.125 6.625 1.125 6.625 0 10h-4l-1-4h2v-2h-2v-2l4 1v-2h-3z"/><path fill="#a1783d" d="M485 357c3.083 1.199 6.063 2.477 9 4v2l6 2-1 2-9-2v-2l-5 2v-3h3v-2l-3-1z"/><path fill="#b08647" d="M493 823a140 140 0 0 1 5 7l-1.625 2.25L495 835c.691 2.303.691 2.303 2 4l-4 1-.375-2.937L492 834l-2-1 2-1 2 1-.473-1.934-.59-2.504-.597-2.496L492 824z"/><path fill="#9d7034" d="m478 553 2 1-1 6h2c-.586 6.152-.586 6.152-1 8l-2 1-1-2-2-1z"/><path fill="#956932" d="M480 259v3l-2 1a69 69 0 0 0-1 4 206 206 0 0 1-2 5h-2c-.309-8.031-.309-8.031 2-11 2.625-1.25 2.625-1.25 5-2"/><path fill="#d5b174" d="M481 260v4h2v-3h2l-2 8h-5l-1 2c-1.256-3.906-.816-6.368 1-10z"/><path fill="#885c25" d="M483 250h2l-2 7-5 1v2h-2l-1 2c.615-6.523.615-6.523 2.563-8.937L479 252l1 2 2-1z"/><path fill="#b0894a" d="M540 700h3c2.91 2.91 2.538 6.088 2.75 10l.168 2.234c.116 1.919.107 3.844.082 5.766l-2 2v-14l-4 2z"/><path fill="#6f4515" d="M545 444h1v10l-2-2-1 4h-2l-1-3-1 7-2-1v-9l2 1c2.008-.281 4.01-.61 6-1z"/><path fill="#c29658" d="m487 333 4 3-1 4h-2v2h-2v6l-2-1a286 286 0 0 1-.187-5.312l-.106-2.989C484 336 484 336 485.512 334.145z"/><path fill="#b08649" d="m486 685 .438 1.813c.45 1.749.99 3.474 1.562 5.187h-2l-1 2-1-1-1 2-2-1 2-3h-3v-2l-2-1h3v-2c2-1 2-1 5-1"/><path fill="#b78e51" d="m497 353 2 1 .375 2.313c.763 3.282 2.124 4.508 4.625 6.687-2 .043-4 .04-6 0l-1-1h-2l-1-5 2 1 1-2h-3v-2z"/><path fill="#885f29" d="M494 838c2.438.625 2.438.625 5 2 .75 2.813.75 2.813 1 6q.487 2.502 1 5c-3-1-3-1-4.168-2.707l-1.02-2.106-1.042-2.082C494 842 494 842 494 838"/><path fill="#a77a3d" d="m487 803 4 1c-.28 1.98-.575 3.96-.875 5.938l-.492 3.34L489 816l-2 1-1-9h2z"/><path fill="#c09958" d="M482 648h2c1.008 3.196 1.194 4.572-.215 7.676l-1.723 2.636c-.565.884-1.131 1.767-1.714 2.676L479 663c-.869-3.092-1.061-4.923 0-8l1-1a253 253 0 0 0 2-6"/><path fill="#7c521d" d="M545 501h1q.039 2.656.063 5.313l.035 2.988C546 512 546 512 545 515h-2l2-8h-2v5l-2 1 1-9-2-1 5 1z"/><path fill="#7d531f" d="m534 374 2 2-1 2 4-1v2l-2 1c-.73 3.451-1.164 6.214-.437 9.688.54 2.853-.191 3.834-1.563 6.312-1.583-7.615-2.26-14.298-1-22"/><path fill="#92672e" d="M538 233h2q1.293 3.433 2.563 6.875l.748 1.973c.62 1.697 1.16 3.424 1.689 5.152l-1 2-1-3h-2v-5l-5-1v-2l2-1-1-2z"/><path fill="#a98141" d="m479 352 2 2c-.327 2.616-.82 4.64-2 7h-2l-1 7-3 1a212 212 0 0 1 2.438-9.062l.746-2.598C477 355 477 355 479 352"/><path fill="#6e4519" d="M514 259h2c.404 6.459-.408 11.061-3 17-1.425-4.276-.956-7.698 0-12l-4-1 1.938-.437c2.037-.373 2.037-.373 3.062-1.563z"/><path fill="#ba8e4e" d="m485 240 5 2-1 2-3-1v2h2l-2 5h-3l-1 4c-1.61-3.22-.068-5.682 1-9a152 152 0 0 1 2-5"/><path fill="#6b4319" d="m507 230 3 2-.562 3.125c-.417 3.686-.052 6.265.562 9.875-.437 3.375-.437 3.375-1 6h-1c-1.327-6.968-1.088-13.93-1-21"/><path fill="#805421" d="M534 766h2c1.231 3.694.644 6.206 0 10h-2v-3l-2 10h-1c-.354-6.518-.039-11.175 3-17"/><path fill="#885c23" d="M478 515h2c.877 2.454 1.16 3.596.188 6.063A154 154 0 0 1 477 526h-2l-1 2v-7h4v-2l-3-1 3-1z"/><path fill="#ba9256" d="M478 362h5c1.125 3.75 1.125 3.75 0 6l-3-2 .188 2.375L480 371l-3 2c-.143-7.429-.143-7.429 1-11"/><path fill="#b18648" d="m492 228 2 2h-2l1 5 1.375-1.5C496 232 496 232 498 232c-1.049 2.622-1.65 3.794-4.125 5.25L492 238v-2h-2l-2 4c.665-4.389 2.188-7.981 4-12"/><path fill="#986c31" d="M530 774h1q.333 3.811.625 7.625l.195 2.16c.335 4.56-.038 7.902-1.82 12.215h-1z"/><path fill="#b38748" d="M537 350c.625 1.813.625 1.813 1 4l-2 3c-4.75-.875-4.75-.875-7-2l-1 2h-2l-1-4c2.547-1.274 3.428-.802 6.125-.062l2.195.59L535 354z"/><path fill="#815824" d="m541 286 6 2q.079 2.438.125 4.875l.07 2.742C547 298 547 298 545 300l-1-1c.009-2.297.133-4.578.258-6.871L544 290l-3-2z"/><path fill="#c1995b" d="M541 249h2c-.665 4.389-2.188 7.981-4 12l-2-3-2 2-1-6 4-1 1 2z"/><path fill="#ae8344" d="M482 658h3l-1 4h-2l-1 5c-3 0-3 0-4.687-1.5L475 664l1-3h2l2 2z"/><path fill="#976f34" d="M541 354c1.875.188 1.875.188 4 1 2.302 3.914 2.175 7.547 2 12-2-2-2-2-3-5l-2-1a109 109 0 0 1-1-7"/><path fill="#996d31" d="M532 322h1l.184 1.793c.436 4.117.903 8.162 1.816 12.207h-2l-1 4c-1.938-5.813-1.178-12.11 0-18"/><path fill="#7c511e" d="m539 270 3 1v3c2.118 1.118 2.118 1.118 5 2l-1 2-5-1v2l-3 1z"/><path fill="#734919" d="m509 201 2 3 2-3v8l-2-1 1-2h-2l-1 7h-2q.21-2.72.438-5.437c.08-1.01.162-2.02.246-3.06C508 202 508 202 509 201"/><path fill="#9c7538" d="M488 696h1v23l-1-4h-3v-3h3l-.527-2.137c-.506-3.064-.37-5.595-.036-8.676l.31-2.957z"/><path fill="#c29a5c" d="M482 614h2l-1 15h-2l.125-2.125c-.142-3.259-.992-5.831-2.125-8.875l2-1z"/><path fill="#a98141" d="M545 539h2c1.206 4.944.63 8.209-1 13l-4-1 2-1v-4h2l-1-4-2 1z"/><path fill="#704516" d="m474 433 1 4 3 1c.73 1.848.73 1.848 1.188 4.063l.48 2.222L480 446h-3v-4l-3 3z"/><path fill="#b48a4e" d="M500 353q3.5-.062 7 0c1 1 1 1 1 4l-3 1 1 4h-2l-1-4h-3l1-2 2 1v-2l-3-1z"/><path fill="#835825" d="M511 243h5v2l-1 1h1v6l-1-2c-3.075.776-3.075.776-5 3-.08-3.522-.04-6.62 1-10"/><path fill="#845c28" d="M494 210h2c-.75 6.75-.75 6.75-3 9-.167 2.584-.167 2.584 0 5l-3 1c.497-5.661 1.545-9.877 4-15"/><path fill="#865b26" d="m507 848 3 1c.688 2.063.688 2.063 1 4l-3-1v2l3 1v1h-5l-1-7z"/><path fill="#a57a3f" d="m537 648 3 1-1 11h-3c-.143-8.571-.143-8.571 1-12"/><path fill="#bc904d" d="M543 527c2.68 4.019 2.156 6.242 2 11h-2l-1-2-3 1v-3l3-3c.714-2.103.714-2.103 1-4"/><path fill="#b68b49" d="M480 519h1c.286 8.571.286 8.571-2 12l-3-1h2l-1-2h-2v-2h2c1.206-2.332 2.165-4.496 3-7"/><path fill="#7f5621" d="m543 398 3 1v17h-1l-1-9h-1z"/><path fill="#a0753b" d="m477 388 7 2-2 6-5-2z"/><path fill="#653e14" d="m477 361 2 1-.437 3.875c-.561 5.038-1.068 10.08-1.563 15.125h-1c-1.78-7.117-1.279-13.163 1-20"/><path fill="#764e1f" d="M492 782c3.131 3.386 3.336 5.711 3.188 10.25l-.083 3.266L495 798h-1l-2-8h-2z"/><path fill="#af8543" d="m536 621 3 1v7h-2l-1 3c-2-5.625-2-5.625-2-9h2z"/><path fill="#b68b4b" d="m540 605 2 1v2h2v2h-2l1 5-4 1 1-3c-.883-3.15-.883-3.15-2-6h2z"/><path fill="#956930" d="M478 591h3v2h2v6l-4 1z"/><path fill="#825722" d="m474 569 5 1-1 3-3-1v2h2l.938 2.375c.99 2.548.99 2.548 2.062 4.625l-5-2v-2l-2-1z"/><path fill="#875922" d="m541 473 4 5-4 1v3h-3l-1-4h2v-4z"/><path fill="#ad8242" d="M537 464h1v7l5 1-4 2v4h-2v-6l-2-1z"/><path fill="#b68b4c" d="M534 358h4v2l3-1v2l4 1-1 4-1-2-3 3-1-2h2l-1-4h-5z"/><path fill="#b18448" d="M533 328h3c1.262 2.525 1.099 4.312 1.063 7.125l-.028 2.758L537 340h-3l.063-3.75c.005-2.914-.133-5.46-1.063-8.25"/><path fill="#a27b3e" d="M517 164v1l-5 1 1 2c-.437 2.125-.437 2.125-1 4l-4-2 2-3h-2v2h-2c2.545-5.635 5.028-5.11 11-5"/><path fill="#754b1c" d="M496 832c2 2 2 2 3 4a101 101 0 0 0 6 2l-1 3-2-1-1 2-.375-1.937L500 838l-2-1-1 2-3-5z"/><path fill="#9a6d30" d="M535 727a91 91 0 0 1 4 4v2h-2l-1 6h-2c-.143-8.571-.143-8.571 1-12"/><path fill="#b88d4e" d="m543 562 2 1v3h-3l-.184 1.898-.254 2.477c-.08.812-.162 1.624-.246 2.46C541 575 541 575 540 577h-2v-7l2-1a161 161 0 0 0 3-7"/><path fill="#744717" d="M537 550h2l-1 8 2 1-1 1 2 4c-3.875 1-3.875 1-5 1z"/><path fill="#976b32" d="M474 431c1.938.313 1.938.313 4 1l1 3 3 2-3 3c-1.937-1.125-1.937-1.125-4-3-.75-3.187-.75-3.187-1-6"/><path fill="#845b26" d="M490 318h2c.773 5.911 1.148 11.131 0 17h-2v-14l-2-1h2z"/><path fill="#a1763b" d="m486 230 4 3-2 7-3-1h-2z"/><path fill="#c29657" d="M513 201h1q.039 2.906.063 5.813l.035 3.269C514 213 514 213 513 216h-2l-1-10h2l1 3z"/><path fill="#774a17" d="m511 177 3 1c-.58 3.365-1.635 4.635-4 7-.714 2.103-.714 2.103-1 4h-2l1-7 3-1-1-3z"/><path fill="#b08445" d="M528 796h1v8h2v2l2 1-2 7h-2l.625-2.25c.635-2.688.635-2.688-.594-4.625-1.206-2.485-1.237-4.133-1.156-6.875l.055-2.422z"/><path fill="#bf9452" d="m537 797 2 1c-.655 4.863-1.451 9.353-3 14v-2h-2c.523-2.763 1.109-5.326 2-8l-2-1z"/><path fill="#bf9453" d="m486 758 3 1-1 3 3-1v8l-2-1 1-2-5-2v-2h2z"/><path fill="#c49a5a" d="M485 719c2 1 2 1 2.688 2.625.427 3.25-.132 6.163-.688 9.375l-1.375-2-1.625-2h-2l.938-2.312A111 111 0 0 0 485 719"/><path fill="#7c521f" d="M478 702h1v5h3l1-2c.563 1.938.563 1.938 1 4l-1 1 1 2-4-1-1 2c-1-1-1-1-1.098-3.285l.036-2.778.027-2.785z"/><path fill="#7e5421" d="M482 599c2.354 2.55 2.983 3.71 3.188 7.25L485 609l-3-1-2 4-1-3 2-3c.394-2.324.735-4.658 1-7"/><path fill="#b99053" d="m486 352 1 2 3-1 3 2v2h-2l1 1 1 2-2 2c-3-3.75-3-3.75-3-6h-3z"/><path fill="#8a5b25" d="M537 305h1v9l4 1-1 4h-2v-2h-3c-.143-8.571-.143-8.571 1-12"/><path fill="#7e5121" d="m536 256 3 4 2-1v3l3-1c-1.75 3.875-1.75 3.875-4 5-2-1.625-2-1.625-4-4-.25-3.25-.25-3.25 0-6"/><path fill="#835923" d="m486 242 1 2 5-2-1 3h-2v3h2v2l-3 1v-2l-3-1 3-3h-2v2l-2-1z"/><path fill="#af8042" d="M513 185c.857 3.08 1.27 6.068 1.563 9.25l.253 2.703L515 199l-2-3h-2l-1-4h2z"/><path fill="#865c25" d="m530 830 3 1-1 9-3-2h-3l1-3h2l2-2z"/><path fill="#794f1f" d="M489 752h2c1.323 4.96 1.089 9.911 1 15-2-3-2-3-2-5h-2z"/><path fill="#88612b" d="M544 675c2.326 3.634 2.163 6.77 2 11h-2c-2.412-2.412-2.76-3.63-3-7 1.438-2.312 1.438-2.312 3-4"/><path fill="#b08446" d="M542 586h1l1 9-4 2-2-2 3-1v-2h-2v-2h2z"/><path fill="#744917" d="m538 510 2 1-1 2h2v3l2 1-3 2c-.736 3.568-.736 3.568-1 7h-1z"/><path fill="#6d4214" d="m536 431 3 2-1 14h-1z"/><path fill="#835a26" d="M477 288h1c3 9 3 9 3 12l-3 1c-1-1-1-1-1.098-3.723l.036-3.34.027-3.347z"/><path fill="#7d521e" d="m497 217 2 1v4h2l-1 6h-3v-2h2l-4-5z"/><path fill="#835722" d="M520 207c2 1 2 1 2.688 2.938C523 212 523 212 522 214l3-1c-.312 1.938-.312 1.938-1 4l-3 1q-.54-2.466-1.062-4.937l-.598-2.778L519 208z"/><path fill="#b08444" d="M500 194h3v2l2 1-3 8c-2.326-3.634-2.163-6.77-2-11"/><path fill="#8d5f28" d="M512 179c3 3.625 3 3.625 3 7l-2 1c-.656 2.527-.656 2.527-1 5h-2l-1 2 .434-1.64c.645-2.69 1.142-5.387 1.628-8.11l.536-2.984z"/><path fill="#744b1c" d="M540 774h1c1.007 5.035.974 8.24-1 13l-.375-1.75c-.517-2.293-.517-2.293-1.875-4.187L537 779c1.313-2.75 1.313-2.75 3-5"/><path fill="#bf9758" d="M536 763h5l-.875 2.125c-1.146 2.93-2.151 5.884-3.125 8.875h-1z"/><path fill="#bf934f" d="m475 518 3 1v2h-2l-.437 3.563A558 558 0 0 1 474 536h-1v-16h2z"/><path fill="#794d19" d="m474 506 2 4 2 1v3l-2 1c-.656 2.527-.656 2.527-1 5h-1z"/><path fill="#845822" d="m475 474 2 4 2-2 2 4h-3v2l-4-1c-.043-2-.04-4 0-6z"/><path fill="#b3874a" d="M537 379c2.236 3.353 2.173 3.907 1.625 7.688l-.336 2.449L538 391l2 1-4-1c-1.369-4.517-.47-7.588 1-12"/><path fill="#c59d5e" d="m484 297 3 1c.25 5.625.25 5.625-2 9h-2l-1 2v-6l2 1-.562-2.937L483 298z"/><path fill="#976d32" d="m535 292 4 3c-.743 4.084-1.83 8.02-3 12h-1z"/><path fill="#caa15d" d="M482 281h2c1.153 4.943 1.54 9.957 2 15-2.447-1.87-2.97-2.825-3.512-5.918l-.175-3.27-.2-3.292z"/><path fill="#885c27" d="M477 276c2.962.613 4.38 1.254 7 3v2h-2l-1 4c-1.562-1.187-1.562-1.187-3-3 .313-2.687.313-2.687 1-5z"/><path fill="#734a1b" d="M518 234h1l1 14h-3q-.04-2.937-.062-5.875l-.036-3.305C517 236 517 236 518 234"/><path fill="#b68b4a" d="M494 815h2l1 10-2 1q-.54-2.466-1.062-4.937l-.598-2.778L493 816z"/><path fill="#976e34" d="M490 746c2 2 2 2 2.195 4.164l-.07 2.461-.055 2.477L492 757h-1v-5h-3l-1 4c-.687-1.812-.687-1.812-1-4 1.375-1.562 1.375-1.562 3-3z"/><path fill="#6e4515" d="m476 652 6 2-1 2h-2l-.375 2.375C478 661 478 661 476 663z"/><path fill="#ba8f4e" d="M479 510c1.563 1.813 1.563 1.813 3 4l-1 3-1-2h-2l1 3-4-1c.79-3.495 1.463-4.463 4-7"/><path fill="#b48948" d="m541 497 1 3h5l-1 3c-3 1-3 1-7 1v-6z"/><path fill="#865925" d="M489 326v9l-3 1-1-8c3-2 3-2 4-2"/><path fill="#96672f" d="M542 252h3v7l-2-1-2 2c-.93-2.606-1.15-3.642-.062-6.25z"/><path fill="#b68c4c" d="M533 819h3l1 5-5 1-1-3z"/><path fill="#7c5321" d="M538 799h1q.079 3.188.125 6.375l.07 3.586C539 812 539 812 537 814c-1.016-5.791-.963-9.458 1-15"/><path fill="#97692e" d="m487 737 2 3-3 4v-3h-2v3h-2l1-6 4 1z"/><path fill="#693f11" d="M475 627c4 5 4 5 3.75 7.563L478 637v4h-2z"/><path fill="#976d32" d="m544 495 3 1v4l-7 2v-2h2v-4z"/><path fill="#ab7f3f" d="M542 422h3c.125 7.625.125 7.625-1 11h-2z"/><path fill="#9b6f30" d="M545 406v11c-2-2-2-2-2.125-5.125L543 409h-4v-2c2-1 2-1 6-1"/><path fill="#7e5320" d="M539 244h2v2h2c3.63 3.486 3.602 7.22 4 12h-2v-6h-2v-3h-2z"/><path fill="#855a25" d="M499 197h2v6l-2 1a78 78 0 0 0-2 5h-1c-.348-4.877.583-7.77 3-12"/><path fill="#7d4f19" d="M474 461h2v2h2v2h-2l-1 8h-1z"/><path fill="#b98e4f" d="M475 428h4l.875 2.375c.974 2.722.974 2.722 3.125 4.625l-4 1-.875-2.437c-.858-2.696-.858-2.696-3.125-3.563z"/><path fill="#764c1b" d="M483 362h2l1 2 4-1v2l-3 1-1 7c-2.566-3.85-2.551-6.435-3-11"/><path fill="#a98044" d="M483 331h3c-.875 4.875-.875 4.875-2 6a236 236 0 0 0-1 7h-1a701 701 0 0 1-.062-4.812l-.036-2.708C482 334 482 334 483 331"/><path fill="#7f5622" d="M475 274c1.737 3.474 2.3 5.076 2.625 8.75l.227 2.422L478 287l-3-1z"/><path fill="#a57c41" d="m486 249 5 1-3 9h-1z"/><path fill="#a37839" d="m517 165 2 1-1 4h-2v5l-2 1c-.37-6.4-.37-6.4 1.5-9.437z"/><path fill="#825926" d="M485 800h4v2h2l-1 2-3-1 1 5h-2z"/><path fill="#cea765" d="M489 771h2c1.125 6.75 1.125 6.75 0 9h-2l-2 4c.468-2.407.933-4.771 1.625-7.125.58-2.09.58-2.09-.625-4.875z"/><path fill="#ad8142" d="M533 761h6l-1 2h-2l1 3h-3l-1 3z"/><path fill="#7b5320" d="M542 605c1.938.563 1.938.563 4 2 .75 3.625.75 3.625 1 7l-2 1-1-3-2 1v-3h2v-2h-2z"/><path fill="#744916" d="M542 541h4v5h-2l-1 4v-2l-2-1h2l-1-2-2 1z"/><path fill="#bc904f" d="m540 368 3 1v6h-2l-1 3q-.29-2.218-.562-4.437l-.317-2.497L539 369z"/><path fill="#815521" d="M529 235c2 1 2 1 2.887 3.18l.8 2.695.825 2.68C534 246 534 246 533 249c-3.314-4.467-3.66-8.62-4-14"/><path fill="#b18547" d="m495 207 1 2 3 1h-2v10h-4l1-2.562c1.061-3.648 1.151-6.66 1-10.438"/><path fill="#855923" d="M484 653h1c-.615 6.514-.615 6.514-2.437 8.813L481 663l-2 2c.576-4.755 2.55-7.97 5-12"/><path fill="#9f7437" d="M541 576h2v2l3 1-1 4-1-2c-3.075.776-3.075.776-5 3z"/><path fill="#ab7d3c" d="m477 505 4 2v5l-5-2z"/><path fill="#b08548" d="m524 353-2 1 2 1v2l-3 1-4-5c3.133-1.044 3.99-.934 7 0"/><path fill="#b0864c" d="M510 279h2l2 5-2 1-2-1-2 4v-7h2z"/><path fill="#b88d51" d="M511 256h2c1.802 3.83 2.196 6.781 2 11l-.812-1.812c-1.057-2.243-1.057-2.243-2.875-3.688L510 260c.313-2.187.313-2.187 1-4"/><path fill="#a77d3f" d="m489 222 4 2c-1 3-1 3-3 4l-1 3c-1.125-1.687-1.125-1.687-2-4 .875-2.75.875-2.75 2-5"/><path fill="#885924" d="M491 791c2.68 4.019 2.156 6.242 2 11h-1l-1-5-2 3c.875-7.875.875-7.875 2-9"/><path fill="#a77b3c" d="M542 752h1v9l-5-3 1-4h3z"/><path fill="#835724" d="M479 620c1.563 1.625 1.563 1.625 3 4-.312 3.25-.312 3.25-1 6l-3-2z"/><path fill="#835a23" d="M479 501h3c1.203 2.405 1.1 3.95 1.063 6.625l-.028 2.477L483 512l-.875-1.937c-.953-2.215-.953-2.215-3.125-3.063h2v-5z"/><path fill="#ad8445" d="M486 366h1v9l-5-2v-4h2l1 2z"/><path fill="#865d27" d="m516 844 2 4c-2.647 1.46-3.894 2-7 2v-3h4z"/><path fill="#b38846" d="M499 820h1l1 10-3-1c-1.268-2.73-1.043-3.874-.062-6.75z"/><path fill="#b08344" d="M534 740h1l.438 3.375c.346 3.446.346 3.446 1.562 5.625h-2l1 3-1 2h-2z"/><path fill="#af8446" d="m536 697 4 2-2 6h-2z"/><path fill="#8d6027" d="M538 643h3c-.312 1.938-.312 1.938-1 4l-3 1 1 3-2 1c.875-7.875.875-7.875 2-9"/><path fill="#9c7033" d="m481 629 5 1 1 6h-2v-3l-5 1v-2h3v-2z"/><path fill="#b28444" d="M540 504h2l-1 9h-2c-1.033-2.788-1.045-3.868-.062-6.75z"/><path fill="#865a23" d="M474 500c3.625 1.208 3.402 1.803 5 5l-4 3c-1.354-2.709-1.065-5.01-1-8"/><path fill="#734918" d="m543 430 3 1v11l-2-4 1-3-3-1z"/><path fill="#8c6026" d="M492 342h2l2 9-3 1c-.625-3.435-1-6.49-1-10"/><path fill="#845a26" d="M510 283v9l-3-1c-.687-2.312-.687-2.312-1-5 2.276-3 2.276-3 4-3"/><path fill="#b38a48" d="M505 170h1c.222 1.623.427 3.249.625 4.875l.352 2.742L507 180l-2 2-1-1c.09-1.858.246-3.712.438-5.562l.308-3.067z"/><path fill="#bc914f" d="M477 473c2.5 1.375 2.5 1.375 5 3v2l-3-1-2 2-2-2z"/><path fill="#b88b4c" d="M540 452c1.43 2.354 2.087 3.48 1.625 6.25L541 460h-2c-.93-2.606-1.15-3.642-.062-6.25z"/><path fill="#c49d5c" d="M481 437c1.003 3.761 1 7.114 1 11l-2-1c-.594-2.649-.742-5.292-1-8h2z"/><path fill="#693d11" d="m476 383 4 5-1 2h-2l-2 1q-.062-3.5 0-7z"/><path fill="#90662f" d="m508 350 1 2 2 1c2 1 2 1 3 3h-8z"/><path fill="#c0995c" d="M483 261h2l-2 8h-4v-3l4-2z"/><path fill="#6f4314" d="M529 227h2l1 7-1-3h-2l-1 3-1-4h2z"/><path fill="#916b32" d="M529 839h2l-2 9c-2-3-2-3-1.687-5.625C528 840 528 840 529 839"/><path fill="#c69b59" d="M543 596h1v7l-1-4-2 2v2h-3l2-5h3z"/><path fill="#6c4113" d="M537 590h2v2h2v2l-2 1c-.656 2.527-.656 2.527-1 5h-1z"/><path fill="#9a7035" d="M478 547h4l-1 5h-4z"/><path fill="#c69b59" d="M539 399h4v8c-2-2-2-2-3-4l-3-2z"/><path fill="#b98e52" d="M538 290c1.938.313 1.938.313 4 1l1 3-2 1v3h-2z"/><path fill="#ae8147" d="M510 232h1v6l2 1-4 2c-1.255-3.766-.37-5.372 1-9"/><path fill="#ba8f4f" d="M538 230c1 3 1 3 1 6l-1 2-3-1v-6l3 1z"/><path fill="#ba8f50" d="M522 205c2.565 2.565 2.54 4.477 3 8l-3 1c-1.108-3.325-.845-5.622 0-9"/><path fill="#caa566" d="m540 723 2 1c-.564 3.27-1.5 4.826-4 7 0-3.767.235-4.912 2-8"/><path fill="#8a5e2a" d="M484 692h4v5l-7-1 2-1z"/><path fill="#c2995b" d="m485 688 3 1v3h-2l-1 2-1-1-1 2-2-1z"/><path fill="#724a1b" d="M485 672h2v10h-3l.5-2.75c.601-3.36.601-3.36.5-7.25"/><path fill="#a57739" d="m541 655 3 1v2l-2 1c-.656 2.527-.656 2.527-1 5l-2-3c.875-3.187.875-3.187 2-6"/><path fill="#b78b49" d="M541 648h2l1 6-4 2z"/><path fill="#b78d4e" d="M482 648h2l1 5-5 1z"/><path fill="#c9a363" d="M480 587h3l-1 6-1-2c-2.025-.652-2.025-.652-4-1l1-2 2 1z"/><path fill="#c79f5f" d="M479 487h2l1 7h-2a105 105 0 0 1-4-5l3-1z"/><path fill="#b78a46" d="m541 390 4 2-2 1c-.656 2.527-.656 2.527-1 5h-1z"/><path fill="#6c4216" d="M510 357c5.75-.125 5.75-.125 8 1v2l-6 1z"/><path fill="#8d622e" d="M486 321h2l-1 5-5 1v-3h3z"/><path fill="#81551f" d="M547 278h1l-1 8-5-1 2-3h3z"/><path fill="#683d12" d="M484 277c2.6 3.9 2.15 7.474 2 12-1.562-1.5-1.562-1.5-3-4 .032-2.774.496-5.253 1-8"/><path fill="#8b632f" d="M474 263c1.62 2.572 2.044 3.677 1.625 6.75L475 272h-2c-.125-6.75-.125-6.75 1-9"/><path fill="#bf9155" d="m511 226 3 1 1 6-6-1v-2l2-1z"/><path fill="#764a19" d="M526 213h1l.938 3.313A170 170 0 0 0 530 223c-1.937-.75-1.937-.75-4-2-1.277-2.946-.967-4.991 0-8"/><path fill="#a57a3d" d="M519 168h1v8h-3v-5h2z"/><path fill="#744c1c" d="M512 165h5l-3 6-3-4z"/><path fill="#7e501d" d="m491 804 2 2c-.242 2.164-.242 2.164-.875 4.625l-.617 2.477L491 815h-1c-.125-7.625-.125-7.625 1-11"/><path fill="#c89f5d" d="M539 757c1.063 1.875 1.063 1.875 2 4l-1 2-5-2 1-3z"/><path fill="#90632a" d="m536 690 4 3-1 3h-3z"/><path fill="#b88d4e" d="M478 679h4v2l3 1-1 2c-2.169-.506-4-1-6-2z"/><path fill="#af8141" d="M476 604h3c.625 2.313.625 2.313 1 5l-2 3-2-1 2-6z"/><path fill="#744c1b" d="M544 588h2v6h-3a100 100 0 0 1 0-5z"/><path fill="#ba9153" d="m537 372 2 1-1 5h-3v-5z"/><path fill="#a57a3f" d="M546 253c1.958 2.937 2.56 4.574 3 8l-1 2h-2z"/><path fill="#b88d51" d="m497 222 2 4h-2v2l-3 1 2-5-2-1z"/><path fill="#b7894d" d="m510 217 4 2-2 1v4l-1-2-3-1h2z"/><path fill="#b28547" d="m525 206 3 2c.688 3.625.688 3.625 1 7l-3-2c-.687-3.625-.687-3.625-1-7"/><path fill="#c09951" d="M482 787h1v5l-1-2-2-1h2z"/><path fill="#be9751" d="M480 339h1v6h-1z"/><path fill="#ba9148" d="M504 271h1v6h-1z"/><path fill="#c09b54" d="m482 796 2 1-1 2-2-2z"/><path fill="#bd9650" d="M475 698h1v5h-1z"/><path fill="#c29e58" d="M548 499h1v5h-1z"/><path fill="#b99752" d="m504 858 3 2h-3z"/><path fill="#bb9654" d="m500 854 1 2-3-1z"/><path fill="#bf9951" d="m532 700 1 4Z"/><path fill="#c39e59" d="m548 513 1 4Z"/><path fill="#bd9851" d="m533 428 1 4Z"/><path fill="#bc944b" d="M490 366h3l-1 2z"/><path fill="#bd9046" d="m504 240 1 4Z"/><path fill="#bd944d" d="m521 365 2 2h-2z"/><path fill="#b79451" d="m514 162 3 1Z"/><path fill="#bd9953" d="m473 352 2 1Z"/></svg>