<svg xmlns="http://www.w3.org/2000/svg" fill="none" viewBox="0 0 277 89"><g fill="#faefdc" clip-path="url(#a)"><path d="M92 25.447h2.364v-6.373l2.904-3.122 6.86 9.495h2.698l-8.042-11.12 6.552-7.017h-1.311l-9.661 10.216V7.31H92zm18.547-4.593q.046 1.112.565 2.039.54.909 1.465 1.548a7.7 7.7 0 0 0 2.158.98c.822.22 1.722.335 2.698.335q1.485-.002 2.698-.36c.803-.24 1.491-.581 2.056-1.033a4.6 4.6 0 0 0 1.31-1.625 4.94 4.94 0 0 0 .463-2.142c0-1.064-.27-1.934-.797-2.605a6.9 6.9 0 0 0-2.004-1.729 13.4 13.4 0 0 0-2.595-1.16 31 31 0 0 1-2.621-.981q-1.187-.512-1.979-1.187-.798-.667-.796-1.78-.002-.62.257-1.161.277-.54.796-.955c.36-.27.797-.49 1.311-.645a5.7 5.7 0 0 1 1.773-.258c1.111 0 2.062.245 2.852.723q1.175.725 1.388 2.244h1.747a4.16 4.16 0 0 0-.694-1.728 4.8 4.8 0 0 0-1.362-1.29 6 6 0 0 0-1.876-.8A8.5 8.5 0 0 0 117.176 7q-1.183 0-2.261.31c-.707.206-1.33.51-1.876.903-.552.4-.989.903-1.31 1.522-.308.606-.463 1.29-.463 2.064 0 1.019.257 1.832.771 2.45a6.5 6.5 0 0 0 1.953 1.574 15.6 15.6 0 0 0 2.544 1.058q1.359.445 2.544 1.006c.783.362 1.439.813 1.953 1.342q.77.804.77 2.141 0 1.703-1.233 2.477-1.212.774-3.263.774c-1.079 0-1.947-.135-2.595-.413-.656-.29-1.157-.632-1.516-1.032q-.521-.59-.694-1.238-.185-.639-.206-1.084zM131.859 7.31v18.137h2.339V7.31zm21.987 18.137-1.182.851a10 10 0 0 0-1.284 1.135q-.567.62-.566 1.393c0 .581.193.987.591 1.213.411.22.848.335 1.311.335q.588-.001 1.156-.206a3.9 3.9 0 0 0 1.002-.516l-.282-.697q-.26.128-.643.284a2 2 0 0 1-.745.155c-.36 0-.591-.116-.694-.335-.09-.226-.128-.4-.128-.516q0-.445.231-.852a4 4 0 0 1 .617-.825 7 7 0 0 1 .873-.748c.322-.246.649-.465.977-.671v-1.42h-9.302v-7.584h7.991V15.23h-7.991v-6.5h9.302V7.31h-11.666v18.138zm23.547-8.075h-5.113v1.057h2.903v4.696a8.9 8.9 0 0 1-2.389 1.11c-.81.244-1.722.36-2.75.36q-2.031 0-3.572-.619c-1.014-.413-1.85-.987-2.518-1.728a7.4 7.4 0 0 1-1.516-2.606q-.49-1.52-.488-3.328 0-1.802.463-3.303c.321-.993.803-1.857 1.439-2.58.629-.722 1.413-1.277 2.338-1.677.925-.412 1.991-.619 3.212-.619.803 0 1.554.09 2.261.258q1.048.261 1.876.697c.565.277 1.015.593 1.362.954.359.349.591.697.693 1.058h1.85c-.154-.374-.424-.806-.796-1.29-.36-.477-.861-.929-1.49-1.341-.636-.413-1.427-.755-2.364-1.032q-1.418-.437-3.315-.439c-1.478 0-2.827.206-4.06.62a9.4 9.4 0 0 0-3.186 1.805 7.9 7.9 0 0 0-2.082 2.864c-.501 1.122-.745 2.4-.745 3.844q-.001 1.838.566 3.56a9 9 0 0 0 1.798 3.07q1.207 1.372 3.058 2.194c1.233.528 2.711.8 4.445.8 1.285 0 2.422-.143 3.418-.413q1.51-.434 2.492-.955v1.058h2.21zm16.677 2.734 2.467 5.34h2.518L190.653 7.31h-1.311l-7.631 18.137h1.182l2.287-5.34zm-.539-1.16h-7.863l3.7-8.721h.103zM204.908 7.31v18.137h2.364v-7.998h1.131c.475 0 .873.045 1.182.129.321.09.616.232.873.438.257.207.495.478.72.8q.359.496.822 1.213l2.03 3.044c.257.4.501.761.745 1.084.257.329.527.613.823.851q.435.34.976.542c.373.135.822.206 1.336.206q.587-.001.951-.051c.238-.039.475-.123.719-.258v-.955c-.09.02-.173.039-.257.052h-.257a2.9 2.9 0 0 1-.976-.155 2.7 2.7 0 0 1-.771-.439 5 5 0 0 1-.694-.722c-.225-.29-.456-.62-.693-.98a106 106 0 0 1-1.671-2.529 53 53 0 0 0-.95-1.47q-.336-.515-.566-.749a1.7 1.7 0 0 0-.514-.387l-.257-.129v-.103q1.233-.077 2.107-.541a4.6 4.6 0 0 0 1.465-1.162q.561-.717.822-1.522a5.5 5.5 0 0 0 .257-1.6c0-.464-.096-.967-.282-1.521q-.26-.824-.925-1.548c-.431-.478-1.022-.878-1.773-1.187-.758-.323-1.716-.49-2.878-.49zm2.364 1.135h2.595q.974.002 1.773.284.792.288 1.362.8c.373.348.656.748.848 1.212q.309.698.309 1.522c0 .464-.097.942-.283 1.42a4 4 0 0 1-.797 1.29c-.359.38-.809.696-1.336.954-.533.245-1.143.36-1.824.36h-2.647zm32.729-1.135v13.854h-.103L225.56 7h-.128v18.447h1.207V11.592h.103l14.312 14.164h.129V7.31zm10.413 0v18.137h2.338V7.31zm21.602 12.796 2.467 5.34h2.518L268.598 7.31h-1.31l-7.632 18.137h1.182l2.287-5.34zm-.54-1.16h-7.863l3.7-8.721h.103zM92 32.57V43.6h1.438v-4.864h.687q.436 0 .719.078c.195.055.375.142.531.267s.3.29.438.486q.217.3.5.738l1.234 1.85q.233.366.453.66c.156.2.32.372.5.518q.265.206.594.329c.226.082.5.126.812.126a5 5 0 0 0 .578-.032q.216-.034.438-.157v-.58q-.082.019-.156.031h-.157q-.329 0-.593-.094a1.6 1.6 0 0 1-.47-.267 3 3 0 0 1-.421-.439 10 10 0 0 1-.422-.596 65 65 0 0 1-1.016-1.538 32 32 0 0 0-.578-.894 3 3 0 0 0-.343-.455 1.1 1.1 0 0 0-.313-.235l-.156-.078v-.063q.75-.048 1.281-.33.545-.282.89-.706.342-.436.5-.925.155-.502.157-.973-.001-.421-.172-.926a2.5 2.5 0 0 0-.562-.94q-.393-.438-1.079-.723c-.46-.196-1.043-.298-1.75-.298zm1.438.69h1.578q.59.002 1.078.173.48.176.828.486a2.1 2.1 0 0 1 .516.738q.186.424.187.926c0 .282-.059.572-.172.862a2.4 2.4 0 0 1-.484.785 2.8 2.8 0 0 1-.813.58 2.6 2.6 0 0 1-1.11.22h-1.609zm11.042-.69V43.6h7.094v-.864h-5.656v-4.612h4.859v-.737h-4.859v-3.954h5.656v-.863zm20.663 6.12h-3.11v.643h1.766v2.855q-.703.458-1.453.675-.736.222-1.672.22-1.235 0-2.172-.377a4.1 4.1 0 0 1-1.531-1.051 4.5 4.5 0 0 1-.922-1.585 6.6 6.6 0 0 1-.297-2.024q0-1.095.281-2.008c.196-.604.488-1.13.875-1.569a3.9 3.9 0 0 1 1.422-1.02c.563-.25 1.211-.376 1.953-.376q.732.002 1.375.157.638.159 1.141.424c.344.168.617.36.828.58q.328.316.422.643h1.125q-.143-.342-.485-.784a3.6 3.6 0 0 0-.906-.816q-.581-.376-1.437-.627-.862-.266-2.016-.267-1.345 0-2.469.376a5.7 5.7 0 0 0-1.937 1.099 4.8 4.8 0 0 0-1.266 1.74q-.454 1.023-.453 2.339-.001 1.117.344 2.165.356 1.036 1.094 1.866.733.834 1.859 1.334c.75.322 1.648.486 2.703.486.781 0 1.473-.086 2.078-.25q.919-.265 1.516-.581v.643h1.344zm4.673-6.12V43.6h1.422V32.57zm5.932 5.523q0 .883.328 1.883a5.8 5.8 0 0 0 1.063 1.851q.731.848 1.843 1.412 1.108.549 2.672.55a6.7 6.7 0 0 0 1.891-.252 6.4 6.4 0 0 0 1.547-.706q.684-.436 1.187-1.02.497-.577.813-1.208.327-.64.484-1.286.17-.64.172-1.224-.001-.894-.359-1.882a5.7 5.7 0 0 0-1.11-1.852q-.75-.858-1.906-1.411-1.16-.565-2.719-.565-1.564 0-2.672.549c-.742.369-1.355.831-1.843 1.396a5.7 5.7 0 0 0-1.063 1.851 6.2 6.2 0 0 0-.328 1.914m1.547 0q0-1.111.328-2.023a5 5 0 0 1 .922-1.585q.592-.66 1.391-1.035a4.04 4.04 0 0 1 1.75-.377q.92 0 1.734.377a4.7 4.7 0 0 1 1.453 1.035q.621.66.984 1.585.36.912.36 2.023 0 1.1-.36 2.024a5.1 5.1 0 0 1-.984 1.585q-.627.658-1.453 1.035a4.2 4.2 0 0 1-1.734.361 4.15 4.15 0 0 1-1.75-.36 4.3 4.3 0 0 1-1.391-1.036 5.2 5.2 0 0 1-.922-1.585 6 6 0 0 1-.328-2.024m23.191-5.522v8.425h-.062l-8.719-8.613h-.078V43.6h.734v-8.425h.063l8.703 8.613h.078V32.571zm11.799 7.781 1.5 3.247h1.531l-5.109-11.029h-.797l-4.64 11.03h.718l1.391-3.248zm-.328-.706h-4.781l2.25-5.303h.062zm6.918 3.954V32.57h1.437v10.166h5.657v.863zm19.521-11.029v8.425h-.062l-8.719-8.613h-.078V43.6h.734v-8.425h.063l8.703 8.613h.078V32.571zm11.799 7.781 1.5 3.247h1.532l-5.11-11.029h-.797l-4.64 11.03h.718l1.391-3.248zm-.328-.706h-4.781l2.25-5.303h.062zM92 49.138l3.89 11.029h.938l3-8.613h.078l2.906 8.613h.922l3.891-11.03h-.719l-3.25 9.21h-.062l-3.063-9.21h-.672L96.734 58.3h-.062l-3.234-9.162zm35.896 6.118h-3.109v.643h1.766v2.856q-.703.459-1.453.674c-.493.15-1.047.22-1.672.22q-1.235 0-2.172-.377a4.1 4.1 0 0 1-1.531-1.05 4.5 4.5 0 0 1-.922-1.585 6.6 6.6 0 0 1-.297-2.024q0-1.095.281-2.008c.195-.604.488-1.13.875-1.569a3.9 3.9 0 0 1 1.422-1.02q.841-.375 1.953-.376.731.002 1.375.157.638.159 1.141.423.513.252.828.58c.219.213.359.424.422.644h1.125q-.143-.342-.485-.785a3.6 3.6 0 0 0-.906-.815q-.581-.376-1.437-.628-.862-.266-2.016-.267-1.346 0-2.469.377a5.7 5.7 0 0 0-1.937 1.098 4.8 4.8 0 0 0-1.266 1.742c-.305.682-.453 1.459-.453 2.337q-.001 1.118.344 2.165.356 1.036 1.093 1.867.734.834 1.86 1.334c.75.321 1.648.486 2.703.486q1.171-.002 2.078-.251.919-.264 1.516-.58v.643h1.343zm2.94-.596q0 .882.328 1.883a5.8 5.8 0 0 0 1.063 1.85q.731.848 1.843 1.413 1.108.548 2.672.549c.695 0 1.328-.086 1.891-.251a6.4 6.4 0 0 0 1.547-.706q.684-.437 1.187-1.02.497-.577.813-1.208.327-.64.484-1.286.17-.642.172-1.224-.001-.894-.359-1.882a5.7 5.7 0 0 0-1.11-1.852q-.751-.858-1.906-1.412-1.16-.564-2.719-.565-1.564.001-2.672.55-1.112.55-1.843 1.396a5.7 5.7 0 0 0-1.063 1.851 6.2 6.2 0 0 0-.328 1.914m1.547 0q0-1.112.328-2.024a5 5 0 0 1 .922-1.584q.592-.66 1.39-1.036a4.05 4.05 0 0 1 1.75-.376q.92 0 1.735.376a4.7 4.7 0 0 1 1.453 1.036q.621.66.984 1.584.36.912.36 2.024 0 1.1-.36 2.024a5.1 5.1 0 0 1-.984 1.584q-.627.66-1.453 1.036a4.2 4.2 0 0 1-1.735.36 4.15 4.15 0 0 1-1.75-.36 4.3 4.3 0 0 1-1.39-1.036 5.1 5.1 0 0 1-.922-1.584 6 6 0 0 1-.328-2.024m4.234-8.864h1.735l-2.438 2.008h-.609zm10.098 3.342v11.029h1.437v-4.864h.688q.435.001.719.079c.195.055.375.14.531.266q.233.19.437.487.219.301.5.737l1.235 1.851c.156.244.304.463.453.66.156.2.32.372.5.517q.265.206.594.33c.226.082.5.125.812.125q.357-.001.578-.031.216-.035.438-.157v-.58c-.055.01-.106.023-.157.03h-.156q-.33.001-.594-.094a1.6 1.6 0 0 1-.468-.266 3 3 0 0 1-.422-.44 9 9 0 0 1-.422-.596 66 66 0 0 1-1.016-1.537 30 30 0 0 0-.578-.894 3 3 0 0 0-.344-.455 1 1 0 0 0-.312-.236l-.156-.078v-.063q.749-.046 1.281-.33.545-.282.891-.705.34-.436.5-.926c.101-.333.156-.659.156-.973q-.001-.421-.172-.925a2.5 2.5 0 0 0-.563-.942c-.261-.29-.621-.533-1.078-.721-.461-.196-1.043-.298-1.75-.298zm1.437.69h1.578q.592.001 1.079.173.48.175.828.486c.226.212.398.455.515.737q.188.425.188.926-.001.425-.172.863a2.4 2.4 0 0 1-.484.784 2.8 2.8 0 0 1-.813.58c-.324.15-.695.22-1.109.22h-1.61zm10.026-.69V50h6.64l-7.031 10.166h9.516v-.863h-7.235l6.953-10.166zm12.681 0v11.029h7.094v-.863h-5.656V54.69h4.859v-.737h-4.859V50h5.656v-.863zm17.373 11.029h1.438v-3.875l1.766-1.899 4.171 5.774h1.641l-4.891-6.762 3.985-4.267h-.797l-5.875 6.212v-6.212h-1.438zm18.684-3.247 1.5 3.247h1.531l-5.109-11.03h-.797l-4.641 11.03h.719l1.391-3.248zm-.328-.707h-4.781l2.25-5.303h.062zm6.918 3.954v-11.03h1.437v10.167h5.657v.863zm9.256-11.029 3.89 11.029h.938l3-8.613h.078l2.906 8.613h.922l3.891-11.03h-.719l-3.25 9.21h-.063l-3.062-9.21h-.672l-3.125 9.163h-.062l-3.235-9.162zm25.295 7.782 1.5 3.247h1.531l-5.109-11.03h-.797l-4.641 11.03h.719l1.39-3.248zm-.328-.707h-4.782l2.25-5.303h.063zm6.917-7.075v11.029h1.438v-4.864h.687q.437.001.719.079c.196.055.375.14.531.266q.234.19.438.487.218.301.5.737l1.234 1.851c.157.244.305.463.453.66q.233.3.5.517.265.206.594.33.342.124.813.125.356-.001.578-.031.216-.035.437-.157v-.58c-.054.01-.105.023-.156.03h-.156q-.33.001-.594-.094a1.7 1.7 0 0 1-.469-.266 3 3 0 0 1-.422-.44 10 10 0 0 1-.421-.596 63 63 0 0 1-1.016-1.537 33 33 0 0 0-.578-.894 3 3 0 0 0-.344-.455 1.1 1.1 0 0 0-.312-.236l-.157-.078v-.063q.749-.046 1.282-.33.545-.282.89-.705.341-.436.5-.926a3.3 3.3 0 0 0 .156-.973 3 3 0 0 0-.171-.925 2.5 2.5 0 0 0-.563-.942c-.262-.29-.621-.533-1.078-.721-.461-.196-1.043-.298-1.75-.298zm1.438.69h1.578q.592.001 1.078.173.482.175.828.486c.227.212.399.455.516.737q.187.425.187.926 0 .425-.171.863a2.4 2.4 0 0 1-.485.784 2.8 2.8 0 0 1-.812.58 2.6 2.6 0 0 1-1.11.22h-1.609zm11.684-.69v11.029h1.421v-11.03zm7.668 0v11.029h1.421v-11.03zM97.75 76.509l1.156 2.478h1.156l-3.906-8.44h-.61L92 78.987h.547l1.062-2.478zm-.25-.55h-3.656l1.719-4.063h.046zm9.111 3.531q0 .564-.14.941a1.6 1.6 0 0 1-.36.628q-.234.234-.562.345c-.211.07-.434.11-.672.11q-.645 0-1.031-.33a3 3 0 0 1-.703-.863l-.672.612q.091.106.265.282.186.17.453.346.282.168.657.298.387.124.89.125.905-.001 1.469-.266c.375-.17.664-.4.875-.69q.31-.424.422-.99.124-.565.125-1.16v-5.915h-1.016v.942h-.047a1.37 1.37 0 0 0-.625-.785q-.47-.282-1.234-.282-.627 0-1.125.22-.503.222-.859.627-.363.412-.563.988a3.8 3.8 0 0 0-.203 1.287q-.001.724.203 1.318.2.58.563 1.004.356.41.859.627.499.219 1.109.22.67 0 1.157-.267a1.54 1.54 0 0 0 .718-.831h.047zm0-3.075a2.7 2.7 0 0 1-.14.91 2 2 0 0 1-.375.643q-.223.269-.532.408a1.5 1.5 0 0 1-.609.125q-.297 0-.625-.094a1.6 1.6 0 0 1-.609-.376c-.188-.189-.344-.447-.469-.785-.125-.345-.188-.776-.188-1.302q-.001-.846.219-1.349.233-.498.531-.769a1.6 1.6 0 0 1 .625-.345q.328-.077.516-.078.387 0 .703.188.31.177.516.47.217.285.328.675.107.377.109.8zm6.08-3.577q.874.002 1.344.25.48.238.703.644c.157.263.242.565.266.91q.03.52.031 1.051v3.295h-.969v-.596q-.345.347-.89.549a3.2 3.2 0 0 1-1.078.188q-.517-.001-.922-.173a2.2 2.2 0 0 1-.656-.47 2.3 2.3 0 0 1-.391-.66 2.17 2.17 0 0 1 .016-1.49q.14-.388.421-.69.296-.313.719-.502a2.2 2.2 0 0 1 .953-.204q.545.001 1.032.22.48.205.796.58v-.517q-.002-.99-.296-1.46c-.2-.321-.555-.486-1.063-.486q-.347 0-.594.094a1.5 1.5 0 0 0-.453.236 1.7 1.7 0 0 0-.375.36 8 8 0 0 0-.328.502l-.625-.627q.17-.17.359-.345.186-.189.454-.33.264-.153.64-.235.374-.094.906-.094m1.375 3.765a5 5 0 0 0-.171-.33 1.6 1.6 0 0 0-.297-.376 1.5 1.5 0 0 0-.438-.314 1.34 1.34 0 0 0-.594-.125q-.346 0-.64.141a1.7 1.7 0 0 0-.485.36 1.7 1.7 0 0 0-.296.519q-.111.299-.11.627c0 .263.039.486.125.675.094.188.211.353.36.486q.215.189.484.282.265.095.5.095.234.002.469-.079a1.7 1.7 0 0 0 .812-.58q.17-.219.281-.455zm3.231-3.153v-.487h1.047v-1.85h1.015v1.85h1.453v.487h-1.453v4q-.001.141.016.33c.008.125.031.243.063.345a.6.6 0 0 0 .187.267q.124.11.359.11.296 0 .485-.204c.125-.145.226-.302.312-.471l.563.565c-.399.4-.84.596-1.328.596q-.316.001-.625-.11-.298-.105-.532-.33a1.6 1.6 0 0 1-.375-.564 2.3 2.3 0 0 1-.14-.832V73.45zm8.248-.612q.874.002 1.344.25.48.238.703.644.232.394.265.91.031.52.032 1.051v3.295h-.969v-.596a2.4 2.4 0 0 1-.891.549 3.2 3.2 0 0 1-1.078.188q-.516-.001-.922-.173a2.2 2.2 0 0 1-.656-.47 2.3 2.3 0 0 1-.391-.66 2.17 2.17 0 0 1 .016-1.49q.14-.388.422-.69.294-.313.719-.502c.281-.133.597-.204.953-.204q.545.001 1.031.22.48.205.797.58v-.517c0-.66-.102-1.146-.297-1.46-.199-.321-.555-.486-1.062-.486q-.347 0-.594.094a1.5 1.5 0 0 0-.453.236 1.7 1.7 0 0 0-.375.36 8 8 0 0 0-.328.502l-.625-.627q.17-.17.359-.345c.125-.126.273-.236.453-.33q.265-.153.641-.235.373-.094.906-.094m1.375 3.765a5 5 0 0 0-.172-.33 1.6 1.6 0 0 0-.297-.376 1.5 1.5 0 0 0-.437-.314 1.34 1.34 0 0 0-.594-.125q-.347 0-.641.141a1.7 1.7 0 0 0-.484.36 1.8 1.8 0 0 0-.406 1.145q-.002.394.125.676a1.6 1.6 0 0 0 .359.486q.217.189.484.282.265.095.5.095.235.002.469-.079a1.7 1.7 0 0 0 .813-.58q.17-.219.281-.455zm8.662-6.056v.675h5.078l-5.375 7.765h7.266v-.659h-5.531l5.328-7.781zm14.553 0h-1.016v3.404h-.047a1.6 1.6 0 0 0-.328-.517 1.5 1.5 0 0 0-.437-.346 1.6 1.6 0 0 0-.532-.188 2.83 2.83 0 0 0-1.687.157q-.503.223-.859.628a3.2 3.2 0 0 0-.579.988 3.9 3.9 0 0 0-.203 1.286q0 .724.203 1.318.216.582.579 1.004.356.412.859.628.514.219 1.109.22 1.419.001 1.875-1.115h.047v.973h1.016zm-1.016 6.024q0 .412-.14.769-.129.346-.344.612a1.7 1.7 0 0 1-.531.408 1.5 1.5 0 0 1-.657.14c-.25 0-.492-.038-.718-.125a1.5 1.5 0 0 1-.579-.439 2.4 2.4 0 0 1-.406-.784q-.157-.484-.156-1.161 0-.69.156-1.161.154-.483.406-.8.265-.31.594-.44.34-.14.703-.14.342 0 .641.14c.195.087.367.22.516.408q.234.27.375.66.14.376.14.878zm3.871-3.608v3.922q0 .208.047.597.046.376.25.753.2.363.641.627c.289.177.703.267 1.234.267q.34.011.75-.141.422-.142.844-.565l.187-.188h.047v.753h1.016v-6.025h-1.016v3.734q0 .472-.14.816-.129.33-.344.55a1.25 1.25 0 0 1-.5.329 1.6 1.6 0 0 1-.594.11q-.504 0-.797-.189a1.34 1.34 0 0 1-.422-.47 1.6 1.6 0 0 1-.156-.518 6 6 0 0 1-.016-.392v-3.97zm12.924 6.025V75.08a9 9 0 0 0-.031-.596 1.9 1.9 0 0 0-.235-.737q-.189-.375-.625-.643-.44-.266-1.218-.267a2.2 2.2 0 0 0-.797.141q-.422.14-.844.565l-.187.188h-.047v-.769h-1.032v6.025h1.032V75.27c0-.314.039-.58.125-.8a1.7 1.7 0 0 1 .359-.565q.234-.234.516-.345.293-.108.609-.11.514.002.781.204.28.188.407.455.123.27.14.533.03.27.031.377v3.969zm-2.656-8.582h1.328l-1.859 1.538h-.469zm8.564 8.095q-.422.002-.828-.125a2.05 2.05 0 0 1-.719-.424c-.211-.196-.375-.459-.5-.784q-.187-.484-.187-1.208-.001-.734.203-1.24.2-.516.516-.815a1.94 1.94 0 0 1 1.39-.597q.545.002.953.299.406.282.547.706h.828a1.8 1.8 0 0 0-.39-.722 2.3 2.3 0 0 0-.61-.455 2.4 2.4 0 0 0-.718-.235 5 5 0 0 0-.75-.063q-.769.002-1.344.25a2.6 2.6 0 0 0-.969.66 2.8 2.8 0 0 0-.594.988q-.203.566-.203 1.208-.002.677.219 1.255.216.584.625 1.02c.27.282.594.51.969.675a3.3 3.3 0 0 0 1.265.235c.532 0 .993-.09 1.391-.267a5 5 0 0 0 1-.58l-.344-.455a2.7 2.7 0 0 1-.843.517 2.5 2.5 0 0 1-.907.157m3.934-5.538v.487h3.609l-3.812 5.538h5.25V78.5h-3.766l3.797-5.538zm9.658 4.613-2.062-4.613h-1.094l2.687 5.946-.64 1.57a1.2 1.2 0 0 1-.282.438.56.56 0 0 1-.406.173.8.8 0 0 1-.422-.126.86.86 0 0 1-.297-.36l-.531 1.004c.156.133.321.235.5.298q.28.094.531.094.328-.001.579-.173.248-.175.437-.439.201-.269.344-.596l.281-.659 2.906-7.17h-.593l-1.875 4.613zm5.688-7.029h-1.032v8.44h1.032v-2.259l.687-.722 2.422 2.981h1.344l-3.016-3.718 2.297-2.306h-.781l-2.953 2.98zM66.143 54.692c4.856 0 9.784 2.172 12.731 3.47.935.392 1.67.734 2.24.92V89H0V59.081c.57-.185 1.309-.511 2.244-.92 2.943-1.297 7.858-3.468 12.73-3.469 3.902 0 8.252 2.102 12.476 4.137 4.322 2.094 8.826 4.26 13.109 4.26s8.766-2.166 13.108-4.26c4.212-2.035 8.57-4.136 12.476-4.137m0-11.265c4.856 0 9.784 2.172 12.731 3.468.935.393 1.67.736 2.24.92v6.952l-.629-.28c-3.234-1.434-8.645-3.79-14.342-3.79-4.818 0-9.596 2.302-14.212 4.533-4.118 1.985-8.005 3.859-11.372 3.859-3.368 0-7.258-1.874-11.371-3.858-4.621-2.244-9.412-4.535-14.213-4.535-5.698 0-11.108 2.38-14.342 3.803l-.633.28v-6.964c.57-.184 1.309-.51 2.244-.92 2.943-1.296 7.858-3.468 12.73-3.468 3.902 0 8.252 2.105 12.476 4.136 4.322 2.095 8.826 4.26 13.109 4.26s8.766-2.165 13.108-4.26c4.212-2.03 8.57-4.136 12.476-4.136m0-10.138c4.856 0 9.784 2.166 12.731 3.46.935.392 1.67.734 2.24.918v5.846l-.648-.276c-3.234-1.426-8.645-3.806-14.343-3.806-4.817 0-9.595 2.306-14.212 4.534-4.118 1.964-8.004 3.862-11.372 3.862-3.367 0-7.257-1.87-11.352-3.862-4.62-2.228-9.395-4.534-14.212-4.534-5.698 0-11.108 2.38-14.342 3.806L0 43.513v-5.83c.57-.185 1.309-.51 2.244-.918 2.943-1.295 7.858-3.46 12.73-3.46 3.902 0 8.252 2.099 12.476 4.127 4.322 2.09 8.826 4.252 13.109 4.252s8.766-2.161 13.108-4.252c4.224-2.048 8.57-4.143 12.476-4.143m14.971.063-.629-.26c-3.234-1.42-8.645-3.801-14.342-3.801-4.818 0-9.596 2.303-14.212 4.527-4.118 1.981-8.005 3.857-11.372 3.857-3.368 0-7.258-1.876-11.371-3.857-4.621-2.224-9.396-4.527-14.213-4.527-5.698 0-11.108 2.382-14.342 3.802L0 33.367V0h81.114z"/></g><defs><clipPath id="a"><path fill="#fff" d="M0 0h277v89H0z"/></clipPath></defs></svg>